<svg id="svg" version="1.1" width="400" height="400" viewBox="0 0 400 400" xmlns="http://www.w3.org/2000/svg" xmlns:xlink="http://www.w3.org/1999/xlink" ><g id="svgg"><path id="path0" d="M157.140 61.815 C 147.905 62.442,137.181 63.731,131.800 64.859 C 119.734 67.389,114.402 68.804,105.600 71.813 C 83.388 79.407,66.902 92.090,62.796 104.744 C 56.885 122.959,68.692 138.370,99.000 151.997 C 100.334 152.597,111.263 156.421,113.400 157.036 C 115.205 157.555,118.926 158.470,126.400 160.233 C 144.808 164.574,177.439 166.027,199.200 163.475 C 204.370 162.869,208.870 162.277,209.200 162.160 C 209.530 162.043,211.330 161.695,213.200 161.386 C 220.124 160.243,229.233 158.039,235.600 155.966 C 238.855 154.906,245.681 152.459,246.600 152.023 C 247.040 151.814,248.300 151.257,249.400 150.785 C 290.253 133.237,296.014 103.430,262.618 82.391 C 259.347 80.330,249.651 75.200,249.028 75.200 C 248.914 75.200,247.872 74.765,246.711 74.234 C 241.835 72.004,230.509 68.548,220.600 66.267 C 202.224 62.037,178.437 60.368,157.140 61.815 M61.326 153.000 C 61.435 174.607,61.368 174.095,64.969 180.573 C 72.127 193.449,90.123 204.599,115.400 211.819 C 116.720 212.196,118.571 212.751,119.514 213.052 C 120.457 213.354,121.544 213.600,121.930 213.600 C 122.316 213.600,123.655 213.867,124.906 214.192 C 140.338 218.212,171.805 220.346,190.400 218.634 C 200.816 217.675,200.572 217.702,206.600 216.785 C 217.228 215.168,225.145 213.351,226.540 212.210 C 235.624 204.779,250.643 198.212,262.821 196.348 C 270.435 195.183,281.266 183.247,283.766 173.268 C 284.538 170.185,284.697 133.357,283.930 135.200 C 279.938 144.792,273.511 151.843,262.445 158.773 C 257.983 161.568,245.645 167.600,244.391 167.600 C 244.170 167.600,243.677 167.764,243.295 167.965 C 241.958 168.668,235.772 170.791,232.600 171.634 C 219.625 175.085,217.459 175.545,206.400 177.198 C 204.750 177.444,202.320 177.822,201.000 178.037 C 189.409 179.924,162.030 180.069,147.600 178.319 C 145.730 178.093,143.120 177.778,141.800 177.621 C 137.449 177.103,130.678 175.910,125.600 174.767 C 120.794 173.686,119.047 173.251,113.800 171.831 C 111.156 171.115,103.689 168.623,101.800 167.826 C 101.140 167.548,99.970 167.086,99.200 166.799 C 81.559 160.240,67.735 148.690,61.859 135.600 C 61.278 134.306,61.238 135.630,61.326 153.000 M61.290 207.400 L 61.417 226.200 62.488 229.329 C 68.714 247.529,91.915 261.456,129.600 269.614 C 132.216 270.180,141.136 271.477,146.000 271.998 C 148.310 272.246,151.640 272.626,153.400 272.842 C 164.793 274.245,196.075 273.414,195.427 271.726 C 195.072 270.800,196.760 259.722,197.848 255.840 C 200.219 247.383,203.300 240.040,206.973 234.094 C 208.866 231.030,208.979 231.137,204.545 231.799 C 201.008 232.328,197.694 232.647,185.600 233.624 C 170.495 234.845,145.319 233.151,129.200 229.829 C 123.123 228.577,118.520 227.562,117.400 227.229 C 92.060 219.684,77.034 211.431,67.823 200.000 C 65.683 197.343,62.410 191.784,62.387 190.766 C 62.380 190.455,62.102 189.840,61.769 189.400 C 61.226 188.683,61.177 190.546,61.290 207.400 M283.619 190.100 C 283.356 190.815,282.757 192.158,282.287 193.084 C 281.325 194.984,281.364 195.093,283.129 195.446 L 284.400 195.700 284.400 192.250 C 284.400 188.433,284.316 188.204,283.619 190.100 M273.200 213.499 C 267.458 213.717,260.889 214.916,256.400 216.565 C 255.410 216.929,253.805 217.508,252.833 217.852 C 250.653 218.623,243.757 222.150,242.405 223.185 L 241.410 223.947 242.305 224.899 C 242.797 225.423,243.200 225.990,243.200 226.160 C 243.200 226.330,243.830 227.026,244.600 227.708 C 245.370 228.389,246.000 229.156,246.000 229.412 C 246.000 229.667,246.360 230.202,246.800 230.600 C 247.240 230.998,247.600 231.500,247.600 231.716 C 247.600 231.932,248.050 232.525,248.600 233.035 C 249.150 233.545,249.600 234.082,249.600 234.228 C 249.600 234.497,251.156 236.460,252.999 238.516 C 253.550 239.130,254.000 239.774,254.000 239.947 C 254.000 240.119,254.450 240.683,255.000 241.200 C 255.550 241.717,256.000 242.350,256.000 242.608 C 256.000 242.865,256.360 243.402,256.800 243.800 C 257.240 244.198,257.600 244.685,257.600 244.881 C 257.600 245.078,258.050 245.655,258.600 246.165 C 259.150 246.675,259.600 247.262,259.600 247.471 C 259.600 247.680,260.140 248.368,260.800 249.000 C 261.460 249.632,262.000 250.305,262.000 250.494 C 262.000 250.683,262.450 251.255,263.000 251.765 C 263.550 252.275,264.000 252.827,264.000 252.993 C 264.000 253.297,265.594 255.298,267.412 257.274 C 267.955 257.865,268.400 258.513,268.400 258.712 C 268.400 258.912,268.760 259.402,269.200 259.800 C 269.640 260.198,270.000 260.684,270.000 260.880 C 270.000 261.076,270.450 261.686,271.000 262.236 C 271.550 262.786,272.000 263.417,272.000 263.637 C 272.000 263.858,272.450 264.455,273.000 264.965 C 273.550 265.475,274.000 266.062,274.000 266.271 C 274.000 266.480,274.540 267.168,275.200 267.800 C 275.860 268.432,276.400 269.105,276.400 269.294 C 276.400 269.483,276.850 270.055,277.400 270.565 C 277.950 271.075,278.400 271.668,278.400 271.884 C 278.400 272.100,278.760 272.602,279.200 273.000 C 279.640 273.398,280.000 273.923,280.000 274.167 C 280.000 274.411,280.450 274.948,281.000 275.361 C 281.550 275.774,282.000 276.323,282.000 276.581 C 282.000 276.839,282.540 277.568,283.200 278.200 C 283.860 278.832,284.400 279.520,284.400 279.729 C 284.400 279.938,284.850 280.525,285.400 281.035 C 285.950 281.545,286.400 282.119,286.400 282.311 C 286.400 282.503,286.850 283.083,287.400 283.600 C 287.950 284.117,288.400 284.750,288.400 285.008 C 288.400 285.265,288.760 285.802,289.200 286.200 C 289.640 286.598,290.000 287.067,290.000 287.243 C 290.000 287.418,290.630 288.173,291.400 288.921 C 292.170 289.669,292.800 290.460,292.800 290.678 C 292.800 290.897,293.160 291.402,293.600 291.800 C 294.040 292.198,294.400 292.723,294.400 292.967 C 294.400 293.211,294.850 293.748,295.400 294.161 C 295.950 294.574,296.400 295.123,296.400 295.381 C 296.400 295.639,296.940 296.368,297.600 297.000 C 298.260 297.632,298.800 298.320,298.800 298.529 C 298.800 298.738,299.250 299.325,299.800 299.835 C 300.350 300.345,300.800 300.919,300.800 301.111 C 300.800 301.303,301.250 301.883,301.800 302.400 C 302.350 302.917,302.800 303.584,302.800 303.882 C 302.800 304.181,303.063 304.526,303.385 304.650 C 303.706 304.773,304.086 305.240,304.228 305.687 C 304.369 306.134,305.096 307.036,305.843 307.691 C 306.589 308.347,307.200 309.106,307.200 309.379 C 307.200 309.653,307.560 310.202,308.000 310.600 C 308.440 310.998,308.800 311.485,308.800 311.681 C 308.800 311.878,309.250 312.455,309.800 312.965 C 310.350 313.475,310.800 314.027,310.800 314.193 C 310.800 314.497,312.394 316.498,314.212 318.474 C 314.755 319.065,315.205 319.695,315.212 319.874 C 315.259 321.174,317.635 322.796,318.583 322.175 C 320.230 321.095,328.400 311.436,328.400 310.568 C 328.400 310.445,328.980 309.502,329.689 308.472 C 341.639 291.122,341.563 262.577,329.516 243.283 C 324.891 235.876,312.490 223.200,309.869 223.200 C 309.741 223.200,308.953 222.735,308.118 222.166 C 299.958 216.604,285.553 213.029,273.200 213.499 M231.610 231.891 C 201.361 262.461,210.145 313.877,248.800 332.515 C 255.066 335.536,258.498 336.582,266.800 338.000 C 276.430 339.644,290.020 338.299,297.460 334.965 C 298.154 334.654,298.891 334.400,299.099 334.400 C 299.504 334.400,305.799 331.451,306.800 330.793 C 307.130 330.576,307.760 330.230,308.200 330.025 C 308.640 329.820,309.540 329.205,310.200 328.659 L 311.400 327.666 310.300 326.511 C 309.695 325.876,309.192 325.186,309.183 324.978 C 309.174 324.770,308.634 324.158,307.983 323.619 C 307.332 323.079,306.800 322.435,306.800 322.188 C 306.800 321.942,306.350 321.317,305.800 320.800 C 305.250 320.283,304.800 319.658,304.800 319.412 C 304.800 319.165,304.268 318.521,303.617 317.981 C 302.966 317.442,302.426 316.806,302.417 316.570 C 302.408 316.333,301.950 315.717,301.400 315.200 C 300.850 314.683,300.400 314.091,300.400 313.883 C 300.400 313.513,298.941 311.650,296.988 309.526 C 296.445 308.935,296.000 308.287,296.000 308.088 C 296.000 307.888,295.640 307.398,295.200 307.000 C 294.760 306.602,294.400 306.112,294.400 305.911 C 294.400 305.710,293.770 304.952,293.000 304.226 C 292.230 303.500,291.600 302.730,291.600 302.515 C 291.600 302.300,291.240 301.798,290.800 301.400 C 290.360 301.002,290.000 300.500,290.000 300.285 C 290.000 300.070,289.370 299.300,288.600 298.574 C 287.830 297.848,287.200 297.090,287.200 296.889 C 287.200 296.688,286.840 296.198,286.400 295.800 C 285.960 295.402,285.600 294.847,285.600 294.567 C 285.600 294.287,285.183 293.730,284.674 293.329 C 284.165 292.928,283.404 292.060,282.984 291.400 C 282.563 290.740,281.990 290.056,281.710 289.880 C 281.429 289.704,281.200 289.364,281.200 289.125 C 281.200 288.755,279.863 287.091,277.378 284.366 C 277.060 284.018,276.800 283.557,276.800 283.341 C 276.800 283.126,276.260 282.432,275.600 281.800 C 274.940 281.168,274.400 280.480,274.400 280.271 C 274.400 280.062,273.950 279.475,273.400 278.965 C 272.850 278.455,272.400 277.883,272.400 277.694 C 272.400 277.505,271.860 276.832,271.200 276.200 C 270.540 275.568,270.000 274.880,270.000 274.671 C 270.000 274.462,269.550 273.875,269.000 273.365 C 268.450 272.855,268.000 272.293,268.000 272.115 C 268.000 271.937,267.550 271.307,267.000 270.713 C 266.450 270.120,266.000 269.514,266.000 269.366 C 266.000 269.218,265.415 268.432,264.700 267.620 C 262.333 264.931,261.600 263.997,261.600 263.672 C 261.600 263.495,261.060 262.832,260.400 262.200 C 259.740 261.568,259.200 260.895,259.200 260.706 C 259.200 260.517,258.750 259.945,258.200 259.435 C 257.650 258.925,257.200 258.338,257.200 258.129 C 257.200 257.920,256.660 257.232,256.000 256.600 C 255.340 255.968,254.800 255.284,254.800 255.082 C 254.800 254.879,254.455 254.327,254.034 253.856 C 251.381 250.890,250.400 249.652,250.400 249.271 C 250.400 249.034,250.175 248.696,249.900 248.520 C 249.625 248.344,248.777 247.390,248.015 246.400 C 247.253 245.410,246.488 244.540,246.315 244.467 C 246.142 244.393,246.000 244.106,246.000 243.829 C 246.000 243.551,245.640 242.998,245.200 242.600 C 244.760 242.202,244.400 241.712,244.400 241.511 C 244.400 241.310,243.770 240.552,243.000 239.826 C 242.230 239.100,241.600 238.330,241.600 238.115 C 241.600 237.900,241.240 237.398,240.800 237.000 C 240.360 236.602,240.000 236.077,240.000 235.833 C 240.000 235.589,239.550 235.052,239.000 234.639 C 238.450 234.226,238.000 233.677,238.000 233.419 C 238.000 233.161,237.460 232.432,236.800 231.800 C 236.140 231.168,235.600 230.433,235.600 230.168 C 235.600 228.692,234.160 229.314,231.610 231.891 M61.336 261.600 L 61.440 280.600 62.544 283.800 C 65.098 291.204,70.363 297.703,78.873 303.954 C 81.004 305.519,82.880 306.800,83.042 306.800 C 83.204 306.800,83.621 307.046,83.969 307.346 C 84.889 308.143,93.451 312.595,95.975 313.590 C 97.890 314.345,100.122 315.292,102.600 316.402 C 104.264 317.147,114.185 320.226,118.800 321.429 C 145.301 328.339,180.476 329.793,208.300 325.127 C 211.046 324.667,211.884 324.070,210.760 323.375 C 206.969 321.032,198.520 301.529,196.580 290.642 C 195.895 286.801,196.600 287.214,191.396 287.601 C 173.530 288.930,153.057 288.231,139.000 285.811 C 137.240 285.508,134.900 285.150,133.800 285.015 C 109.205 281.999,77.114 267.205,68.177 254.762 C 67.530 253.861,66.539 252.555,65.975 251.862 C 65.055 250.729,63.614 247.983,61.851 244.000 C 61.282 242.715,61.239 244.158,61.336 261.600 " stroke="none" fill="#fedc85" data-info="coloreimmagine" fill-rule="evenodd"></path><path id="path2" d="M169.900 61.097 C 171.495 61.173,174.105 61.173,175.700 61.097 C 177.295 61.021,175.990 60.959,172.800 60.959 C 169.610 60.959,168.305 61.021,169.900 61.097 M152.100 61.876 C 152.485 61.976,153.115 61.976,153.500 61.876 C 153.885 61.775,153.570 61.693,152.800 61.693 C 152.030 61.693,151.715 61.775,152.100 61.876 M192.100 61.876 C 192.485 61.976,193.115 61.976,193.500 61.876 C 193.885 61.775,193.570 61.693,192.800 61.693 C 192.030 61.693,191.715 61.775,192.100 61.876 M272.800 89.725 C 272.800 89.794,273.385 90.379,274.100 91.025 L 275.400 92.200 274.225 90.900 C 273.130 89.688,272.800 89.416,272.800 89.725 M60.928 113.200 C 60.928 114.630,61.001 115.215,61.089 114.500 C 61.178 113.785,61.178 112.615,61.089 111.900 C 61.001 111.185,60.928 111.770,60.928 113.200 M68.800 132.510 C 68.800 132.571,70.195 133.966,71.900 135.610 L 75.000 138.600 72.010 135.500 C 69.233 132.621,68.800 132.217,68.800 132.510 M189.300 164.676 C 189.685 164.776,190.315 164.776,190.700 164.676 C 191.085 164.575,190.770 164.493,190.000 164.493 C 189.230 164.493,188.915 164.575,189.300 164.676 M162.100 165.094 C 163.145 165.176,164.855 165.176,165.900 165.094 C 166.945 165.012,166.090 164.944,164.000 164.944 C 161.910 164.944,161.055 165.012,162.100 165.094 M180.112 165.095 C 181.164 165.177,182.784 165.176,183.712 165.092 C 184.640 165.008,183.780 164.941,181.800 164.942 C 179.820 164.943,179.060 165.012,180.112 165.095 M60.893 168.400 C 60.893 169.170,60.975 169.485,61.076 169.100 C 61.176 168.715,61.176 168.085,61.076 167.700 C 60.975 167.315,60.893 167.630,60.893 168.400 M152.500 178.676 C 152.885 178.776,153.515 178.776,153.900 178.676 C 154.285 178.575,153.970 178.493,153.200 178.493 C 152.430 178.493,152.115 178.575,152.500 178.676 M170.700 179.495 C 171.855 179.576,173.745 179.576,174.900 179.495 C 176.055 179.414,175.110 179.348,172.800 179.348 C 170.490 179.348,169.545 179.414,170.700 179.495 M275.978 187.500 L 274.600 189.000 276.100 187.622 C 277.496 186.338,277.784 186.000,277.478 186.000 C 277.412 186.000,276.737 186.675,275.978 187.500 M70.783 188.900 C 71.764 189.945,72.619 190.800,72.683 190.800 C 72.984 190.800,72.666 190.441,70.900 188.783 L 69.000 187.000 70.783 188.900 M272.175 191.300 L 271.000 192.600 272.300 191.425 C 273.015 190.779,273.600 190.194,273.600 190.125 C 273.600 189.816,273.270 190.088,272.175 191.300 M282.705 195.883 C 283.202 195.979,283.922 195.975,284.305 195.875 C 284.687 195.775,284.280 195.696,283.400 195.701 C 282.520 195.705,282.207 195.787,282.705 195.883 M162.912 219.495 C 163.964 219.577,165.584 219.576,166.512 219.492 C 167.440 219.408,166.580 219.341,164.600 219.342 C 162.620 219.343,161.860 219.412,162.912 219.495 M178.100 219.491 C 178.925 219.578,180.275 219.578,181.100 219.491 C 181.925 219.405,181.250 219.334,179.600 219.334 C 177.950 219.334,177.275 219.405,178.100 219.491 M60.893 222.800 C 60.893 223.570,60.975 223.885,61.076 223.500 C 61.176 223.115,61.176 222.485,61.076 222.100 C 60.975 221.715,60.893 222.030,60.893 222.800 M235.600 230.525 C 235.600 230.594,236.185 231.179,236.900 231.825 L 238.200 233.000 237.025 231.700 C 235.930 230.488,235.600 230.216,235.600 230.525 M229.375 233.700 L 228.200 235.000 229.500 233.825 C 230.215 233.179,230.800 232.594,230.800 232.525 C 230.800 232.216,230.470 232.488,229.375 233.700 M161.500 233.482 C 161.995 233.578,162.805 233.578,163.300 233.482 C 163.795 233.387,163.390 233.309,162.400 233.309 C 161.410 233.309,161.005 233.387,161.500 233.482 M172.105 233.887 C 172.714 233.979,173.614 233.977,174.105 233.882 C 174.597 233.787,174.100 233.711,173.000 233.714 C 171.900 233.717,171.497 233.795,172.105 233.887 M72.200 258.800 C 73.283 259.900,74.260 260.800,74.370 260.800 C 74.480 260.800,73.683 259.900,72.600 258.800 C 71.517 257.700,70.540 256.800,70.430 256.800 C 70.320 256.800,71.117 257.700,72.200 258.800 M338.901 274.600 C 338.905 275.480,338.987 275.793,339.083 275.295 C 339.179 274.798,339.175 274.078,339.075 273.695 C 338.975 273.313,338.896 273.720,338.901 274.600 M168.500 273.898 C 170.865 273.969,174.735 273.969,177.100 273.898 C 179.465 273.828,177.530 273.770,172.800 273.770 C 168.070 273.770,166.135 273.828,168.500 273.898 M270.000 274.925 C 270.000 274.994,270.585 275.579,271.300 276.225 L 272.600 277.400 271.425 276.100 C 270.330 274.888,270.000 274.616,270.000 274.925 M60.893 277.200 C 60.893 277.970,60.975 278.285,61.076 277.900 C 61.176 277.515,61.176 276.885,61.076 276.500 C 60.975 276.115,60.893 276.430,60.893 277.200 M338.893 277.600 C 338.893 278.370,338.975 278.685,339.076 278.300 C 339.176 277.915,339.176 277.285,339.076 276.900 C 338.975 276.515,338.893 276.830,338.893 277.600 M282.000 277.325 C 282.000 277.394,282.585 277.979,283.300 278.625 L 284.600 279.800 283.425 278.500 C 282.330 277.288,282.000 277.016,282.000 277.325 M155.300 287.476 C 155.685 287.576,156.315 287.576,156.700 287.476 C 157.085 287.375,156.770 287.293,156.000 287.293 C 155.230 287.293,154.915 287.375,155.300 287.476 M188.900 287.476 C 189.285 287.576,189.915 287.576,190.300 287.476 C 190.685 287.375,190.370 287.293,189.600 287.293 C 188.830 287.293,188.515 287.375,188.900 287.476 M163.511 287.893 C 164.451 287.978,165.891 287.977,166.711 287.891 C 167.530 287.805,166.760 287.736,165.000 287.737 C 163.240 287.739,162.570 287.809,163.511 287.893 M178.500 287.891 C 179.325 287.978,180.675 287.978,181.500 287.891 C 182.325 287.805,181.650 287.734,180.000 287.734 C 178.350 287.734,177.675 287.805,178.500 287.891 M316.034 321.447 C 316.565 322.133,317.080 322.623,317.179 322.535 C 317.277 322.447,316.843 321.886,316.213 321.288 L 315.069 320.200 316.034 321.447 M151.905 327.483 C 152.402 327.579,153.122 327.575,153.505 327.475 C 153.887 327.375,153.480 327.296,152.600 327.301 C 151.720 327.305,151.407 327.387,151.905 327.483 M170.517 328.297 C 172.011 328.374,174.351 328.374,175.717 328.296 C 177.082 328.218,175.860 328.155,173.000 328.155 C 170.140 328.156,169.022 328.220,170.517 328.297 M273.300 339.076 C 273.685 339.176,274.315 339.176,274.700 339.076 C 275.085 338.975,274.770 338.893,274.000 338.893 C 273.230 338.893,272.915 338.975,273.300 339.076 M277.300 339.076 C 277.685 339.176,278.315 339.176,278.700 339.076 C 279.085 338.975,278.770 338.893,278.000 338.893 C 277.230 338.893,276.915 338.975,277.300 339.076 " stroke="none" fill="#fedc85" fill-rule="evenodd"></path><path id="path3" d="M160.291 61.489 C 161.001 61.577,162.261 61.579,163.091 61.492 C 163.921 61.405,163.340 61.333,161.800 61.331 C 160.260 61.329,159.581 61.400,160.291 61.489 M182.291 61.489 C 183.001 61.577,184.261 61.579,185.091 61.492 C 185.921 61.405,185.340 61.333,183.800 61.331 C 182.260 61.329,181.581 61.400,182.291 61.489 M154.900 61.887 C 155.505 61.978,156.495 61.978,157.100 61.887 C 157.705 61.795,157.210 61.720,156.000 61.720 C 154.790 61.720,154.295 61.795,154.900 61.887 M188.500 61.887 C 189.105 61.978,190.095 61.978,190.700 61.887 C 191.305 61.795,190.810 61.720,189.600 61.720 C 188.390 61.720,187.895 61.795,188.500 61.887 M148.905 62.287 C 149.514 62.379,150.414 62.377,150.905 62.282 C 151.397 62.187,150.900 62.111,149.800 62.114 C 148.700 62.117,148.297 62.195,148.905 62.287 M194.905 62.287 C 195.514 62.379,196.414 62.377,196.905 62.282 C 197.397 62.187,196.900 62.111,195.800 62.114 C 194.700 62.117,194.297 62.195,194.905 62.287 M137.800 63.610 C 137.266 63.847,137.598 63.886,138.800 63.727 C 139.790 63.596,140.675 63.424,140.767 63.344 C 141.114 63.043,138.564 63.272,137.800 63.610 M205.300 63.476 C 205.685 63.576,206.315 63.576,206.700 63.476 C 207.085 63.375,206.770 63.293,206.000 63.293 C 205.230 63.293,204.915 63.375,205.300 63.476 M125.200 66.000 C 124.396 66.257,124.357 66.323,125.000 66.332 C 125.440 66.338,126.160 66.189,126.600 66.000 C 127.619 65.562,126.568 65.562,125.200 66.000 M226.200 67.539 C 227.437 68.068,229.510 68.477,228.800 68.051 C 228.470 67.854,227.570 67.580,226.800 67.444 C 225.856 67.277,225.660 67.308,226.200 67.539 M116.800 68.018 C 116.362 68.315,116.524 68.352,117.400 68.156 C 118.871 67.827,119.190 67.598,118.167 67.606 C 117.745 67.609,117.130 67.795,116.800 68.018 M76.600 86.635 L 75.400 87.666 76.700 86.806 C 77.415 86.333,78.000 85.868,78.000 85.773 C 78.000 85.473,77.831 85.578,76.600 86.635 M270.400 87.725 C 270.400 87.794,270.985 88.379,271.700 89.025 L 273.000 90.200 271.825 88.900 C 270.730 87.688,270.400 87.416,270.400 87.725 M71.389 91.300 L 68.600 94.200 71.500 91.411 C 74.194 88.820,74.583 88.400,74.289 88.400 C 74.228 88.400,72.923 89.705,71.389 91.300 M284.528 113.200 C 284.528 114.630,284.601 115.215,284.689 114.500 C 284.778 113.785,284.778 112.615,284.689 111.900 C 284.601 111.185,284.528 111.770,284.528 113.200 M274.213 134.743 L 272.226 137.000 274.513 134.814 C 275.771 133.611,276.800 132.576,276.800 132.514 C 276.800 132.048,275.911 132.815,274.213 134.743 M284.037 133.665 C 283.795 134.361,283.687 135.021,283.798 135.132 C 283.909 135.243,284.042 135.078,284.094 134.767 C 284.145 134.455,284.283 142.030,284.400 151.600 L 284.613 169.000 284.706 150.700 C 284.758 140.635,284.728 132.400,284.639 132.400 C 284.551 132.400,284.280 132.969,284.037 133.665 M60.893 150.100 L 60.987 167.400 61.193 150.800 C 61.314 141.087,61.540 134.586,61.737 135.130 C 61.922 135.642,62.157 135.976,62.260 135.873 C 62.484 135.649,61.335 132.800,61.020 132.800 C 60.899 132.800,60.842 140.585,60.893 150.100 M279.052 143.700 C 278.175 144.890,277.915 145.420,278.452 144.924 C 279.297 144.143,281.035 141.599,280.723 141.600 C 280.655 141.601,279.903 142.546,279.052 143.700 M71.400 149.539 C 72.940 151.145,74.740 152.835,75.400 153.295 C 76.060 153.754,76.420 153.958,76.200 153.748 C 75.980 153.538,74.180 151.848,72.200 149.992 L 68.600 146.618 71.400 149.539 M95.200 150.600 C 95.750 150.914,96.380 151.172,96.600 151.172 C 96.820 151.172,96.550 150.914,96.000 150.600 C 95.450 150.286,94.820 150.028,94.600 150.028 C 94.380 150.028,94.650 150.286,95.200 150.600 M271.375 152.100 L 270.200 153.400 271.500 152.225 C 272.215 151.579,272.800 150.994,272.800 150.925 C 272.800 150.616,272.470 150.888,271.375 152.100 M104.200 154.214 C 104.860 154.517,105.670 154.758,106.000 154.752 C 106.330 154.745,105.970 154.497,105.200 154.200 C 103.374 153.497,102.655 153.507,104.200 154.214 M122.400 159.600 C 123.768 160.038,124.819 160.038,123.800 159.600 C 123.360 159.411,122.640 159.262,122.200 159.268 C 121.557 159.277,121.596 159.343,122.400 159.600 M87.200 160.984 C 87.200 161.094,87.920 161.551,88.800 162.000 C 89.680 162.449,90.400 162.726,90.400 162.616 C 90.400 162.506,89.680 162.049,88.800 161.600 C 87.920 161.151,87.200 160.874,87.200 160.984 M140.700 163.082 C 141.195 163.178,142.005 163.178,142.500 163.082 C 142.995 162.987,142.590 162.909,141.600 162.909 C 140.610 162.909,140.205 162.987,140.700 163.082 M203.505 163.083 C 204.002 163.179,204.722 163.175,205.105 163.075 C 205.487 162.975,205.080 162.896,204.200 162.901 C 203.320 162.905,203.007 162.987,203.505 163.083 M144.305 163.483 C 144.802 163.579,145.522 163.575,145.905 163.475 C 146.287 163.375,145.880 163.296,145.000 163.301 C 144.120 163.305,143.807 163.387,144.305 163.483 M199.905 163.483 C 200.402 163.579,201.122 163.575,201.505 163.475 C 201.887 163.375,201.480 163.296,200.600 163.301 C 199.720 163.305,199.407 163.387,199.905 163.483 M148.100 163.876 C 148.485 163.976,149.115 163.976,149.500 163.876 C 149.885 163.775,149.570 163.693,148.800 163.693 C 148.030 163.693,147.715 163.775,148.100 163.876 M196.100 163.876 C 196.485 163.976,197.115 163.976,197.500 163.876 C 197.885 163.775,197.570 163.693,196.800 163.693 C 196.030 163.693,195.715 163.775,196.100 163.876 M151.505 164.283 C 152.002 164.379,152.722 164.375,153.105 164.275 C 153.487 164.175,153.080 164.096,152.200 164.101 C 151.320 164.105,151.007 164.187,151.505 164.283 M192.700 164.282 C 193.195 164.378,194.005 164.378,194.500 164.282 C 194.995 164.187,194.590 164.109,193.600 164.109 C 192.610 164.109,192.205 164.187,192.700 164.282 M157.705 164.687 C 158.314 164.779,159.214 164.777,159.705 164.682 C 160.197 164.587,159.700 164.511,158.600 164.514 C 157.500 164.517,157.097 164.595,157.705 164.687 M186.105 164.687 C 186.714 164.779,187.614 164.777,188.105 164.682 C 188.597 164.587,188.100 164.511,187.000 164.514 C 185.900 164.517,185.497 164.595,186.105 164.687 M170.082 165.096 C 171.558 165.173,174.078 165.173,175.682 165.097 C 177.287 165.021,176.080 164.958,173.000 164.958 C 169.920 164.957,168.607 165.019,170.082 165.096 M96.800 165.800 C 97.350 166.114,97.980 166.372,98.200 166.372 C 98.420 166.372,98.150 166.114,97.600 165.800 C 97.050 165.486,96.420 165.228,96.200 165.228 C 95.980 165.228,96.250 165.486,96.800 165.800 M245.400 167.014 C 244.395 167.498,244.363 167.553,245.200 167.351 C 245.750 167.219,246.371 166.950,246.580 166.755 C 247.098 166.271,246.814 166.333,245.400 167.014 M233.000 171.200 C 232.496 171.417,232.422 171.544,232.800 171.544 C 233.130 171.544,233.760 171.389,234.200 171.200 C 234.704 170.983,234.778 170.856,234.400 170.856 C 234.070 170.856,233.440 171.011,233.000 171.200 M150.100 178.676 C 150.485 178.776,151.115 178.776,151.500 178.676 C 151.885 178.575,151.570 178.493,150.800 178.493 C 150.030 178.493,149.715 178.575,150.100 178.676 M194.305 178.683 C 194.802 178.779,195.522 178.775,195.905 178.675 C 196.287 178.575,195.880 178.496,195.000 178.501 C 194.120 178.505,193.807 178.587,194.305 178.683 M156.105 179.087 C 156.714 179.179,157.614 179.177,158.105 179.082 C 158.597 178.987,158.100 178.911,157.000 178.914 C 155.900 178.917,155.497 178.995,156.105 179.087 M187.705 179.087 C 188.314 179.179,189.214 179.177,189.705 179.082 C 190.197 178.987,189.700 178.911,188.600 178.914 C 187.500 178.917,187.097 178.995,187.705 179.087 M161.916 179.497 C 163.299 179.575,165.459 179.574,166.716 179.495 C 167.972 179.416,166.840 179.352,164.200 179.353 C 161.560 179.353,160.532 179.418,161.916 179.497 M179.100 179.496 C 180.475 179.574,182.725 179.574,184.100 179.496 C 185.475 179.418,184.350 179.354,181.600 179.354 C 178.850 179.354,177.725 179.418,179.100 179.496 M66.791 183.988 C 67.257 184.641,67.842 185.302,68.091 185.456 C 68.341 185.611,68.041 185.076,67.425 184.268 C 66.088 182.515,65.584 182.292,66.791 183.988 M284.326 187.100 C 284.234 187.485,284.273 189.600,284.413 191.800 L 284.668 195.800 284.734 191.100 C 284.797 186.605,284.692 185.571,284.326 187.100 M60.895 204.233 L 60.991 221.800 61.100 205.230 C 61.198 190.318,61.270 188.736,61.817 189.430 C 62.348 190.102,62.346 190.000,61.800 188.621 C 61.456 187.752,61.090 186.957,60.987 186.854 C 60.884 186.751,60.843 194.572,60.895 204.233 M72.400 190.200 C 73.595 191.410,74.663 192.400,74.773 192.400 C 74.883 192.400,73.995 191.410,72.800 190.200 C 71.605 188.990,70.537 188.000,70.427 188.000 C 70.317 188.000,71.205 188.990,72.400 190.200 M77.600 194.525 C 77.600 194.624,78.261 195.209,79.068 195.825 C 79.876 196.441,80.411 196.741,80.256 196.491 C 79.940 195.979,77.600 194.247,77.600 194.525 M281.068 194.966 C 280.882 195.453,281.078 195.593,281.913 195.568 C 282.552 195.550,282.753 195.443,282.400 195.308 C 282.070 195.183,281.690 194.912,281.556 194.706 C 281.421 194.501,281.202 194.618,281.068 194.966 M86.800 200.584 C 86.800 200.694,87.520 201.151,88.400 201.600 C 89.280 202.049,90.000 202.326,90.000 202.216 C 90.000 202.106,89.280 201.649,88.400 201.200 C 87.520 200.751,86.800 200.474,86.800 200.584 M68.400 200.910 C 68.400 200.971,69.795 202.366,71.500 204.010 L 74.600 207.000 71.610 203.900 C 68.833 201.021,68.400 200.617,68.400 200.910 M236.297 205.566 C 234.698 206.591,234.403 207.006,235.800 206.266 C 237.476 205.377,238.271 204.808,237.800 204.835 C 237.580 204.848,236.904 205.177,236.297 205.566 M229.093 210.214 C 228.272 210.772,227.600 211.315,227.600 211.420 C 227.600 211.525,228.320 211.135,229.200 210.553 C 230.597 209.628,231.070 209.200,230.693 209.200 C 230.634 209.200,229.914 209.656,229.093 210.214 M270.700 213.493 C 271.635 213.577,273.165 213.577,274.100 213.493 C 275.035 213.409,274.270 213.340,272.400 213.340 C 270.530 213.340,269.765 213.409,270.700 213.493 M276.200 213.401 C 276.420 213.477,278.490 213.612,280.800 213.701 C 283.110 213.790,284.550 213.732,284.000 213.571 C 283.033 213.289,275.392 213.123,276.200 213.401 M122.800 213.994 C 123.130 214.211,123.835 214.391,124.367 214.394 C 125.651 214.402,125.325 214.175,123.600 213.858 C 122.615 213.677,122.378 213.718,122.800 213.994 M90.400 216.979 C 90.400 217.089,90.940 217.459,91.600 217.800 C 92.260 218.141,92.800 218.331,92.800 218.221 C 92.800 218.111,92.260 217.741,91.600 217.400 C 90.940 217.059,90.400 216.869,90.400 216.979 M141.300 217.476 C 141.685 217.576,142.315 217.576,142.700 217.476 C 143.085 217.375,142.770 217.293,142.000 217.293 C 141.230 217.293,140.915 217.375,141.300 217.476 M194.900 218.276 C 195.285 218.376,195.915 218.376,196.300 218.276 C 196.685 218.175,196.370 218.093,195.600 218.093 C 194.830 218.093,194.515 218.175,194.900 218.276 M93.200 218.534 C 93.200 218.637,93.781 218.924,94.491 219.172 C 95.201 219.419,95.606 219.457,95.391 219.256 C 94.935 218.829,93.200 218.258,93.200 218.534 M152.307 218.690 C 153.026 218.779,154.106 218.777,154.707 218.686 C 155.308 218.595,154.720 218.522,153.400 218.524 C 152.080 218.526,151.588 218.601,152.307 218.690 M190.905 218.687 C 191.514 218.779,192.414 218.777,192.905 218.682 C 193.397 218.587,192.900 218.511,191.800 218.514 C 190.700 218.517,190.297 218.595,190.905 218.687 M157.700 219.076 C 158.085 219.176,158.715 219.176,159.100 219.076 C 159.485 218.975,159.170 218.893,158.400 218.893 C 157.630 218.893,157.315 218.975,157.700 219.076 M170.100 219.496 C 171.365 219.575,173.435 219.575,174.700 219.496 C 175.965 219.416,174.930 219.351,172.400 219.351 C 169.870 219.351,168.835 219.416,170.100 219.496 M317.600 228.910 C 317.600 228.971,318.995 230.366,320.700 232.010 L 323.800 235.000 320.810 231.900 C 318.033 229.021,317.600 228.617,317.600 228.910 M140.500 231.876 C 140.885 231.976,141.515 231.976,141.900 231.876 C 142.285 231.775,141.970 231.693,141.200 231.693 C 140.430 231.693,140.115 231.775,140.500 231.876 M145.600 232.420 C 148.014 232.850,149.906 232.813,147.800 232.377 C 146.920 232.195,145.660 232.058,145.000 232.073 C 144.100 232.093,144.250 232.180,145.600 232.420 M199.505 232.283 C 200.002 232.379,200.722 232.375,201.105 232.275 C 201.487 232.175,201.080 232.096,200.200 232.101 C 199.320 232.105,199.007 232.187,199.505 232.283 M196.500 232.676 C 196.885 232.776,197.515 232.776,197.900 232.676 C 198.285 232.575,197.970 232.493,197.200 232.493 C 196.430 232.493,196.115 232.575,196.500 232.676 M151.700 233.076 C 152.085 233.176,152.715 233.176,153.100 233.076 C 153.485 232.975,153.170 232.893,152.400 232.893 C 151.630 232.893,151.315 232.975,151.700 233.076 M158.900 233.476 C 159.285 233.576,159.915 233.576,160.300 233.476 C 160.685 233.375,160.370 233.293,159.600 233.293 C 158.830 233.293,158.515 233.375,158.900 233.476 M185.105 233.483 C 185.602 233.579,186.322 233.575,186.705 233.475 C 187.087 233.375,186.680 233.296,185.800 233.301 C 184.920 233.305,184.607 233.387,185.105 233.483 M163.900 233.896 C 165.275 233.974,167.525 233.974,168.900 233.896 C 170.275 233.818,169.150 233.754,166.400 233.754 C 163.650 233.754,162.525 233.818,163.900 233.896 M176.900 233.896 C 178.165 233.975,180.235 233.975,181.500 233.896 C 182.765 233.816,181.730 233.751,179.200 233.751 C 176.670 233.751,175.635 233.816,176.900 233.896 M227.751 235.700 C 226.570 237.048,225.880 238.000,226.084 238.000 C 226.184 238.000,226.845 237.280,227.552 236.400 C 228.925 234.692,229.064 234.201,227.751 235.700 M68.800 240.910 C 68.800 240.971,70.195 242.366,71.900 244.010 L 75.000 247.000 72.010 243.900 C 69.233 241.021,68.800 240.617,68.800 240.910 M60.909 258.600 L 60.987 276.200 61.200 259.400 C 61.317 250.160,61.455 242.855,61.507 243.167 C 61.558 243.478,61.704 243.629,61.831 243.502 C 61.959 243.375,61.786 242.760,61.447 242.135 C 60.887 241.101,60.839 242.563,60.909 258.600 M201.665 244.217 C 200.995 245.688,201.123 246.002,201.847 244.665 C 202.186 244.040,202.388 243.454,202.296 243.363 C 202.205 243.271,201.921 243.656,201.665 244.217 M75.600 247.346 C 75.600 247.456,76.140 247.930,76.800 248.400 C 77.460 248.870,78.000 249.164,78.000 249.054 C 78.000 248.944,77.460 248.470,76.800 248.000 C 76.140 247.530,75.600 247.236,75.600 247.346 M332.436 248.600 C 332.436 248.820,332.870 249.810,333.400 250.800 C 333.930 251.790,334.364 252.420,334.364 252.200 C 334.364 251.980,333.930 250.990,333.400 250.000 C 332.870 249.010,332.436 248.380,332.436 248.600 M82.200 252.207 C 82.640 252.566,83.360 253.035,83.800 253.251 L 84.600 253.644 83.800 252.993 C 83.360 252.634,82.640 252.165,82.200 251.949 L 81.400 251.556 82.200 252.207 M70.200 257.200 C 71.059 258.080,71.852 258.800,71.962 258.800 C 72.072 258.800,71.459 258.080,70.600 257.200 C 69.741 256.320,68.948 255.600,68.838 255.600 C 68.728 255.600,69.341 256.320,70.200 257.200 M90.800 256.997 C 90.800 257.268,94.049 258.884,94.230 258.703 C 94.314 258.619,93.576 258.159,92.591 257.681 C 91.606 257.202,90.800 256.894,90.800 256.997 M197.000 258.800 C 196.848 259.491,196.807 260.141,196.909 260.242 C 197.011 260.344,197.209 259.853,197.350 259.150 C 197.683 257.483,197.360 257.160,197.000 258.800 M196.493 262.400 C 196.493 263.170,196.575 263.485,196.676 263.100 C 196.776 262.715,196.776 262.085,196.676 261.700 C 196.575 261.315,196.493 261.630,196.493 262.400 M337.462 263.400 C 337.596 264.280,337.772 265.075,337.853 265.167 C 338.156 265.510,337.929 263.368,337.581 262.600 C 337.329 262.042,337.293 262.285,337.462 263.400 M78.198 263.937 C 78.634 264.452,79.353 265.059,79.796 265.286 C 80.645 265.721,80.521 265.587,78.603 263.994 C 77.448 263.035,77.434 263.033,78.198 263.937 M195.693 268.000 C 195.693 268.770,195.775 269.085,195.876 268.700 C 195.976 268.315,195.976 267.685,195.876 267.300 C 195.775 266.915,195.693 267.230,195.693 268.000 M213.340 272.400 C 213.340 274.270,213.409 275.035,213.493 274.100 C 213.577 273.165,213.577 271.635,213.493 270.700 C 213.409 269.765,213.340 270.530,213.340 272.400 M136.500 271.076 C 136.885 271.176,137.515 271.176,137.900 271.076 C 138.285 270.975,137.970 270.893,137.200 270.893 C 136.430 270.893,136.115 270.975,136.500 271.076 M145.300 272.276 C 145.685 272.376,146.315 272.376,146.700 272.276 C 147.085 272.175,146.770 272.093,146.000 272.093 C 145.230 272.093,144.915 272.175,145.300 272.276 M149.500 272.682 C 149.995 272.778,150.805 272.778,151.300 272.682 C 151.795 272.587,151.390 272.509,150.400 272.509 C 149.410 272.509,149.005 272.587,149.500 272.682 M153.105 273.083 C 153.602 273.179,154.322 273.175,154.705 273.075 C 155.087 272.975,154.680 272.896,153.800 272.901 C 152.920 272.905,152.607 272.987,153.105 273.083 M190.900 273.076 C 191.285 273.176,191.915 273.176,192.300 273.076 C 192.685 272.975,192.370 272.893,191.600 272.893 C 190.830 272.893,190.515 272.975,190.900 273.076 M159.705 273.487 C 160.314 273.579,161.214 273.577,161.705 273.482 C 162.197 273.387,161.700 273.311,160.600 273.314 C 159.500 273.317,159.097 273.395,159.705 273.487 M183.700 273.487 C 184.305 273.578,185.295 273.578,185.900 273.487 C 186.505 273.395,186.010 273.320,184.800 273.320 C 183.590 273.320,183.095 273.395,183.700 273.487 M213.340 280.000 C 213.340 281.870,213.409 282.635,213.493 281.700 C 213.577 280.765,213.577 279.235,213.493 278.300 C 213.409 277.365,213.340 278.130,213.340 280.000 M122.400 282.800 C 122.950 282.976,123.760 283.120,124.200 283.120 C 124.833 283.120,124.792 283.054,124.000 282.800 C 123.450 282.624,122.640 282.480,122.200 282.480 C 121.567 282.480,121.608 282.546,122.400 282.800 M126.400 283.600 C 127.768 284.038,128.819 284.038,127.800 283.600 C 127.360 283.411,126.640 283.262,126.200 283.268 C 125.557 283.277,125.596 283.343,126.400 283.600 M131.300 284.676 C 131.685 284.776,132.315 284.776,132.700 284.676 C 133.085 284.575,132.770 284.493,132.000 284.493 C 131.230 284.493,130.915 284.575,131.300 284.676 M151.700 287.487 C 152.305 287.578,153.295 287.578,153.900 287.487 C 154.505 287.395,154.010 287.320,152.800 287.320 C 151.590 287.320,151.095 287.395,151.700 287.487 M191.705 287.487 C 192.314 287.579,193.214 287.577,193.705 287.482 C 194.197 287.387,193.700 287.311,192.600 287.314 C 191.500 287.317,191.097 287.395,191.705 287.487 M158.300 287.889 C 159.015 287.978,160.185 287.978,160.900 287.889 C 161.615 287.801,161.030 287.728,159.600 287.728 C 158.170 287.728,157.585 287.801,158.300 287.889 M184.100 287.891 C 184.925 287.978,186.275 287.978,187.100 287.891 C 187.925 287.805,187.250 287.734,185.600 287.734 C 183.950 287.734,183.275 287.805,184.100 287.891 M168.880 288.298 C 170.794 288.371,174.034 288.371,176.080 288.298 C 178.126 288.226,176.560 288.166,172.600 288.165 C 168.640 288.165,166.966 288.224,168.880 288.298 M71.200 297.800 C 72.617 299.230,73.867 300.400,73.977 300.400 C 74.087 300.400,73.017 299.230,71.600 297.800 C 70.183 296.370,68.933 295.200,68.823 295.200 C 68.713 295.200,69.783 296.370,71.200 297.800 M85.600 308.579 C 85.600 308.689,86.140 309.059,86.800 309.400 C 87.460 309.741,88.000 309.931,88.000 309.821 C 88.000 309.711,87.460 309.341,86.800 309.000 C 86.140 308.659,85.600 308.469,85.600 308.579 M329.014 309.435 C 328.641 310.004,328.405 310.538,328.489 310.622 C 328.573 310.707,328.958 310.241,329.344 309.588 C 330.206 308.128,329.948 308.009,329.014 309.435 M327.544 311.900 C 326.393 313.289,325.906 314.000,326.104 314.000 C 326.214 314.000,326.786 313.370,327.373 312.600 C 328.463 311.171,328.595 310.632,327.544 311.900 M323.178 317.500 L 321.800 319.000 323.300 317.622 C 324.696 316.338,324.984 316.000,324.678 316.000 C 324.612 316.000,323.937 316.675,323.178 317.500 M229.983 318.900 C 230.964 319.945,231.819 320.800,231.883 320.800 C 232.184 320.800,231.866 320.441,230.100 318.783 L 228.200 317.000 229.983 318.900 M232.400 321.325 C 232.400 321.394,232.985 321.979,233.700 322.625 L 235.000 323.800 233.825 322.500 C 232.730 321.288,232.400 321.016,232.400 321.325 M136.000 325.200 C 137.368 325.638,138.419 325.638,137.400 325.200 C 136.960 325.011,136.240 324.862,135.800 324.868 C 135.157 324.877,135.196 324.943,136.000 325.200 M150.100 327.076 C 150.485 327.176,151.115 327.176,151.500 327.076 C 151.885 326.975,151.570 326.893,150.800 326.893 C 150.030 326.893,149.715 326.975,150.100 327.076 M155.107 327.490 C 155.826 327.579,156.906 327.577,157.507 327.486 C 158.108 327.395,157.520 327.322,156.200 327.324 C 154.880 327.326,154.388 327.401,155.107 327.490 M188.707 327.490 C 189.426 327.579,190.506 327.577,191.107 327.486 C 191.708 327.395,191.120 327.322,189.800 327.324 C 188.480 327.326,187.988 327.401,188.707 327.490 M160.900 327.896 C 162.165 327.975,164.235 327.975,165.500 327.896 C 166.765 327.816,165.730 327.751,163.200 327.751 C 160.670 327.751,159.635 327.816,160.900 327.896 M180.300 327.895 C 181.455 327.976,183.345 327.976,184.500 327.895 C 185.655 327.814,184.710 327.748,182.400 327.748 C 180.090 327.748,179.145 327.814,180.300 327.895 " stroke="none" fill="#fedc85" fill-rule="evenodd"></path><path id="path4" d="M167.000 60.432 C 164.360 60.610,161.390 60.810,160.400 60.878 C 159.410 60.945,164.990 61.001,172.800 61.003 C 185.963 61.006,186.367 60.886,175.200 60.290 C 173.330 60.190,169.640 60.254,167.000 60.432 M153.091 61.489 C 153.801 61.577,155.061 61.579,155.891 61.492 C 156.721 61.405,156.140 61.333,154.600 61.331 C 153.060 61.329,152.381 61.400,153.091 61.489 M189.491 61.489 C 190.201 61.577,191.461 61.579,192.291 61.492 C 193.121 61.405,192.540 61.333,191.000 61.331 C 189.460 61.329,188.781 61.400,189.491 61.489 M148.905 61.887 C 149.514 61.979,150.414 61.977,150.905 61.882 C 151.397 61.787,150.900 61.711,149.800 61.714 C 148.700 61.717,148.297 61.795,148.905 61.887 M194.900 61.887 C 195.505 61.978,196.495 61.978,197.100 61.887 C 197.705 61.795,197.210 61.720,196.000 61.720 C 194.790 61.720,194.295 61.795,194.900 61.887 M140.200 62.800 C 138.434 63.249,140.445 63.269,142.600 62.823 L 144.200 62.492 142.800 62.493 C 142.030 62.494,140.860 62.632,140.200 62.800 M201.633 62.550 C 201.725 62.632,202.880 62.800,204.200 62.923 C 205.778 63.070,206.189 63.035,205.400 62.820 C 204.166 62.485,201.336 62.282,201.633 62.550 M133.000 64.000 C 131.922 64.274,131.902 64.306,132.800 64.313 C 133.350 64.317,134.250 64.176,134.800 64.000 C 136.144 63.569,134.692 63.569,133.000 64.000 M210.800 64.000 C 211.350 64.176,212.250 64.320,212.800 64.320 L 213.800 64.320 212.800 64.000 C 212.250 63.824,211.350 63.680,210.800 63.680 L 209.800 63.680 210.800 64.000 M126.600 65.200 L 125.800 65.544 126.600 65.544 C 127.040 65.544,127.760 65.389,128.200 65.200 L 129.000 64.856 128.200 64.856 C 127.760 64.856,127.040 65.011,126.600 65.200 M217.600 65.200 C 218.150 65.376,218.960 65.520,219.400 65.520 C 220.033 65.520,219.992 65.454,219.200 65.200 C 218.650 65.024,217.840 64.880,217.400 64.880 C 216.767 64.880,216.808 64.946,217.600 65.200 M221.200 66.000 C 221.750 66.176,222.560 66.320,223.000 66.320 C 223.633 66.320,223.592 66.254,222.800 66.000 C 222.250 65.824,221.440 65.680,221.000 65.680 C 220.367 65.680,220.408 65.746,221.200 66.000 M118.200 67.200 C 117.696 67.417,117.622 67.544,118.000 67.544 C 118.330 67.544,118.960 67.389,119.400 67.200 C 119.904 66.983,119.978 66.856,119.600 66.856 C 119.270 66.856,118.640 67.011,118.200 67.200 M226.600 67.200 C 227.040 67.389,227.670 67.544,228.000 67.544 C 228.378 67.544,228.304 67.417,227.800 67.200 C 227.360 67.011,226.730 66.856,226.400 66.856 C 226.022 66.856,226.096 66.983,226.600 67.200 M113.800 68.400 C 113.296 68.617,113.222 68.744,113.600 68.744 C 113.930 68.744,114.560 68.589,115.000 68.400 C 115.504 68.183,115.578 68.056,115.200 68.056 C 114.870 68.056,114.240 68.211,113.800 68.400 M230.600 68.400 C 231.040 68.589,231.670 68.744,232.000 68.744 C 232.378 68.744,232.304 68.617,231.800 68.400 C 231.360 68.211,230.730 68.056,230.400 68.056 C 230.022 68.056,230.096 68.183,230.600 68.400 M109.800 69.600 C 109.296 69.817,109.222 69.944,109.600 69.944 C 109.930 69.944,110.560 69.789,111.000 69.600 C 111.504 69.383,111.578 69.256,111.200 69.256 C 110.870 69.256,110.240 69.411,109.800 69.600 M107.000 70.614 C 106.000 71.096,105.966 71.151,106.800 70.948 C 107.933 70.671,109.207 70.021,108.600 70.030 C 108.380 70.033,107.660 70.296,107.000 70.614 M103.400 71.786 C 101.855 72.493,102.574 72.503,104.400 71.800 C 105.170 71.503,105.530 71.255,105.200 71.248 C 104.870 71.242,104.060 71.483,103.400 71.786 M240.800 71.533 C 241.130 71.736,241.850 72.024,242.400 72.171 C 243.095 72.357,243.217 72.325,242.800 72.067 C 242.470 71.864,241.750 71.576,241.200 71.429 C 240.505 71.243,240.383 71.275,240.800 71.533 M246.898 73.801 C 247.280 74.222,252.501 76.432,252.683 76.250 C 252.758 76.175,251.691 75.619,250.310 75.015 C 247.035 73.582,246.539 73.406,246.898 73.801 M95.642 74.834 C 95.115 75.045,94.784 75.317,94.907 75.440 C 95.029 75.562,95.640 75.386,96.265 75.047 C 97.521 74.366,97.139 74.235,95.642 74.834 M256.033 78.151 C 256.442 78.521,259.600 79.995,259.600 79.816 C 259.600 79.589,256.581 78.000,256.149 78.000 C 255.994 78.000,255.942 78.068,256.033 78.151 M85.900 79.829 C 84.405 80.640,84.496 80.978,86.000 80.200 C 86.660 79.859,87.200 79.494,87.200 79.390 C 87.200 79.132,87.157 79.147,85.900 79.829 M260.766 80.682 C 261.297 81.077,262.467 81.813,263.366 82.318 C 264.265 82.822,264.565 82.912,264.034 82.518 C 263.503 82.123,262.333 81.387,261.434 80.882 C 260.535 80.378,260.235 80.288,260.766 80.682 M76.800 85.885 C 74.504 87.759,69.997 92.000,70.301 92.000 C 70.428 92.000,71.627 90.965,72.966 89.700 C 74.305 88.435,76.210 86.733,77.200 85.918 C 78.190 85.103,78.910 84.431,78.800 84.426 C 78.690 84.420,77.790 85.077,76.800 85.885 M266.800 84.525 C 266.800 84.624,267.461 85.209,268.268 85.825 C 269.076 86.441,269.611 86.741,269.456 86.491 C 269.140 85.979,266.800 84.247,266.800 84.525 M270.770 87.732 C 271.789 88.854,272.008 88.993,271.987 88.500 C 271.981 88.335,271.486 87.854,270.887 87.432 L 269.800 86.664 270.770 87.732 M274.800 91.400 C 275.546 92.170,276.247 92.800,276.357 92.800 C 276.467 92.800,275.946 92.170,275.200 91.400 C 274.454 90.630,273.753 90.000,273.643 90.000 C 273.533 90.000,274.054 90.630,274.800 91.400 M68.087 94.216 C 66.390 96.523,66.683 96.514,68.579 94.200 C 69.390 93.210,69.907 92.407,69.727 92.416 C 69.547 92.424,68.809 93.234,68.087 94.216 M278.619 96.000 C 280.771 99.014,281.213 99.502,280.209 97.755 C 279.815 97.071,278.879 95.811,278.128 94.955 C 277.152 93.844,277.292 94.142,278.619 96.000 M64.400 99.600 C 63.951 100.480,63.674 101.200,63.784 101.200 C 63.894 101.200,64.351 100.480,64.800 99.600 C 65.249 98.720,65.526 98.000,65.416 98.000 C 65.306 98.000,64.849 98.720,64.400 99.600 M281.882 101.389 C 282.473 102.593,283.023 103.511,283.105 103.429 C 283.284 103.249,281.267 99.200,280.998 99.200 C 280.894 99.200,281.292 100.185,281.882 101.389 M284.600 112.996 C 284.600 115.771,284.717 117.627,284.860 117.120 C 285.003 116.614,285.120 114.760,285.120 113.000 C 285.120 111.240,285.003 109.384,284.860 108.876 C 284.717 108.367,284.600 110.221,284.600 112.996 M60.480 110.703 C 60.150 112.575,60.446 116.963,60.935 117.467 C 60.971 117.503,61.005 115.478,61.011 112.967 C 61.025 107.683,61.017 107.652,60.480 110.703 M61.256 118.800 C 61.256 119.130,61.411 119.760,61.600 120.200 C 61.817 120.704,61.944 120.778,61.944 120.400 C 61.944 120.070,61.789 119.440,61.600 119.000 C 61.383 118.496,61.256 118.422,61.256 118.800 M283.600 120.200 C 283.336 120.999,283.215 121.748,283.331 121.864 C 283.447 121.980,283.730 121.393,283.960 120.560 C 284.503 118.592,284.223 118.312,283.600 120.200 M282.500 123.700 C 282.070 124.875,282.080 124.926,282.612 124.224 C 283.121 123.552,283.421 122.400,283.088 122.400 C 283.026 122.400,282.761 122.985,282.500 123.700 M65.044 127.700 C 66.043 129.653,69.225 133.503,72.069 136.199 L 74.600 138.598 71.775 135.599 C 68.401 132.018,66.358 129.467,65.449 127.700 C 65.081 126.985,64.689 126.400,64.579 126.400 C 64.469 126.400,64.679 126.985,65.044 127.700 M60.166 130.544 C 59.798 131.502,60.232 169.757,60.623 170.895 C 60.866 171.601,60.965 164.841,60.901 151.895 C 60.813 134.100,60.868 131.914,61.386 132.800 C 62.101 134.021,62.151 133.598,61.537 131.546 C 61.062 129.962,60.537 129.578,60.166 130.544 M284.600 151.063 C 284.600 162.605,284.717 171.633,284.860 171.124 C 285.227 169.821,285.265 130.487,284.900 130.262 C 284.735 130.160,284.600 139.520,284.600 151.063 M273.889 135.288 C 271.298 137.926,269.858 139.539,270.689 138.873 C 272.693 137.265,279.395 130.269,278.762 130.445 C 278.673 130.470,276.480 132.649,273.889 135.288 M281.223 139.450 C 280.753 140.248,280.433 140.966,280.513 141.046 C 280.592 141.126,281.061 140.473,281.554 139.596 C 282.675 137.602,282.388 137.477,281.223 139.450 M74.800 138.525 C 74.800 138.624,75.461 139.209,76.268 139.825 C 77.076 140.441,77.611 140.741,77.456 140.491 C 77.140 139.979,74.800 138.247,74.800 138.525 M266.800 141.455 C 264.623 143.165,264.353 143.440,265.400 142.882 C 266.271 142.418,269.125 140.030,268.800 140.037 C 268.690 140.039,267.790 140.677,266.800 141.455 M65.964 142.733 C 66.180 143.136,66.671 143.721,67.055 144.033 C 67.487 144.384,67.390 144.104,66.801 143.300 C 65.751 141.865,65.357 141.598,65.964 142.733 M278.349 144.100 C 277.625 145.035,275.589 147.330,273.825 149.200 L 270.618 152.600 273.525 149.800 C 276.176 147.246,280.325 142.400,279.860 142.400 C 279.754 142.400,279.074 143.165,278.349 144.100 M262.900 144.046 C 261.537 144.919,261.095 145.506,262.300 144.843 C 263.218 144.339,264.656 143.227,264.400 143.219 C 264.290 143.216,263.615 143.588,262.900 144.046 M83.800 145.007 C 84.240 145.366,84.960 145.835,85.400 146.051 L 86.200 146.444 85.400 145.793 C 84.960 145.434,84.240 144.965,83.800 144.749 L 83.000 144.356 83.800 145.007 M70.800 148.541 C 72.010 149.818,73.720 151.420,74.600 152.100 C 76.445 153.527,76.163 153.234,71.800 149.186 C 69.091 146.674,68.938 146.575,70.800 148.541 M254.700 148.626 C 253.655 149.170,252.800 149.705,252.800 149.814 C 252.800 149.924,253.700 149.557,254.800 149.000 C 255.900 148.443,256.800 147.900,256.800 147.793 C 256.800 147.529,256.836 147.514,254.700 148.626 M96.000 151.400 C 96.550 151.714,97.180 151.972,97.400 151.972 C 97.620 151.972,97.350 151.714,96.800 151.400 C 96.250 151.086,95.620 150.828,95.400 150.828 C 95.180 150.828,95.450 151.086,96.000 151.400 M98.000 152.134 C 98.000 152.237,98.581 152.524,99.291 152.772 C 100.001 153.019,100.406 153.057,100.191 152.856 C 99.735 152.429,98.000 151.858,98.000 152.134 M246.000 152.600 C 245.450 152.914,245.180 153.172,245.400 153.172 C 245.620 153.172,246.250 152.914,246.800 152.600 C 247.350 152.286,247.620 152.028,247.400 152.028 C 247.180 152.028,246.550 152.286,246.000 152.600 M101.200 153.431 C 101.200 153.701,103.278 154.456,103.476 154.257 C 103.567 154.167,103.092 153.901,102.420 153.667 C 101.749 153.433,101.200 153.327,101.200 153.431 M243.000 153.814 C 242.000 154.296,241.966 154.351,242.800 154.148 C 243.933 153.871,245.207 153.221,244.600 153.230 C 244.380 153.233,243.660 153.496,243.000 153.814 M76.897 153.833 C 77.027 154.044,77.991 154.832,79.037 155.584 C 80.084 156.335,80.833 156.778,80.703 156.567 C 80.573 156.356,79.609 155.568,78.563 154.816 C 77.516 154.065,76.767 153.622,76.897 153.833 M266.800 155.055 C 264.623 156.765,264.353 157.040,265.400 156.482 C 266.271 156.018,269.125 153.630,268.800 153.637 C 268.690 153.639,267.790 154.277,266.800 155.055 M237.400 155.814 C 236.400 156.296,236.366 156.351,237.200 156.148 C 238.333 155.871,239.607 155.221,239.000 155.230 C 238.780 155.233,238.060 155.496,237.400 155.814 M233.656 156.859 C 232.917 157.072,232.387 157.320,232.479 157.412 C 232.681 157.614,235.600 156.837,235.600 156.581 C 235.600 156.346,235.282 156.391,233.656 156.859 M111.800 157.200 C 112.240 157.389,112.870 157.544,113.200 157.544 C 113.578 157.544,113.504 157.417,113.000 157.200 C 112.560 157.011,111.930 156.856,111.600 156.856 C 111.222 156.856,111.296 156.983,111.800 157.200 M229.400 158.215 C 227.816 158.763,227.814 158.766,229.200 158.538 C 229.970 158.412,230.870 158.154,231.200 157.966 C 232.081 157.464,231.230 157.582,229.400 158.215 M83.800 158.607 C 84.240 158.966,84.960 159.435,85.400 159.651 L 86.200 160.044 85.400 159.393 C 84.960 159.034,84.240 158.565,83.800 158.349 L 83.000 157.956 83.800 158.607 M118.800 159.162 C 119.130 159.353,120.210 159.616,121.200 159.747 C 122.380 159.902,122.656 159.871,122.000 159.657 C 120.345 159.118,118.134 158.776,118.800 159.162 M225.600 159.200 C 224.776 159.464,224.741 159.526,225.400 159.554 C 225.840 159.573,226.470 159.413,226.800 159.200 C 227.501 158.747,227.014 158.747,225.600 159.200 M259.496 159.750 C 257.575 160.931,257.038 161.489,258.600 160.681 C 259.854 160.033,261.545 158.826,261.200 158.825 C 261.090 158.825,260.323 159.241,259.496 159.750 M124.000 160.400 C 124.550 160.576,125.360 160.720,125.800 160.720 C 126.433 160.720,126.392 160.654,125.600 160.400 C 125.050 160.224,124.240 160.080,123.800 160.080 C 123.167 160.080,123.208 160.146,124.000 160.400 M220.200 160.400 L 219.400 160.744 220.200 160.744 C 220.640 160.744,221.360 160.589,221.800 160.400 L 222.600 160.056 221.800 160.056 C 221.360 160.056,220.640 160.211,220.200 160.400 M88.000 160.979 C 88.000 161.089,88.540 161.459,89.200 161.800 C 89.860 162.141,90.400 162.331,90.400 162.221 C 90.400 162.111,89.860 161.741,89.200 161.400 C 88.540 161.059,88.000 160.869,88.000 160.979 M214.200 161.600 C 213.130 161.872,213.108 161.905,214.000 161.905 C 214.550 161.905,215.540 161.768,216.200 161.600 C 217.270 161.328,217.292 161.295,216.400 161.295 C 215.850 161.295,214.860 161.432,214.200 161.600 M141.932 163.581 C 142.664 163.763,144.644 164.010,146.332 164.131 C 148.513 164.286,148.879 164.257,147.600 164.030 C 144.844 163.541,140.330 163.184,141.932 163.581 M200.200 163.655 C 196.370 164.140,195.959 164.425,199.511 164.133 C 202.630 163.877,205.849 163.274,204.000 163.292 C 203.450 163.297,201.740 163.461,200.200 163.655 M250.800 164.200 C 250.250 164.514,249.980 164.772,250.200 164.772 C 250.420 164.772,251.050 164.514,251.600 164.200 C 252.150 163.886,252.420 163.628,252.200 163.628 C 251.980 163.628,251.350 163.886,250.800 164.200 M152.800 164.794 C 155.580 165.128,160.643 165.299,160.367 165.049 C 160.275 164.966,157.950 164.805,155.200 164.690 C 151.804 164.548,151.034 164.581,152.800 164.794 M192.100 164.687 C 192.705 164.778,193.695 164.778,194.300 164.687 C 194.905 164.595,194.410 164.520,193.200 164.520 C 191.990 164.520,191.495 164.595,192.100 164.687 M186.500 165.091 C 187.325 165.178,188.675 165.178,189.500 165.091 C 190.325 165.005,189.650 164.934,188.000 164.934 C 186.350 164.934,185.675 165.005,186.500 165.091 M167.100 165.499 C 170.235 165.567,175.365 165.567,178.500 165.499 C 181.635 165.432,179.070 165.376,172.800 165.376 C 166.530 165.376,163.965 165.432,167.100 165.499 M238.675 168.873 C 237.396 169.319,236.420 169.753,236.505 169.839 C 236.591 169.924,237.907 169.559,239.430 169.027 C 240.954 168.495,241.930 168.060,241.600 168.061 C 241.270 168.062,239.954 168.428,238.675 168.873 M106.800 169.133 C 107.130 169.336,107.850 169.624,108.400 169.771 C 109.095 169.957,109.217 169.925,108.800 169.667 C 108.470 169.464,107.750 169.176,107.200 169.029 C 106.505 168.843,106.383 168.875,106.800 169.133 M110.400 170.341 C 110.730 170.534,111.540 170.809,112.200 170.952 C 112.968 171.118,113.184 171.084,112.800 170.859 C 112.470 170.666,111.660 170.391,111.000 170.248 C 110.232 170.082,110.016 170.116,110.400 170.341 M233.656 170.459 C 232.917 170.672,232.390 170.923,232.485 171.018 C 232.580 171.113,233.454 170.940,234.429 170.635 C 236.418 170.011,235.745 169.858,233.656 170.459 M229.656 171.659 C 228.917 171.872,228.390 172.123,228.485 172.218 C 228.580 172.313,229.454 172.140,230.429 171.835 C 232.418 171.211,231.745 171.058,229.656 171.659 M61.227 172.840 C 61.196 173.577,62.024 176.109,62.229 175.904 C 62.304 175.829,62.115 174.965,61.809 173.984 C 61.504 173.003,61.241 172.488,61.227 172.840 M118.600 172.800 C 119.040 172.989,119.760 173.138,120.200 173.132 C 120.843 173.123,120.804 173.057,120.000 172.800 C 118.632 172.362,117.581 172.362,118.600 172.800 M225.800 172.800 C 224.693 173.082,224.677 173.109,225.600 173.147 C 226.150 173.169,226.870 173.013,227.200 172.800 C 227.881 172.360,227.529 172.360,225.800 172.800 M283.673 174.473 C 283.435 175.409,283.310 176.243,283.394 176.327 C 283.478 176.412,283.751 175.724,284.000 174.800 C 284.249 173.876,284.374 173.041,284.279 172.945 C 284.183 172.850,283.910 173.537,283.673 174.473 M123.600 174.000 C 124.150 174.176,124.960 174.326,125.400 174.332 L 126.200 174.344 125.400 174.000 C 124.960 173.811,124.150 173.662,123.600 173.668 L 122.600 173.680 123.600 174.000 M220.400 174.000 C 219.608 174.254,219.567 174.320,220.200 174.320 C 220.640 174.320,221.450 174.176,222.000 174.000 C 222.792 173.746,222.833 173.680,222.200 173.680 C 221.760 173.680,220.950 173.824,220.400 174.000 M216.045 174.832 C 215.079 175.022,214.186 175.281,214.060 175.407 C 213.793 175.674,216.928 175.214,218.400 174.770 C 219.811 174.345,218.327 174.384,216.045 174.832 M128.433 174.947 C 128.525 175.028,129.320 175.204,130.200 175.338 C 131.315 175.507,131.558 175.471,131.000 175.219 C 130.232 174.871,128.090 174.644,128.433 174.947 M210.000 176.000 C 208.643 176.286,208.637 176.295,209.800 176.307 C 210.460 176.315,211.450 176.176,212.000 176.000 C 213.312 175.580,211.996 175.580,210.000 176.000 M62.432 176.824 C 62.414 177.166,62.680 177.796,63.022 178.224 C 63.634 178.988,63.638 178.987,63.276 178.200 C 63.074 177.760,62.808 177.130,62.686 176.800 C 62.493 176.282,62.459 176.285,62.432 176.824 M141.400 177.202 C 143.017 177.558,145.874 177.727,145.567 177.449 C 145.475 177.366,144.140 177.198,142.600 177.074 C 140.448 176.902,140.170 176.931,141.400 177.202 M201.600 177.200 C 199.951 177.456,199.917 177.483,201.200 177.517 C 201.970 177.537,203.320 177.405,204.200 177.223 C 206.266 176.796,204.312 176.778,201.600 177.200 M282.467 177.980 C 282.233 178.651,282.127 179.200,282.231 179.200 C 282.501 179.200,283.256 177.122,283.057 176.924 C 282.967 176.833,282.701 177.308,282.467 177.980 M197.700 177.876 C 198.085 177.976,198.715 177.976,199.100 177.876 C 199.485 177.775,199.170 177.693,198.400 177.693 C 197.630 177.693,197.315 177.775,197.700 177.876 M150.707 178.290 C 151.426 178.379,152.506 178.377,153.107 178.286 C 153.708 178.195,153.120 178.122,151.800 178.124 C 150.480 178.126,149.988 178.201,150.707 178.290 M189.000 178.400 L 186.200 178.659 188.600 178.683 C 189.920 178.696,192.170 178.575,193.600 178.414 L 196.200 178.122 194.000 178.132 C 192.790 178.137,190.540 178.258,189.000 178.400 M155.500 178.689 C 156.215 178.778,157.385 178.778,158.100 178.689 C 158.815 178.601,158.230 178.528,156.800 178.528 C 155.370 178.528,154.785 178.601,155.500 178.689 M166.700 179.099 C 170.055 179.166,175.545 179.166,178.900 179.099 C 182.255 179.032,179.510 178.978,172.800 178.978 C 166.090 178.978,163.345 179.032,166.700 179.099 M65.216 182.309 C 65.734 183.250,66.499 184.328,66.917 184.705 C 67.334 185.083,67.011 184.404,66.200 183.196 C 64.334 180.417,64.017 180.132,65.216 182.309 M278.400 184.800 C 277.930 185.460,277.636 186.000,277.746 186.000 C 277.856 186.000,278.330 185.460,278.800 184.800 C 279.270 184.140,279.564 183.600,279.454 183.600 C 279.344 183.600,278.870 184.140,278.400 184.800 M284.730 189.773 L 284.897 196.000 283.749 195.995 C 281.747 195.985,280.730 195.560,281.001 194.847 C 281.198 194.329,281.147 194.299,280.744 194.700 C 279.928 195.510,280.942 196.146,283.095 196.175 L 285.000 196.200 285.111 190.764 C 285.172 187.775,285.073 184.928,284.892 184.438 C 284.707 183.936,284.636 186.269,284.730 189.773 M60.166 184.944 C 59.798 185.902,60.232 224.157,60.623 225.295 C 60.866 226.001,60.965 219.241,60.901 206.295 C 60.813 188.500,60.868 186.314,61.386 187.200 C 62.101 188.421,62.151 187.998,61.537 185.946 C 61.062 184.362,60.537 183.978,60.166 184.944 M283.873 186.553 C 283.723 186.945,283.611 187.566,283.625 187.933 C 283.642 188.375,283.781 188.274,284.037 187.634 C 284.249 187.103,284.361 186.482,284.285 186.254 C 284.209 186.027,284.024 186.161,283.873 186.553 M274.589 189.300 L 271.800 192.200 274.700 189.411 C 276.295 187.877,277.600 186.572,277.600 186.511 C 277.600 186.217,277.180 186.606,274.589 189.300 M70.976 189.491 C 72.063 190.641,73.038 191.496,73.143 191.391 C 73.247 191.286,73.255 191.155,73.159 191.100 C 73.063 191.045,72.088 190.190,70.993 189.200 L 69.000 187.400 70.976 189.491 M73.982 192.170 C 74.621 192.949,79.200 196.551,79.200 196.274 C 79.200 196.180,77.895 195.057,76.300 193.781 C 74.705 192.504,73.662 191.779,73.982 192.170 M64.000 193.600 C 64.449 194.480,64.906 195.200,65.016 195.200 C 65.126 195.200,64.849 194.480,64.400 193.600 C 63.951 192.720,63.494 192.000,63.384 192.000 C 63.274 192.000,63.551 192.720,64.000 193.600 M269.400 193.873 C 267.795 195.321,268.413 195.013,270.531 193.309 C 271.153 192.809,271.513 192.407,271.331 192.415 C 271.149 192.423,270.280 193.080,269.400 193.873 M80.495 197.277 C 81.648 198.250,85.287 200.391,84.600 199.693 C 84.380 199.469,83.120 198.626,81.800 197.819 C 80.480 197.013,79.893 196.769,80.495 197.277 M260.000 197.200 C 258.656 197.631,260.108 197.631,261.800 197.200 C 262.878 196.926,262.898 196.894,262.000 196.887 C 261.450 196.883,260.550 197.024,260.000 197.200 M256.400 198.000 C 255.608 198.254,255.567 198.320,256.200 198.320 C 256.640 198.320,257.450 198.176,258.000 198.000 C 258.792 197.746,258.833 197.680,258.200 197.680 C 257.760 197.680,256.950 197.824,256.400 198.000 M69.123 201.100 C 70.001 202.145,71.225 203.450,71.842 204.000 C 72.459 204.550,71.937 203.844,70.682 202.432 C 69.427 201.019,68.400 199.714,68.400 199.532 C 68.400 199.349,68.203 199.200,67.963 199.200 C 67.722 199.200,68.244 200.055,69.123 201.100 M248.200 200.614 C 247.195 201.098,247.163 201.153,248.000 200.951 C 248.550 200.819,249.171 200.550,249.380 200.355 C 249.898 199.871,249.614 199.933,248.200 200.614 M87.233 201.351 C 87.642 201.721,90.800 203.195,90.800 203.016 C 90.800 202.789,87.781 201.200,87.349 201.200 C 87.194 201.200,87.142 201.268,87.233 201.351 M243.200 202.600 C 242.650 202.914,242.380 203.172,242.600 203.172 C 242.820 203.172,243.450 202.914,244.000 202.600 C 244.550 202.286,244.820 202.028,244.600 202.028 C 244.380 202.028,243.750 202.286,243.200 202.600 M240.576 203.780 C 239.827 204.340,239.832 204.352,240.706 204.132 C 241.205 204.006,241.710 203.745,241.830 203.552 C 242.168 203.004,241.436 203.138,240.576 203.780 M74.686 206.480 C 77.099 208.519,77.587 208.748,75.614 206.915 C 74.616 205.989,73.659 205.224,73.486 205.215 C 73.313 205.207,73.853 205.776,74.686 206.480 M233.700 207.646 C 232.337 208.519,231.895 209.106,233.100 208.443 C 234.018 207.939,235.456 206.827,235.200 206.819 C 235.090 206.816,234.415 207.188,233.700 207.646 M228.700 211.014 C 227.655 211.780,226.800 212.507,226.800 212.629 C 226.800 212.887,230.374 210.366,230.657 209.909 C 230.974 209.395,230.681 209.560,228.700 211.014 M79.600 210.175 C 79.600 210.285,80.545 210.976,81.700 211.710 C 84.515 213.500,85.099 213.821,84.600 213.302 C 84.025 212.703,79.600 209.937,79.600 210.175 M111.800 211.600 C 112.240 211.789,112.960 211.938,113.400 211.932 C 114.043 211.923,114.004 211.857,113.200 211.600 C 111.832 211.162,110.781 211.162,111.800 211.600 M116.200 212.800 C 116.640 212.989,117.270 213.144,117.600 213.144 C 117.978 213.144,117.904 213.017,117.400 212.800 C 116.960 212.611,116.330 212.456,116.000 212.456 C 115.622 212.456,115.696 212.583,116.200 212.800 M273.200 212.831 C 271.316 212.998,272.086 213.072,276.000 213.099 C 281.497 213.138,282.538 212.962,278.200 212.729 C 276.880 212.658,274.630 212.704,273.200 212.831 M225.780 213.161 C 225.571 213.360,225.040 213.609,224.600 213.715 C 223.841 213.897,223.844 213.910,224.651 213.954 C 225.119 213.979,225.726 213.730,226.000 213.400 C 226.543 212.746,226.391 212.581,225.780 213.161 M119.200 213.594 C 119.530 213.811,120.235 213.991,120.767 213.994 C 122.051 214.002,121.725 213.775,120.000 213.458 C 119.015 213.277,118.778 213.318,119.200 213.594 M263.200 214.000 C 261.856 214.431,263.308 214.431,265.000 214.000 C 266.078 213.726,266.098 213.694,265.200 213.687 C 264.650 213.683,263.750 213.824,263.200 214.000 M286.033 213.744 C 286.125 213.824,287.010 213.996,288.000 214.127 C 289.202 214.286,289.534 214.247,289.000 214.010 C 288.236 213.672,285.686 213.443,286.033 213.744 M218.864 214.873 C 217.909 215.087,217.208 215.341,217.306 215.439 C 217.512 215.646,221.600 214.815,221.600 214.567 C 221.600 214.339,220.911 214.416,218.864 214.873 M258.200 215.200 L 257.400 215.544 258.200 215.544 C 258.640 215.544,259.360 215.389,259.800 215.200 L 260.600 214.856 259.800 214.856 C 259.360 214.856,258.640 215.011,258.200 215.200 M292.400 215.200 C 293.768 215.638,294.819 215.638,293.800 215.200 C 293.360 215.011,292.640 214.862,292.200 214.868 C 291.557 214.877,291.596 214.943,292.400 215.200 M129.800 216.000 C 130.240 216.189,131.140 216.335,131.800 216.325 L 133.000 216.305 131.800 216.000 C 131.140 215.832,130.240 215.686,129.800 215.675 L 129.000 215.656 129.800 216.000 M214.000 216.000 C 213.208 216.254,213.167 216.320,213.800 216.320 C 214.240 216.320,215.050 216.176,215.600 216.000 C 216.392 215.746,216.433 215.680,215.800 215.680 C 215.360 215.680,214.550 215.824,214.000 216.000 M255.400 216.214 C 254.400 216.696,254.366 216.751,255.200 216.548 C 256.333 216.271,257.607 215.621,257.000 215.630 C 256.780 215.633,256.060 215.896,255.400 216.214 M295.946 216.216 C 296.686 216.537,297.406 216.794,297.546 216.786 C 298.066 216.757,295.776 215.628,295.200 215.630 C 294.870 215.631,295.206 215.894,295.946 216.216 M137.000 217.223 C 139.026 217.642,140.663 217.623,139.000 217.200 C 138.340 217.032,137.260 216.894,136.600 216.893 C 135.591 216.892,135.655 216.945,137.000 217.223 M206.200 217.200 C 204.537 217.623,206.174 217.642,208.200 217.223 C 209.545 216.945,209.609 216.892,208.600 216.893 C 207.940 216.894,206.860 217.032,206.200 217.200 M142.600 217.989 C 143.816 218.309,147.473 218.522,147.167 218.255 C 147.075 218.175,145.740 218.011,144.200 217.891 C 142.502 217.759,141.872 217.798,142.600 217.989 M200.200 218.000 L 198.200 218.274 200.000 218.290 C 200.990 218.298,202.340 218.168,203.000 218.000 C 204.577 217.599,203.125 217.599,200.200 218.000 M302.800 219.000 C 303.790 219.530,304.780 219.964,305.000 219.964 C 305.220 219.964,304.590 219.530,303.600 219.000 C 302.610 218.470,301.620 218.036,301.400 218.036 C 301.180 218.036,301.810 218.470,302.800 219.000 M195.905 218.683 C 196.402 218.779,197.122 218.775,197.505 218.675 C 197.887 218.575,197.480 218.496,196.600 218.501 C 195.720 218.505,195.407 218.587,195.905 218.683 M96.000 219.400 C 96.550 219.714,97.180 219.972,97.400 219.972 C 97.620 219.972,97.350 219.714,96.800 219.400 C 96.250 219.086,95.620 218.828,95.400 218.828 C 95.180 218.828,95.450 219.086,96.000 219.400 M154.400 219.208 C 156.194 219.540,161.484 219.732,161.167 219.454 C 161.075 219.373,159.110 219.210,156.800 219.091 C 153.994 218.947,153.198 218.986,154.400 219.208 M186.000 219.200 L 182.200 219.447 185.800 219.500 C 187.780 219.530,190.120 219.405,191.000 219.223 L 192.600 218.892 191.200 218.923 C 190.430 218.939,188.090 219.064,186.000 219.200 M168.521 219.898 C 170.677 219.971,174.097 219.970,176.121 219.898 C 178.144 219.825,176.380 219.766,172.200 219.767 C 168.020 219.767,166.364 219.826,168.521 219.898 M98.000 220.134 C 98.000 220.237,98.581 220.524,99.291 220.772 C 100.001 221.019,100.406 221.057,100.191 220.856 C 99.735 220.429,98.000 219.858,98.000 220.134 M244.200 221.253 C 241.882 222.688,240.721 223.727,242.800 222.506 C 246.232 220.492,246.974 220.003,246.600 220.009 C 246.380 220.012,245.300 220.572,244.200 221.253 M241.900 224.829 C 242.395 225.391,242.800 226.043,242.800 226.277 C 242.800 226.511,243.065 226.922,243.389 227.191 C 243.908 227.622,243.909 227.540,243.392 226.505 C 243.070 225.858,242.400 224.987,241.903 224.568 L 241.000 223.806 241.900 224.829 M111.800 225.200 C 112.240 225.389,112.870 225.544,113.200 225.544 C 113.578 225.544,113.504 225.417,113.000 225.200 C 112.560 225.011,111.930 224.856,111.600 224.856 C 111.222 224.856,111.296 224.983,111.800 225.200 M313.200 224.938 C 313.200 225.044,313.965 225.688,314.900 226.369 C 315.835 227.049,318.572 229.540,320.982 231.903 C 323.433 234.307,324.327 235.055,323.011 233.600 C 319.594 229.824,313.200 224.179,313.200 224.938 M114.600 225.939 C 115.837 226.468,117.910 226.877,117.200 226.451 C 116.870 226.254,115.970 225.980,115.200 225.844 C 114.256 225.677,114.060 225.708,114.600 225.939 M119.000 227.200 C 119.440 227.389,120.160 227.538,120.600 227.532 C 121.243 227.523,121.204 227.457,120.400 227.200 C 119.032 226.762,117.981 226.762,119.000 227.200 M124.000 228.400 C 124.550 228.576,125.360 228.720,125.800 228.720 C 126.433 228.720,126.392 228.654,125.600 228.400 C 125.050 228.224,124.240 228.080,123.800 228.080 C 123.167 228.080,123.208 228.146,124.000 228.400 M230.974 231.700 C 228.560 234.195,225.506 237.707,227.234 236.000 C 229.179 234.080,234.111 228.800,233.959 228.800 C 233.861 228.800,232.517 230.105,230.974 231.700 M129.600 229.600 C 130.150 229.776,131.050 229.917,131.600 229.913 C 132.498 229.906,132.478 229.874,131.400 229.600 C 129.708 229.169,128.256 229.169,129.600 229.600 M206.600 230.830 C 205.706 231.080,205.898 231.110,207.355 230.950 C 209.129 230.754,209.285 230.802,209.032 231.467 C 208.819 232.026,208.864 232.090,209.221 231.735 C 210.326 230.639,208.965 230.169,206.600 230.830 M62.400 231.324 C 62.400 231.611,62.668 232.196,62.995 232.624 C 63.538 233.334,63.552 233.289,63.155 232.100 C 62.703 230.743,62.400 230.432,62.400 231.324 M142.200 231.618 C 143.300 231.790,144.830 231.922,145.600 231.912 C 146.733 231.897,146.618 231.834,145.000 231.582 C 143.900 231.410,142.370 231.278,141.600 231.288 C 140.467 231.303,140.582 231.366,142.200 231.618 M200.200 231.600 C 198.268 231.865,198.254 231.876,199.800 231.914 C 200.680 231.936,202.120 231.805,203.000 231.623 C 205.042 231.201,203.220 231.186,200.200 231.600 M247.232 231.630 C 247.214 231.977,247.650 232.683,248.200 233.200 C 248.750 233.717,249.214 234.423,249.232 234.770 C 249.255 235.229,249.321 235.255,249.476 234.868 C 249.592 234.575,249.241 233.855,248.694 233.268 C 248.147 232.681,247.602 231.930,247.481 231.600 C 247.295 231.086,247.259 231.091,247.232 231.630 M153.400 232.815 C 154.720 232.979,156.700 233.105,157.800 233.096 C 159.697 233.079,159.666 233.063,157.200 232.786 C 155.770 232.625,153.790 232.499,152.800 232.506 C 151.173 232.516,151.231 232.546,153.400 232.815 M188.000 232.800 L 185.400 233.062 187.800 233.096 C 189.120 233.115,191.100 232.990,192.200 232.818 L 194.200 232.507 192.400 232.522 C 191.410 232.531,189.430 232.656,188.000 232.800 M208.153 232.900 C 206.776 235.236,206.686 235.435,207.387 234.600 C 208.200 233.632,208.900 232.400,208.638 232.400 C 208.533 232.400,208.315 232.625,208.153 232.900 M238.032 232.830 C 238.014 233.177,238.495 233.897,239.100 234.430 L 240.200 235.400 239.351 234.400 C 238.884 233.850,238.403 233.130,238.282 232.800 C 238.095 232.286,238.059 232.291,238.032 232.830 M168.723 233.499 C 171.431 233.568,175.751 233.568,178.323 233.499 C 180.895 233.429,178.680 233.372,173.400 233.373 C 168.120 233.373,166.015 233.430,168.723 233.499 M63.600 233.777 C 63.600 234.073,65.267 236.800,65.448 236.800 C 65.540 236.800,65.249 236.080,64.800 235.200 C 64.084 233.796,63.600 233.222,63.600 233.777 M205.800 236.800 C 205.459 237.460,205.269 238.000,205.379 238.000 C 205.489 238.000,205.859 237.460,206.200 236.800 C 206.541 236.140,206.731 235.600,206.621 235.600 C 206.511 235.600,206.141 236.140,205.800 236.800 M225.000 238.506 C 223.664 240.330,222.864 241.639,223.475 241.000 C 224.412 240.020,226.482 237.149,226.348 237.015 C 226.267 236.934,225.660 237.604,225.000 238.506 M65.813 237.600 C 66.079 238.084,67.928 240.414,70.081 242.980 C 70.257 243.189,70.400 243.243,70.400 243.101 C 70.400 242.958,69.472 241.707,68.338 240.321 C 65.928 237.374,65.340 236.742,65.813 237.600 M251.200 237.325 C 251.200 237.394,251.785 237.979,252.500 238.625 L 253.800 239.800 252.625 238.500 C 251.530 237.288,251.200 237.016,251.200 237.325 M60.176 238.918 C 59.782 239.945,60.191 278.555,60.606 279.478 C 60.869 280.064,60.960 273.787,60.879 260.541 C 60.795 246.747,60.886 240.806,61.179 240.987 C 61.411 241.130,61.600 241.537,61.600 241.890 C 61.600 242.244,61.702 242.432,61.826 242.307 C 62.138 241.995,61.269 238.890,60.786 238.592 C 60.571 238.458,60.296 238.605,60.176 238.918 M329.006 241.785 C 329.778 243.097,330.611 244.357,330.855 244.585 C 331.524 245.210,329.533 241.751,328.500 240.495 C 328.005 239.893,328.233 240.473,329.006 241.785 M222.553 242.100 C 221.176 244.436,221.086 244.635,221.787 243.800 C 222.600 242.832,223.300 241.600,223.038 241.600 C 222.933 241.600,222.715 241.825,222.553 242.100 M202.465 243.417 C 201.795 244.888,201.923 245.202,202.647 243.865 C 202.986 243.240,203.188 242.654,203.096 242.563 C 203.005 242.471,202.721 242.856,202.465 243.417 M256.448 243.800 C 256.804 244.240,257.195 244.870,257.316 245.200 C 257.503 245.709,257.542 245.704,257.568 245.162 C 257.586 244.811,257.195 244.181,256.700 243.762 C 255.808 243.006,255.806 243.007,256.448 243.800 M71.639 244.500 C 71.735 244.555,72.620 245.320,73.606 246.200 L 75.400 247.800 73.819 246.100 C 72.949 245.165,72.064 244.400,71.852 244.400 C 71.640 244.400,71.544 244.445,71.639 244.500 M258.799 247.100 C 259.322 247.815,259.813 248.400,259.889 248.400 C 260.193 248.400,259.201 246.900,258.545 246.367 C 258.113 246.016,258.210 246.296,258.799 247.100 M77.111 249.090 C 78.051 249.942,79.401 250.972,80.111 251.377 C 81.837 252.363,81.145 251.727,78.000 249.435 C 75.618 247.699,75.543 247.670,77.111 249.090 M333.218 249.249 C 333.208 249.385,333.640 250.465,334.177 251.649 C 334.714 252.832,335.156 253.530,335.159 253.200 C 335.164 252.624,333.255 248.739,333.218 249.249 M261.632 250.430 C 261.614 250.777,262.095 251.497,262.700 252.030 L 263.800 253.000 262.951 252.000 C 262.484 251.450,262.003 250.730,261.882 250.400 C 261.695 249.886,261.659 249.891,261.632 250.430 M199.029 252.629 C 198.881 253.215,198.838 253.772,198.932 253.866 C 199.027 253.960,199.224 253.558,199.371 252.971 C 199.519 252.385,199.562 251.828,199.468 251.734 C 199.373 251.640,199.176 252.042,199.029 252.629 M67.420 253.186 C 68.273 254.431,70.400 256.818,70.385 256.514 C 70.376 256.341,69.611 255.384,68.685 254.386 C 67.758 253.389,67.189 252.849,67.420 253.186 M254.034 253.847 C 254.565 254.533,255.080 255.023,255.179 254.935 C 255.277 254.847,254.843 254.286,254.213 253.688 L 253.069 252.600 254.034 253.847 M83.801 253.602 C 84.069 254.036,86.400 255.334,86.400 255.050 C 86.400 254.956,85.759 254.501,84.976 254.039 C 84.193 253.577,83.664 253.380,83.801 253.602 M335.429 254.800 C 335.576 255.350,335.864 256.070,336.067 256.400 C 336.325 256.817,336.357 256.695,336.171 256.000 C 336.024 255.450,335.736 254.730,335.533 254.400 C 335.275 253.983,335.243 254.105,335.429 254.800 M198.200 255.600 C 198.048 256.291,198.007 256.941,198.109 257.042 C 198.211 257.144,198.409 256.653,198.550 255.950 C 198.883 254.283,198.560 253.960,198.200 255.600 M216.044 255.644 C 215.798 256.351,215.666 257.000,215.752 257.085 C 215.838 257.171,216.109 256.662,216.356 255.956 C 216.602 255.249,216.734 254.600,216.648 254.515 C 216.562 254.429,216.291 254.938,216.044 255.644 M265.600 256.125 C 265.600 256.194,266.185 256.779,266.900 257.425 L 268.200 258.600 267.025 257.300 C 265.930 256.088,265.600 255.816,265.600 256.125 M89.200 256.598 C 89.200 256.865,94.849 259.685,95.027 259.506 C 95.107 259.427,93.828 258.697,92.186 257.884 C 90.544 257.071,89.200 256.493,89.200 256.598 M72.402 258.533 C 74.270 260.540,78.121 263.740,80.200 265.012 C 81.922 266.066,81.007 265.231,78.000 263.004 C 76.570 261.945,74.321 260.071,73.002 258.839 C 70.758 256.744,70.719 256.724,72.402 258.533 M215.050 258.850 C 214.909 259.553,214.869 260.202,214.959 260.292 C 215.050 260.383,215.248 259.891,215.400 259.200 C 215.552 258.509,215.593 257.859,215.491 257.758 C 215.389 257.656,215.191 258.147,215.050 258.850 M336.856 259.200 C 336.856 259.530,337.011 260.160,337.200 260.600 C 337.417 261.104,337.544 261.178,337.544 260.800 C 337.544 260.470,337.389 259.840,337.200 259.400 C 336.983 258.896,336.856 258.822,336.856 259.200 M197.000 261.200 C 196.846 262.110,196.804 262.938,196.907 263.040 C 197.010 263.143,197.213 262.477,197.360 261.560 C 197.507 260.643,197.548 259.815,197.453 259.720 C 197.358 259.624,197.154 260.290,197.000 261.200 M270.649 262.400 C 271.116 262.950,271.597 263.670,271.718 264.000 C 271.905 264.514,271.941 264.509,271.968 263.970 C 271.986 263.623,271.505 262.903,270.900 262.370 L 269.800 261.400 270.649 262.400 M101.600 262.333 C 101.930 262.536,102.650 262.824,103.200 262.971 C 103.895 263.157,104.017 263.125,103.600 262.867 C 103.270 262.664,102.550 262.376,102.000 262.229 C 101.305 262.043,101.183 262.075,101.600 262.333 M337.868 263.400 C 338.171 265.377,338.402 265.714,338.394 264.167 C 338.391 263.525,338.216 262.730,338.005 262.400 C 337.745 261.991,337.701 262.310,337.868 263.400 M213.876 263.210 C 213.730 263.755,213.627 264.650,213.646 265.200 C 213.671 265.918,213.784 265.757,214.049 264.627 C 214.455 262.895,214.300 261.625,213.876 263.210 M112.200 266.000 C 112.640 266.189,113.270 266.344,113.600 266.344 C 113.978 266.344,113.904 266.217,113.400 266.000 C 112.960 265.811,112.330 265.656,112.000 265.656 C 111.622 265.656,111.696 265.783,112.200 266.000 M263.632 266.022 C 263.614 266.363,264.275 267.263,265.100 268.022 L 266.600 269.400 265.349 268.000 C 264.661 267.230,264.000 266.330,263.881 266.000 C 263.692 265.481,263.659 265.484,263.632 266.022 M338.493 266.800 C 338.493 267.570,338.575 267.885,338.676 267.500 C 338.776 267.115,338.776 266.485,338.676 266.100 C 338.575 265.715,338.493 266.030,338.493 266.800 M83.400 266.996 C 84.294 267.739,86.828 269.109,86.200 268.510 C 85.980 268.300,85.080 267.724,84.200 267.230 C 83.320 266.735,82.960 266.630,83.400 266.996 M116.600 267.200 C 117.040 267.389,117.670 267.544,118.000 267.544 C 118.378 267.544,118.304 267.417,117.800 267.200 C 117.360 267.011,116.730 266.856,116.400 266.856 C 116.022 266.856,116.096 266.983,116.600 267.200 M195.918 269.565 C 195.759 271.239,195.410 272.690,195.118 272.896 C 194.714 273.181,194.728 273.226,195.182 273.103 C 195.951 272.895,196.470 270.780,196.320 268.465 C 196.214 266.824,196.166 266.957,195.918 269.565 M119.400 268.000 C 119.840 268.189,120.560 268.338,121.000 268.332 C 121.643 268.323,121.604 268.257,120.800 268.000 C 119.432 267.562,118.381 267.562,119.400 268.000 M124.800 269.200 C 126.168 269.638,127.219 269.638,126.200 269.200 C 125.760 269.011,125.040 268.862,124.600 268.868 C 123.957 268.877,123.996 268.943,124.800 269.200 M338.976 276.200 L 338.974 283.800 339.439 279.897 C 339.791 276.937,339.792 275.100,339.440 272.297 L 338.977 268.600 338.976 276.200 M130.400 270.400 C 130.950 270.576,131.850 270.717,132.400 270.713 C 133.298 270.706,133.278 270.674,132.200 270.400 C 130.508 269.969,129.056 269.969,130.400 270.400 M212.736 273.300 C 212.642 274.895,212.674 277.460,212.806 279.000 C 212.991 281.162,213.058 280.502,213.100 276.100 C 213.158 269.903,213.004 268.714,212.736 273.300 M268.032 271.630 C 268.014 271.977,268.495 272.697,269.100 273.230 L 270.200 274.200 269.351 273.200 C 268.884 272.650,268.403 271.930,268.282 271.600 C 268.095 271.086,268.059 271.091,268.032 271.630 M138.900 271.876 C 139.285 271.976,139.915 271.976,140.300 271.876 C 140.685 271.775,140.370 271.693,139.600 271.693 C 138.830 271.693,138.515 271.775,138.900 271.876 M145.105 272.683 C 145.602 272.779,146.322 272.775,146.705 272.675 C 147.087 272.575,146.680 272.496,145.800 272.501 C 144.920 272.505,144.607 272.587,145.105 272.683 M148.300 273.082 C 148.795 273.178,149.605 273.178,150.100 273.082 C 150.595 272.987,150.190 272.909,149.200 272.909 C 148.210 272.909,147.805 272.987,148.300 273.082 M153.907 273.490 C 154.626 273.579,155.706 273.577,156.307 273.486 C 156.908 273.395,156.320 273.322,155.000 273.324 C 153.680 273.326,153.188 273.401,153.907 273.490 M189.507 273.490 C 190.226 273.579,191.306 273.577,191.907 273.486 C 192.508 273.395,191.920 273.322,190.600 273.324 C 189.280 273.326,188.788 273.401,189.507 273.490 M159.312 273.895 C 160.364 273.977,161.984 273.976,162.912 273.892 C 163.840 273.808,162.980 273.741,161.000 273.742 C 159.020 273.743,158.260 273.812,159.312 273.895 M182.912 273.895 C 183.964 273.977,185.584 273.976,186.512 273.892 C 187.440 273.808,186.580 273.741,184.600 273.742 C 182.620 273.743,181.860 273.812,182.912 273.895 M171.100 274.293 C 172.035 274.377,173.565 274.377,174.500 274.293 C 175.435 274.209,174.670 274.140,172.800 274.140 C 170.930 274.140,170.165 274.209,171.100 274.293 M280.649 275.600 C 281.116 276.150,281.597 276.870,281.718 277.200 C 281.905 277.714,281.941 277.709,281.968 277.170 C 281.986 276.823,281.505 276.103,280.900 275.570 L 279.800 274.600 280.649 275.600 M101.600 275.933 C 101.930 276.136,102.650 276.424,103.200 276.571 C 103.895 276.757,104.017 276.725,103.600 276.467 C 103.270 276.264,102.550 275.976,102.000 275.829 C 101.305 275.643,101.183 275.675,101.600 275.933 M272.432 277.230 C 272.414 277.577,272.895 278.297,273.500 278.830 L 274.600 279.800 273.751 278.800 C 273.284 278.250,272.803 277.530,272.682 277.200 C 272.495 276.686,272.459 276.691,272.432 277.230 M107.200 277.933 C 107.530 278.136,108.250 278.424,108.800 278.571 C 109.495 278.757,109.617 278.725,109.200 278.467 C 108.870 278.264,108.150 277.976,107.600 277.829 C 106.905 277.643,106.783 277.675,107.200 277.933 M116.200 280.800 C 116.640 280.989,117.270 281.144,117.600 281.144 C 117.978 281.144,117.904 281.017,117.400 280.800 C 116.960 280.611,116.330 280.456,116.000 280.456 C 115.622 280.456,115.696 280.583,116.200 280.800 M285.049 281.200 C 285.516 281.750,285.997 282.470,286.118 282.800 C 286.305 283.314,286.341 283.309,286.368 282.770 C 286.386 282.423,285.905 281.703,285.300 281.170 L 284.200 280.200 285.049 281.200 M61.256 281.600 C 61.256 281.930,61.411 282.560,61.600 283.000 C 61.817 283.504,61.944 283.578,61.944 283.200 C 61.944 282.870,61.789 282.240,61.600 281.800 C 61.383 281.296,61.256 281.222,61.256 281.600 M124.400 282.800 C 125.942 283.294,126.764 283.294,126.000 282.800 C 125.670 282.587,124.950 282.427,124.400 282.446 L 123.400 282.480 124.400 282.800 M130.200 284.000 C 131.892 284.431,133.344 284.431,132.000 284.000 C 131.450 283.824,130.550 283.683,130.000 283.687 C 129.102 283.694,129.122 283.726,130.200 284.000 M338.229 286.500 C 338.079 287.655,337.871 289.050,337.768 289.600 C 337.600 290.501,337.618 290.518,337.954 289.765 C 338.380 288.809,338.991 284.400,338.698 284.400 C 338.591 284.400,338.380 285.345,338.229 286.500 M137.000 285.200 C 137.660 285.368,138.650 285.509,139.200 285.513 L 140.200 285.520 139.200 285.200 C 138.650 285.024,137.660 284.883,137.000 284.887 L 135.800 284.895 137.000 285.200 M142.600 285.989 C 143.816 286.309,147.473 286.522,147.167 286.255 C 147.075 286.175,145.740 286.011,144.200 285.891 C 142.502 285.759,141.872 285.798,142.600 285.989 M213.628 287.033 C 213.644 287.675,213.816 288.560,214.010 289.000 C 214.247 289.534,214.286 289.202,214.127 288.000 C 213.846 285.880,213.588 285.380,213.628 287.033 M148.100 286.676 C 148.485 286.776,149.115 286.776,149.500 286.676 C 149.885 286.575,149.570 286.493,148.800 286.493 C 148.030 286.493,147.715 286.575,148.100 286.676 M195.700 286.832 C 196.085 287.056,196.414 287.546,196.432 287.920 C 196.452 288.358,196.537 288.417,196.669 288.087 C 196.909 287.491,196.111 286.394,195.451 286.412 C 195.203 286.419,195.315 286.608,195.700 286.832 M152.033 286.953 C 152.125 287.037,154.360 287.200,157.000 287.315 C 160.353 287.460,161.016 287.429,159.200 287.209 C 156.396 286.869,151.761 286.703,152.033 286.953 M186.000 287.200 L 183.400 287.462 185.600 287.481 C 186.810 287.492,189.060 287.371,190.600 287.213 L 193.400 286.926 191.000 286.932 C 189.680 286.935,187.430 287.056,186.000 287.200 M280.799 288.300 C 281.322 289.015,281.813 289.600,281.889 289.600 C 282.193 289.600,281.201 288.100,280.545 287.567 C 280.113 287.216,280.210 287.496,280.799 288.300 M170.316 287.897 C 171.699 287.975,173.859 287.974,175.116 287.895 C 176.372 287.816,175.240 287.752,172.600 287.753 C 169.960 287.753,168.932 287.818,170.316 287.897 M64.400 289.600 C 64.849 290.480,65.306 291.200,65.416 291.200 C 65.526 291.200,65.249 290.480,64.800 289.600 C 64.351 288.720,63.894 288.000,63.784 288.000 C 63.674 288.000,63.951 288.720,64.400 289.600 M196.887 290.000 C 196.883 290.550,197.024 291.450,197.200 292.000 C 197.631 293.344,197.631 291.892,197.200 290.200 C 196.926 289.122,196.894 289.102,196.887 290.000 M337.049 291.815 C 336.912 292.173,336.815 292.766,336.834 293.133 C 336.853 293.500,337.027 293.269,337.221 292.620 C 337.598 291.358,337.465 290.733,337.049 291.815 M214.868 292.200 C 214.862 292.640,215.011 293.360,215.200 293.800 C 215.638 294.819,215.638 293.768,215.200 292.400 C 214.943 291.596,214.877 291.557,214.868 292.200 M284.399 293.001 C 285.168 293.880,285.955 294.780,286.148 295.000 C 286.340 295.220,286.311 295.040,286.083 294.600 C 285.855 294.160,285.068 293.260,284.334 292.601 L 283.000 291.402 284.399 293.001 M67.584 294.198 C 68.654 295.668,73.778 300.843,75.400 302.092 C 76.280 302.769,75.793 302.208,74.317 300.845 C 72.841 299.482,70.591 297.248,69.317 295.881 C 68.043 294.514,67.263 293.757,67.584 294.198 M197.680 293.800 C 197.680 294.240,197.824 295.050,198.000 295.600 C 198.254 296.392,198.320 296.433,198.320 295.800 C 198.320 295.360,198.176 294.550,198.000 294.000 C 197.746 293.208,197.680 293.167,197.680 293.800 M295.234 294.647 C 295.765 295.333,296.280 295.823,296.379 295.735 C 296.477 295.647,296.043 295.086,295.413 294.488 L 294.269 293.400 295.234 294.647 M287.600 297.325 C 287.600 297.394,288.185 297.979,288.900 298.625 L 290.200 299.800 289.025 298.500 C 287.930 297.288,287.600 297.016,287.600 297.325 M298.327 298.633 C 298.563 299.091,299.056 299.715,299.423 300.019 C 299.790 300.323,300.238 300.938,300.419 301.386 C 300.622 301.886,300.753 301.969,300.758 301.600 C 300.763 301.270,300.121 300.280,299.332 299.400 C 298.543 298.520,298.091 298.175,298.327 298.633 M217.018 299.300 C 217.168 299.795,217.455 300.376,217.656 300.591 C 217.857 300.806,217.819 300.401,217.572 299.691 C 217.065 298.238,216.597 297.908,217.018 299.300 M81.000 306.207 C 81.440 306.566,82.160 307.035,82.600 307.251 L 83.400 307.644 82.600 306.993 C 82.160 306.634,81.440 306.165,81.000 305.949 L 80.200 305.556 81.000 306.207 M330.882 307.227 C 330.384 308.092,330.057 308.800,330.155 308.800 C 330.431 308.800,332.112 305.979,331.939 305.806 C 331.855 305.722,331.380 306.362,330.882 307.227 M202.028 307.400 C 202.028 307.620,202.286 308.250,202.600 308.800 C 202.914 309.350,203.172 309.620,203.172 309.400 C 203.172 309.180,202.914 308.550,202.600 308.000 C 202.286 307.450,202.028 307.180,202.028 307.400 M307.700 310.638 C 308.085 311.092,308.400 311.652,308.400 311.883 C 308.400 312.113,308.665 312.522,308.989 312.791 C 309.503 313.217,309.502 313.126,308.981 312.082 C 308.652 311.423,308.072 310.643,307.692 310.349 C 307.050 309.852,307.051 309.873,307.700 310.638 M224.400 312.800 C 224.870 313.460,225.344 314.000,225.454 314.000 C 225.564 314.000,225.270 313.460,224.800 312.800 C 224.330 312.140,223.856 311.600,223.746 311.600 C 223.636 311.600,223.930 312.140,224.400 312.800 M226.694 315.800 C 227.372 316.680,228.523 317.940,229.253 318.600 C 230.024 319.297,229.761 318.877,228.627 317.600 C 225.900 314.529,225.252 313.926,226.694 315.800 M302.425 315.952 C 302.411 316.255,303.030 317.200,303.800 318.053 C 304.570 318.905,305.200 319.453,305.200 319.271 C 305.200 319.089,304.730 318.503,304.156 317.970 C 303.582 317.436,302.964 316.640,302.782 316.200 C 302.600 315.760,302.439 315.648,302.425 315.952 M324.175 316.900 L 323.000 318.200 324.300 317.025 C 325.015 316.379,325.600 315.794,325.600 315.725 C 325.600 315.416,325.270 315.688,324.175 316.900 M207.601 318.200 C 208.820 320.275,211.668 324.400,211.882 324.400 C 212.087 324.400,211.936 324.156,209.304 320.222 C 206.925 316.666,206.182 315.784,207.601 318.200 M313.451 318.400 C 314.139 319.170,314.800 320.070,314.919 320.400 C 315.108 320.919,315.141 320.916,315.168 320.378 C 315.186 320.037,314.525 319.137,313.700 318.378 L 312.200 317.000 313.451 318.400 M105.200 317.933 C 105.530 318.136,106.250 318.424,106.800 318.571 C 107.495 318.757,107.617 318.725,107.200 318.467 C 106.870 318.264,106.150 317.976,105.600 317.829 C 104.905 317.643,104.783 317.675,105.200 317.933 M320.587 320.900 L 318.200 323.400 320.700 321.013 C 322.075 319.699,323.200 318.574,323.200 318.513 C 323.200 318.217,322.805 318.578,320.587 320.900 M109.400 319.414 C 110.060 319.717,110.870 319.958,111.200 319.952 C 111.530 319.945,111.170 319.697,110.400 319.400 C 108.574 318.697,107.855 318.707,109.400 319.414 M112.600 320.400 C 113.040 320.589,113.670 320.744,114.000 320.744 C 114.378 320.744,114.304 320.617,113.800 320.400 C 113.360 320.211,112.730 320.056,112.400 320.056 C 112.022 320.056,112.096 320.183,112.600 320.400 M115.400 321.146 C 115.840 321.339,116.830 321.610,117.600 321.750 C 118.561 321.924,118.749 321.894,118.200 321.654 C 117.760 321.461,116.770 321.190,116.000 321.050 C 115.039 320.876,114.851 320.906,115.400 321.146 M233.400 322.747 C 234.060 323.477,235.320 324.628,236.200 325.306 C 238.074 326.748,237.471 326.100,234.400 323.373 C 233.123 322.239,232.703 321.976,233.400 322.747 M306.800 321.850 C 306.800 321.989,307.430 322.800,308.200 323.653 C 308.970 324.505,309.600 325.089,309.600 324.950 C 309.600 324.811,308.970 324.000,308.200 323.147 C 307.430 322.295,306.800 321.711,306.800 321.850 M120.000 322.356 C 120.330 322.544,121.320 322.808,122.200 322.942 C 123.209 323.097,123.505 323.064,123.000 322.854 C 121.829 322.366,119.274 321.942,120.000 322.356 M125.200 323.556 C 125.530 323.744,126.520 324.008,127.400 324.142 C 128.409 324.297,128.705 324.264,128.200 324.054 C 127.029 323.566,124.474 323.142,125.200 323.556 M130.800 324.780 C 131.799 325.120,134.282 325.332,133.967 325.051 C 133.875 324.969,132.900 324.799,131.800 324.672 C 130.451 324.516,130.126 324.551,130.800 324.780 M137.800 326.000 C 138.460 326.168,139.540 326.305,140.200 326.305 L 141.400 326.305 140.200 326.000 C 139.540 325.832,138.460 325.695,137.800 325.695 L 136.600 325.695 137.800 326.000 M205.200 326.013 C 204.554 326.229,204.980 326.266,206.400 326.119 C 207.610 325.994,208.675 325.826,208.767 325.746 C 209.087 325.465,206.191 325.683,205.200 326.013 M145.633 326.951 C 145.725 327.034,147.060 327.202,148.600 327.326 C 150.752 327.498,151.030 327.469,149.800 327.198 C 148.183 326.842,145.326 326.673,145.633 326.951 M195.200 327.217 C 194.335 327.409,194.946 327.446,196.800 327.312 C 198.450 327.193,199.875 327.029,199.967 326.948 C 200.258 326.690,196.657 326.893,195.200 327.217 M156.200 328.036 C 158.146 328.322,168.599 328.472,167.800 328.202 C 167.580 328.127,164.430 327.993,160.800 327.904 C 157.150 327.814,155.094 327.873,156.200 328.036 M188.700 327.882 C 189.195 327.978,190.005 327.978,190.500 327.882 C 190.995 327.787,190.590 327.709,189.600 327.709 C 188.610 327.709,188.205 327.787,188.700 327.882 M239.869 328.032 C 240.366 328.633,242.800 330.164,242.800 329.876 C 242.800 329.783,242.035 329.202,241.100 328.585 C 240.165 327.968,239.611 327.720,239.869 328.032 M180.300 328.296 C 181.675 328.374,183.925 328.374,185.300 328.296 C 186.675 328.218,185.550 328.154,182.800 328.154 C 180.050 328.154,178.925 328.218,180.300 328.296 M171.500 328.689 C 172.215 328.778,173.385 328.778,174.100 328.689 C 174.815 328.601,174.230 328.528,172.800 328.528 C 171.370 328.528,170.785 328.601,171.500 328.689 M298.600 335.014 C 297.600 335.496,297.566 335.551,298.400 335.348 C 299.533 335.071,300.807 334.421,300.200 334.430 C 299.980 334.433,299.260 334.696,298.600 335.014 M254.400 335.533 C 254.730 335.736,255.450 336.024,256.000 336.171 C 256.695 336.357,256.817 336.325,256.400 336.067 C 256.070 335.864,255.350 335.576,254.800 335.429 C 254.105 335.243,253.983 335.275,254.400 335.533 M259.200 337.200 C 260.568 337.638,261.619 337.638,260.600 337.200 C 260.160 337.011,259.440 336.862,259.000 336.868 C 258.357 336.877,258.396 336.943,259.200 337.200 M291.600 337.218 C 291.162 337.515,291.324 337.552,292.200 337.356 C 293.671 337.027,293.990 336.798,292.967 336.806 C 292.545 336.809,291.930 336.995,291.600 337.218 M262.400 338.005 C 262.730 338.216,263.525 338.391,264.167 338.394 C 265.714 338.402,265.377 338.171,263.400 337.868 C 262.310 337.701,261.991 337.745,262.400 338.005 M286.800 338.229 L 284.200 338.760 286.565 338.543 C 287.866 338.424,289.306 338.174,289.765 337.988 C 290.930 337.517,289.856 337.605,286.800 338.229 M272.000 339.468 C 275.174 339.876,282.808 339.588,283.484 339.034 C 283.530 338.997,280.110 338.969,275.884 338.973 L 268.200 338.980 272.000 339.468 " stroke="none" fill="#fedc85" fill-rule="evenodd"></path></g></svg>