<?xml version="1.0" encoding="utf-8"?>
<!-- Generator: Adobe Illustrator 19.1.0, SVG Export Plug-In . SVG Version: 6.00 Build 0)  -->
<svg version="1.1" id="Livello_1" xmlns="http://www.w3.org/2000/svg" xmlns:xlink="http://www.w3.org/1999/xlink" x="0px" y="0px"
	 viewBox="0 0 200 74" style="enable-background:new 0 0 200 74;" xml:space="preserve">
<style type="text/css">
	.st0{fill:#093A80;}
	.st1{fill:#0082C4;}
</style>
<g>
	<g>
		<path class="st0" d="M17.1,67.5l0.6-0.8c-0.7-0.1-1.3-0.3-2-0.5c-0.6-0.3-1.2-0.6-1.8-1.1c-0.3,0.3-0.7,0.5-1,0.8
			c-0.3,0.2-0.7,0.5-1,0.6c-0.7,0.4-1.4,0.6-2.1,0.8c-0.7,0.2-1.4,0.3-2.1,0.3c-0.2,0-0.4,0-0.6,0c-0.2,0-0.4,0-0.6-0.1
			c-0.7-0.1-1.3-0.4-1.8-0.8c-0.5-0.4-0.8-1-0.8-1.8v0v0c0-0.3,0.1-0.6,0.4-0.8c0.2-0.3,0.5-0.4,0.8-0.4c0.2,0,0.4,0.1,0.6,0.3
			c0.2,0.2,0.3,0.4,0.3,0.7c0,0.2-0.1,0.4-0.2,0.6c-0.2,0.2-0.3,0.3-0.5,0.3c-0.2,0-0.4-0.1-0.5-0.2c-0.1-0.1-0.2-0.3-0.2-0.4
			c0-0.1,0-0.1,0-0.2c0,0,0-0.1,0-0.1l0-0.1c-0.1,0.1-0.2,0.2-0.2,0.3c0,0.1-0.1,0.2-0.1,0.4c0,0.5,0.3,1,1,1.5
			c0.7,0.4,1.5,0.7,2.4,0.7c1.1,0,2.2-0.2,3.2-0.7c1-0.5,2-1.1,2.8-1.7c-0.7-0.7-1.2-1.4-1.7-2.3c-0.5-0.8-0.7-1.8-0.7-2.9
			c0-1.1,0.3-2,0.9-2.8c0.6-0.8,1.4-1.2,2.3-1.2c1.1,0,2.1,0.4,2.9,1.3c0.8,0.9,1.3,1.9,1.6,3.1c0.9-0.8,1.8-1.7,2.7-2.4
			c0.9-0.8,1.7-1.5,2.5-2.1c1.3-1,2.7-1.9,4.1-2.6c1.4-0.7,2.9-1.1,4.6-1.1c-0.7,0.5-1.3,1.1-2,1.7c-0.7,0.6-1.4,1.2-2,1.9
			c-0.8,0.8-1.7,1.7-2.5,2.6c-0.8,0.9-1.6,1.8-2.4,2.7c-0.9,1-1.7,2-2.5,3c-0.8,1-1.5,1.9-2.2,2.8c0.5,0,1-0.1,1.5-0.3
			c0.5-0.2,1.1-0.5,1.6-1l0.2-0.2l0.1,0.2l-0.1,0.1c-0.2,0.2-0.4,0.4-0.6,0.5c-0.2,0.1-0.4,0.3-0.6,0.4c-0.4,0.2-0.7,0.3-1.1,0.4
			c-0.4,0.1-0.7,0.2-1.1,0.2l-0.5,0.7H17.1z M14.6,56.3c0,0-0.1,0-0.1,0c-0.7,0.1-1.4,0.4-2,1.1c-0.6,0.7-0.9,1.5-0.9,2.4
			c0,0.9,0.2,1.7,0.6,2.6c0.4,0.8,1,1.6,1.7,2.3c0.4-0.3,0.8-0.6,1.3-1c0.5-0.4,1-0.8,1.5-1.3c0.1-0.1,0.3-0.3,0.4-0.4
			c0.1-0.1,0.3-0.3,0.4-0.4c0.2-0.2,0.4-0.4,0.6-0.6c0.2-0.2,0.4-0.4,0.6-0.6c-0.2-1.1-0.7-2-1.4-2.9c-0.7-0.8-1.6-1.2-2.7-1.2H14.6
			z M19,62.5c0-0.4,0-0.7,0-1c0-0.3,0-0.5-0.1-0.8c-0.2,0.2-0.4,0.4-0.6,0.6c-0.2,0.2-0.4,0.4-0.7,0.6c-0.1,0.1-0.3,0.2-0.4,0.4
			c-0.1,0.1-0.3,0.2-0.4,0.4c-0.5,0.4-1,0.8-1.4,1.2c-0.5,0.4-0.9,0.7-1.2,1c0.4,0.4,0.9,0.7,1.5,0.9c0.6,0.2,1.2,0.4,1.8,0.5
			c0.1,0,0.2,0,0.2,0c0.1,0,0.2,0,0.2,0c0.4-0.7,0.7-1.4,0.9-2.1C18.9,63.7,19,63.1,19,62.5L19,62.5z M19.3,62.3c0,0.3,0,0.6,0,0.9
			c0,0.3-0.1,0.7-0.2,1c0,0.2-0.1,0.4-0.2,0.5c-0.1,0.2-0.1,0.3-0.2,0.5l0,0c1.9-2.4,4-4.8,6.1-7.1c2.2-2.3,4.6-4.3,7.1-6l0-0.1
			c-2,0.3-3.9,1.1-5.6,2.3c-1.8,1.3-3.5,2.6-5.1,4.1c-0.4,0.3-0.7,0.7-1.1,1c-0.4,0.3-0.7,0.6-1,1c0,0,0,0.1,0,0.1
			c0,0.1,0,0.1,0,0.2c0,0.2,0.1,0.4,0.1,0.7C19.3,61.7,19.3,62,19.3,62.3L19.3,62.3z"/>
		<path class="st0" d="M29.3,63.1l-5,5.2l0,0c0.3-0.1,0.7-0.3,1.1-0.5c0.4-0.2,0.8-0.4,1.2-0.6c0.5-0.3,0.9-0.5,1.4-0.8
			c0.4-0.3,0.9-0.6,1.2-0.9c0,0,0.1-0.1,0.1-0.1c0,0,0.1-0.1,0.1-0.1l0.2-0.2l0.1,0.2l-0.1,0.1c-1.2,1-2.2,1.7-3.2,2.2
			c-0.9,0.5-1.8,0.8-2.5,1.1c-0.2,0.2-0.5,0.5-0.8,0.8c-0.3,0.3-0.7,0.6-1,1c-0.2,0.2-0.4,0.4-0.6,0.5c-0.2,0.2-0.4,0.4-0.6,0.5
			c-0.5,0.4-1,0.8-1.5,1.1C18.8,72.9,18.3,73,18,73c-0.2,0-0.3,0-0.4-0.1c-0.1-0.1-0.2-0.2-0.2-0.5c0-0.1,0-0.3,0.1-0.4
			c0.1-0.1,0.1-0.3,0.3-0.4c0.3-0.3,0.6-0.6,1.1-0.9c0.5-0.3,1-0.6,1.5-0.9c0.5-0.3,1-0.5,1.5-0.7c0.5-0.2,0.9-0.3,1.1-0.4l2-2.2
			l0,0c-0.1,0.1-0.2,0.1-0.3,0.2c-0.1,0.1-0.2,0.1-0.3,0.2c-0.1,0.1-0.2,0.1-0.4,0.2c-0.1,0.1-0.2,0.1-0.4,0.2
			c-0.2,0.1-0.3,0.1-0.5,0.2c-0.2,0-0.3,0.1-0.4,0.1c-0.3,0-0.6-0.1-0.7-0.2c-0.2-0.2-0.3-0.4-0.3-0.7c0-0.8,0.3-1.5,1-2.1
			c0.7-0.6,1.4-1,2.2-1.3c0.3-0.1,0.6-0.2,1-0.2c0.3-0.1,0.6-0.1,0.9-0.1c0.2,0,0.4,0,0.5,0.1c0.1,0.1,0.2,0.2,0.2,0.4v0.2
			c0,0.1,0,0.1,0,0.2l0,0l0.7-0.7H29.3z M22.7,69c-0.2,0.1-0.6,0.2-1,0.4c-0.5,0.2-0.9,0.4-1.4,0.6c-0.5,0.2-0.9,0.5-1.3,0.8
			c-0.4,0.3-0.8,0.5-1,0.8c-0.1,0.1-0.2,0.3-0.3,0.4c-0.1,0.1-0.1,0.3-0.1,0.4c0,0.1,0,0.2,0.1,0.3c0.1,0.1,0.2,0.1,0.3,0.1
			c0.6,0,1.3-0.4,2.1-1.2C20.9,70.9,21.7,70,22.7,69L22.7,69z M22.7,67.5c0.2,0,0.5-0.1,0.9-0.3c0.4-0.2,0.8-0.5,1.2-0.8
			c0.2-0.1,0.4-0.3,0.6-0.5c0.2-0.2,0.4-0.3,0.6-0.5c0.4-0.3,0.7-0.7,0.9-1c0.2-0.3,0.4-0.6,0.4-0.8c0-0.1-0.1-0.2-0.2-0.3
			c-0.1-0.1-0.3-0.1-0.4-0.1c-0.2,0-0.5,0.1-0.9,0.3c-0.4,0.2-0.8,0.5-1.2,0.8c-0.2,0.2-0.4,0.3-0.5,0.5c-0.2,0.2-0.4,0.3-0.5,0.5
			c-0.4,0.4-0.7,0.7-1,1c-0.3,0.3-0.4,0.6-0.4,0.8c0,0.1,0,0.2,0.1,0.3c0.1,0.1,0.1,0.1,0.2,0.2c0,0,0.1,0,0.1,0
			C22.7,67.5,22.7,67.5,22.7,67.5L22.7,67.5z"/>
		<path class="st0" d="M34.1,65.3L34,65.4c-0.9,0.8-1.7,1.3-2.4,1.7c-0.7,0.4-1.3,0.6-1.8,0.6c-0.3,0-0.6-0.1-0.7-0.3
			c-0.2-0.2-0.2-0.4-0.2-0.7c0-0.1,0-0.2,0-0.3c0-0.1,0.1-0.2,0.1-0.3c0.2-0.5,0.5-0.9,1-1.3c0.5-0.4,1-0.8,1.5-1.1
			c0.3-0.2,0.6-0.3,1-0.4c0.3-0.1,0.6-0.2,0.8-0.2c0.2,0,0.3,0.1,0.4,0.2c0.1,0.1,0.1,0.2,0.1,0.3c0,0.1,0,0.2-0.1,0.3
			c0,0.1-0.1,0.2-0.2,0.3c-0.2,0.3-0.6,0.5-1.2,0.8c-0.5,0.3-1.3,0.5-2.2,0.6c0,0-0.1,0.1-0.1,0.1c0,0-0.1,0.1-0.2,0.2
			c-0.1,0.1-0.2,0.2-0.3,0.4c-0.1,0.1-0.2,0.3-0.2,0.4c0,0.1,0,0.1,0,0.2c0,0.1,0,0.1,0,0.2c0,0.1,0.1,0.3,0.2,0.4
			c0.1,0.1,0.2,0.2,0.4,0.2c0.4,0,1-0.2,1.7-0.6c0.7-0.4,1.5-1,2.3-1.6l0.2-0.2L34.1,65.3z M33.3,63.1c-0.3,0-0.6,0.2-1,0.5
			c-0.4,0.3-1,0.8-1.9,1.6l0,0c0.1,0,0.3,0,0.5-0.1c0.2,0,0.3-0.1,0.5-0.1c0.5-0.2,1-0.4,1.5-0.6c0.5-0.3,0.7-0.6,0.7-0.9
			c0-0.1,0-0.2-0.1-0.2C33.5,63.2,33.4,63.2,33.3,63.1L33.3,63.1L33.3,63.1z"/>
		<path class="st0" d="M35.8,65.2c0.1,0,0.1-0.1,0.2-0.1C36,65,36,65,36.1,64.9c0,0,0,0,0,0c0,0,0,0,0,0c0.3-0.3,0.5-0.6,0.8-0.8
			c0.2-0.3,0.3-0.5,0.3-0.6c0-0.1,0-0.1,0-0.2c0-0.1-0.1-0.1-0.2-0.1c-0.2,0-0.5,0.2-0.9,0.5c-0.4,0.3-1.1,0.9-2,1.6L34,65.3
			l-0.1-0.1l0.2-0.1c0.9-0.8,1.6-1.3,2.1-1.6c0.5-0.3,0.8-0.5,1-0.5c0.2,0,0.4,0.1,0.5,0.2c0.1,0.1,0.2,0.3,0.2,0.4
			c0,0.2-0.1,0.5-0.2,0.7c-0.1,0.2-0.3,0.5-0.5,0.8l0,0c0.1-0.1,0.3-0.2,0.4-0.4c0.2-0.1,0.3-0.3,0.5-0.4c0.1-0.1,0.3-0.2,0.4-0.3
			c0.1-0.1,0.3-0.2,0.4-0.3c0.3-0.2,0.6-0.4,0.8-0.5C40,63,40.2,63,40.4,63c0.3,0,0.5,0.1,0.6,0.2c0.2,0.1,0.2,0.3,0.2,0.5
			c0,0.3-0.1,0.7-0.4,1c-0.3,0.3-0.6,0.6-0.9,0.9c-0.3,0.3-0.7,0.6-0.9,0.8c-0.3,0.3-0.4,0.5-0.4,0.7c0,0.1,0,0.2,0.1,0.2
			c0.1,0.1,0.1,0.1,0.2,0.1c0.2,0,0.4-0.1,0.8-0.4c0.4-0.2,0.7-0.5,1.1-0.8c0.1,0,0.1-0.1,0.2-0.1c0.1-0.1,0.1-0.1,0.2-0.1
			c0.2-0.1,0.3-0.3,0.5-0.4c0.2-0.1,0.3-0.3,0.4-0.4l0.2-0.2l0.1,0.2l-0.1,0.1c-0.8,0.6-1.4,1.2-2,1.6c-0.6,0.4-1,0.7-1.3,0.7
			c-0.2,0-0.3-0.1-0.5-0.2c-0.1-0.1-0.2-0.3-0.2-0.4c0-0.4,0.1-0.8,0.4-1.2c0.3-0.4,0.6-0.7,0.9-1c0.3-0.3,0.6-0.6,0.9-0.8
			c0.3-0.2,0.4-0.4,0.4-0.6c0-0.1,0-0.1-0.1-0.2c-0.1-0.1-0.2-0.1-0.2-0.1c-0.3,0-0.6,0.1-1,0.4c-0.4,0.2-0.8,0.5-1.2,0.9
			c-0.1,0.1-0.3,0.2-0.4,0.3c-0.1,0.1-0.3,0.2-0.4,0.3c-0.4,0.3-0.7,0.6-1,0.9c-0.3,0.3-0.6,0.5-0.8,0.7c-0.1,0.1-0.3,0.3-0.4,0.4
			c-0.1,0.1-0.3,0.3-0.5,0.5h-1.2L35.8,65.2z"/>
		<path class="st0" d="M42.1,65.2l0.2-0.1c0.7-0.6,1.3-1.1,1.8-1.5c0.5-0.4,0.9-0.6,1.1-0.6c0.2,0,0.4,0.1,0.5,0.2
			c0.1,0.1,0.2,0.3,0.2,0.4c0,0.2,0,0.3-0.1,0.4c-0.1,0.1-0.2,0.2-0.3,0.3c-0.1,0.1-0.2,0.1-0.3,0.2c-0.1,0-0.1,0.1-0.1,0.1
			c0,0,0,0.1,0.1,0.1c0.1,0,0.1,0.1,0.2,0.1c0.1,0,0.3,0,0.5-0.1c0.2-0.1,0.3-0.2,0.5-0.3c0.1-0.1,0.2-0.2,0.2-0.2
			c0.1-0.1,0.2-0.2,0.2-0.2c0.2-0.2,0.4-0.4,0.7-0.6c0.2-0.2,0.4-0.3,0.6-0.3h0h0c0,0,0.1,0,0.1,0.1c0,0,0.1,0.1,0.1,0.2
			c0,0.1-0.1,0.2-0.1,0.3c-0.1,0.1-0.2,0.2-0.4,0.3c-0.1,0.1-0.2,0.1-0.3,0.2c-0.1,0.1-0.2,0.1-0.3,0.2c-0.2,0.1-0.4,0.3-0.6,0.3
			c-0.2,0.1-0.3,0.2-0.4,0.2l-1.3,1.3h0c0,0,0.1,0,0.1-0.1c0,0,0.1,0,0.1-0.1c0.1,0,0.2-0.1,0.2-0.1c0.1,0,0.2-0.1,0.3-0.1
			c0.1,0,0.2-0.1,0.3-0.1c0.1,0,0.2,0,0.2,0c0.2,0,0.3,0,0.5,0.1c0.1,0.1,0.2,0.2,0.2,0.5c0,0.2-0.1,0.3-0.2,0.5
			c-0.1,0.1-0.2,0.2-0.3,0.3c-0.1,0-0.1,0.1-0.2,0.1c-0.1,0-0.1,0.1-0.2,0.1c0,0-0.1,0.1-0.1,0.1c0,0,0,0.1,0,0.1
			c0,0.1,0,0.1,0.1,0.2c0.1,0,0.2,0.1,0.2,0.1c0.1,0,0.5-0.2,1.1-0.7c0.6-0.4,1.2-1,2-1.6l0.2-0.2l0.1,0.2l-0.1,0.1
			c-1.2,1-1.9,1.6-2.3,1.9c-0.4,0.3-0.6,0.4-0.8,0.4h0h0c-0.2,0-0.4,0-0.5-0.1c-0.2-0.1-0.2-0.3-0.2-0.5c0-0.2,0-0.4,0.1-0.5
			c0.1-0.1,0.2-0.2,0.3-0.3c0.1,0,0.1-0.1,0.2-0.1c0.1,0,0.1-0.1,0.1-0.1c0,0,0.1,0,0.1-0.1c0,0,0-0.1,0-0.1c0-0.1,0-0.1-0.1-0.1
			c0,0-0.1-0.1-0.2-0.1c-0.1,0-0.2,0-0.4,0.1c-0.2,0.1-0.3,0.1-0.5,0.2c-0.1,0-0.2,0.1-0.3,0.1c-0.1,0-0.2,0.1-0.2,0.1
			c0,0-0.1,0.1-0.1,0.1c0,0-0.1,0-0.1,0.1c-0.4,0.5-0.8,0.8-1.1,1c-0.3,0.2-0.5,0.3-0.7,0.3c-0.1,0-0.1,0-0.2-0.1
			c0,0-0.1-0.1-0.1-0.2c0-0.1,0.1-0.2,0.3-0.3c0.2-0.1,0.4-0.3,0.6-0.4c0.1-0.1,0.3-0.2,0.5-0.3c0.2-0.1,0.3-0.2,0.5-0.2l1.4-1.4h0
			c0,0,0,0,0,0c0,0,0,0,0,0c-0.1,0-0.1,0-0.2,0c-0.1,0-0.1,0-0.2,0c-0.1,0-0.3-0.1-0.4-0.2c-0.1-0.1-0.2-0.2-0.2-0.4
			c0-0.2,0-0.3,0.1-0.4c0.1-0.1,0.1-0.2,0.2-0.2c0.1-0.1,0.2-0.1,0.2-0.2c0.1,0,0.1-0.1,0.1-0.1c0-0.1,0-0.1-0.1-0.1
			c0,0-0.1,0-0.2,0c-0.1,0-0.4,0.2-0.9,0.5c-0.4,0.3-1.1,0.8-1.8,1.5l-0.1,0.1L42.1,65.2z"/>
		<path class="st0" d="M51.7,63.1h1.1l-1.8,2.1c-0.6,0.7-1,1.2-1.2,1.5c-0.2,0.2-0.3,0.5-0.3,0.6v0c0,0.1,0,0.1,0.1,0.1
			c0.1,0,0.1,0.1,0.2,0.1h0c0.2,0,0.6-0.2,1.1-0.5c0.5-0.3,1.3-0.9,2.3-1.8l0.2-0.2l0.1,0.2l-0.1,0.1c-1,0.8-1.7,1.4-2.3,1.8
			c-0.5,0.3-0.9,0.5-1.3,0.5c-0.2,0-0.4,0-0.5-0.1c-0.1-0.1-0.2-0.2-0.2-0.5v0v0c0-0.4,0.2-0.8,0.6-1.3c0.4-0.5,0.9-1.1,1.7-2l0-0.1
			c-0.1,0.1-0.2,0.2-0.3,0.3c-0.1,0.1-0.2,0.2-0.3,0.3c-0.2,0.2-0.4,0.4-0.6,0.5c-0.2,0.2-0.4,0.3-0.6,0.5l-0.1,0.1l-0.1-0.1
			l0.2-0.1c0.3-0.3,0.7-0.6,1.1-0.9C50.9,63.8,51.3,63.5,51.7,63.1L51.7,63.1z M53.9,61.9l-0.6-0.7l0.8-0.8l0.6,0.8L53.9,61.9z"/>
		<path class="st0" d="M60,63.1c-0.1,0.1-0.3,0.3-0.6,0.7c-0.3,0.3-0.7,0.7-1.1,1.1c-0.1,0.1-0.1,0.1-0.2,0.2
			c-0.1,0.1-0.1,0.1-0.1,0.2c-0.4,0.4-0.7,0.8-1,1.2c-0.3,0.4-0.4,0.7-0.4,0.8c0,0.1,0,0.1,0.1,0.2c0,0,0.1,0.1,0.2,0.1
			c0.2,0,0.6-0.2,1.1-0.7c0.6-0.5,1.2-1,1.9-1.5l0.2-0.2l0.1,0.2l-0.1,0.1c-1.2,1-2,1.6-2.3,1.9c-0.3,0.3-0.6,0.4-0.8,0.4h-0.1h-0.1
			c-0.2,0-0.4-0.1-0.5-0.2c-0.1-0.1-0.1-0.2-0.1-0.4c0-0.2,0-0.4,0.1-0.6c0.1-0.2,0.2-0.4,0.2-0.5l0,0c-0.6,0.5-1.1,1-1.6,1.3
			c-0.5,0.3-0.9,0.4-1.3,0.4c-0.3,0-0.6-0.1-0.7-0.3c-0.1-0.2-0.2-0.4-0.2-0.8c0-0.6,0.3-1.2,0.9-1.8c0.6-0.6,1.2-1,1.9-1.3
			c0.4-0.2,0.7-0.3,1-0.4C56.7,63,57,63,57.3,63c0.4,0,0.6,0.1,0.7,0.3c0.1,0.2,0.1,0.4,0.1,0.7l0,0l0.7-0.8H60z M57.4,63.1
			c-0.2,0-0.5,0.1-0.9,0.3c-0.3,0.2-0.7,0.4-1,0.7c-0.2,0.2-0.4,0.3-0.6,0.5c-0.2,0.2-0.4,0.4-0.6,0.6c-0.4,0.4-0.7,0.7-0.9,1.1
			c-0.2,0.3-0.4,0.6-0.4,0.8c0,0.1,0,0.2,0.1,0.3c0.1,0.1,0.2,0.1,0.4,0.1c0.3,0,0.7-0.2,1.3-0.5c0.5-0.3,1.1-0.8,1.7-1.3
			c0.5-0.5,0.9-0.9,1.1-1.2c0.2-0.3,0.3-0.6,0.3-0.8c0-0.2-0.1-0.3-0.2-0.4C57.7,63.2,57.5,63.2,57.4,63.1L57.4,63.1z"/>
		<path class="st0" d="M77.2,55.3l0.1,0.1c-0.4,0.4-0.8,0.7-1.1,1c-0.4,0.3-0.7,0.5-1.1,0.8c-0.4,0.2-0.7,0.4-1.1,0.5
			c-0.4,0.1-0.7,0.2-1.1,0.2c-0.6,0-1.2-0.2-1.7-0.5c-0.5-0.4-0.8-0.9-0.8-1.5c0-1,0.5-1.8,1.4-2.4c1-0.6,2-0.9,3.1-1
			c0.1,0,0.2,0,0.3,0c0.1,0,0.2,0,0.3,0c0.9,0,1.6,0.1,2.2,0.4c0.6,0.3,0.9,0.6,1.1,0.9c0,0.1,0.1,0.1,0.1,0.2c0,0.1,0,0.1,0,0.2
			c0,0.1,0,0.2,0,0.3c0,0.1-0.1,0.2-0.1,0.2c0,0.1-0.1,0.1-0.1,0.2c0,0.1,0,0.1,0,0.1c0,0.1,0.1,0.2,0.2,0.2
			c0.1,0.1,0.4,0.1,0.8,0.1c0.1,0,0.3,0,0.5,0c0.2,0,0.4,0,0.5-0.1c0.2-0.2,0.4-0.3,0.7-0.6c0.3-0.2,0.5-0.4,0.8-0.6
			c0.2-0.1,0.4-0.3,0.6-0.4c0.2-0.1,0.4-0.3,0.6-0.4c0.4-0.3,0.9-0.5,1.3-0.7c0.4-0.2,0.8-0.3,1.1-0.3c0.3,0,0.4,0.1,0.6,0.2
			c0.1,0.1,0.2,0.3,0.2,0.4c0,0.1,0,0.2,0,0.2c0,0.1-0.1,0.2-0.2,0.2c-0.3,0.4-1,0.8-2,1.2c-1,0.4-2.2,0.7-3.5,1c0,0,0,0-0.1,0
			c0,0,0,0-0.1,0C80.4,56,80,56.5,79.6,57c-0.4,0.6-0.9,1.2-1.3,1.8c-0.5,0.7-0.9,1.4-1.2,2c-0.4,0.6-0.7,1.1-0.9,1.5
			c-1,1.4-2.3,2.6-3.8,3.7c-1.5,1.1-3.3,1.6-5.3,1.6c-1.1,0-2-0.2-2.8-0.5c-0.7-0.4-1.1-0.8-1.1-1.4c0-0.3,0.1-0.5,0.3-0.8
			c0.2-0.2,0.4-0.3,0.7-0.3c0.2,0,0.4,0.1,0.5,0.2c0.1,0.1,0.2,0.3,0.2,0.6v0.1v0.1c0,0.2-0.1,0.3-0.2,0.4c-0.1,0.1-0.3,0.2-0.4,0.2
			c-0.1,0-0.2,0-0.3-0.1c-0.1-0.1-0.1-0.1-0.2-0.2c0,0,0,0-0.1-0.1c0,0,0-0.1,0-0.1c0,0-0.1,0-0.1,0.1c0,0,0,0.1,0,0.1
			c0,0,0,0,0,0.1V66c0,0.4,0.3,0.6,0.8,0.9c0.5,0.2,1.1,0.4,1.7,0.5c0.1,0,0.2,0,0.3,0c0.1,0,0.2,0,0.3,0c1.8,0,3.3-0.5,4.6-1.6
			c1.3-1,2.4-2.3,3.5-3.7c0.3-0.4,0.6-0.8,1-1.3c0.4-0.5,0.7-1,1.1-1.4c0.3-0.3,0.5-0.6,0.8-0.9c0.3-0.3,0.5-0.6,0.8-0.9
			c0.3-0.4,0.7-0.7,1-1c0.3-0.3,0.7-0.6,1-0.9l0-0.1c-0.1,0-0.2,0-0.3,0.1c-0.1,0-0.2,0-0.4,0c-0.5,0-1-0.1-1.3-0.3
			c-0.3-0.2-0.5-0.4-0.5-0.6c0-0.1,0-0.2,0.1-0.3c0-0.1,0.1-0.2,0.2-0.3c0,0,0,0,0-0.1c0,0,0,0,0-0.1c0-0.1,0.1-0.1,0.1-0.2
			c0-0.1,0-0.1,0-0.2c0,0,0-0.1,0-0.1c0,0,0,0,0-0.1c-0.1-0.2-0.4-0.4-0.9-0.6c-0.5-0.2-1.1-0.2-1.7-0.2c-1.5,0-2.6,0.3-3.6,1
			c-0.9,0.6-1.4,1.4-1.4,2.2c0,0.5,0.2,0.9,0.6,1.2c0.4,0.3,0.9,0.5,1.5,0.5c0.4,0,0.9-0.1,1.3-0.2c0.5-0.2,0.9-0.4,1.4-0.7
			c0.3-0.2,0.5-0.4,0.8-0.6C76.7,55.8,76.9,55.6,77.2,55.3L77.2,55.3z M86.3,52.8c0-0.1,0-0.2-0.1-0.2c-0.1-0.1-0.2-0.1-0.3-0.1
			c-0.5,0-1.2,0.2-1.9,0.7c-0.8,0.5-1.7,1.1-2.6,1.9v0c0.7-0.1,1.3-0.3,1.8-0.5c0.6-0.2,1.1-0.4,1.5-0.6c0.5-0.2,0.9-0.4,1.2-0.7
			C86.2,53.2,86.3,53,86.3,52.8L86.3,52.8z"/>
		<path class="st0" d="M79.3,61.7h1.3l1.9-2h1.2l-1.8,2h1.6l-0.1,0.2h-1.6l-2.6,2.8c-0.9,1-1.5,1.7-1.8,1.9
			c-0.2,0.3-0.4,0.5-0.4,0.6v0c0,0.1,0,0.2,0.1,0.2c0.1,0,0.2,0.1,0.3,0.1c0.3,0,0.6-0.2,1.1-0.5c0.5-0.3,1-0.7,1.5-1.1
			c0.1-0.1,0.2-0.2,0.3-0.2c0.1-0.1,0.2-0.2,0.3-0.2c0,0,0.1-0.1,0.1-0.1c0,0,0.1-0.1,0.1-0.1l0.2-0.2l0.1,0.2l-0.1,0.1
			c-1.1,0.9-1.9,1.6-2.4,1.9c-0.5,0.3-0.9,0.4-1.2,0.4c-0.2,0-0.4-0.1-0.6-0.2c-0.2-0.1-0.2-0.3-0.2-0.6c0-0.4,0.3-1,0.8-1.6
			c0.5-0.6,1.7-1.7,3.3-3.3l0-0.1c-0.2,0.2-0.4,0.4-0.7,0.6c-0.2,0.2-0.4,0.4-0.7,0.5c-0.2,0.2-0.4,0.4-0.7,0.6
			c-0.2,0.2-0.4,0.4-0.7,0.5c-0.2,0.2-0.4,0.4-0.7,0.5c-0.2,0.2-0.4,0.4-0.7,0.5l-0.1,0.1l-0.1-0.1l0.2-0.1c0.4-0.3,0.7-0.6,1.1-0.9
			c0.4-0.3,0.8-0.6,1.1-0.9c0,0,0,0,0.1,0c0,0,0,0,0.1,0c0.3-0.2,0.5-0.4,0.8-0.6c0.3-0.2,0.5-0.4,0.8-0.6v-0.1h-1.1L79.3,61.7z"/>
		<path class="st0" d="M87.5,63.1c-0.1,0.1-0.3,0.3-0.6,0.7c-0.3,0.3-0.7,0.7-1.1,1.1c-0.1,0.1-0.1,0.1-0.2,0.2
			c-0.1,0.1-0.1,0.1-0.1,0.2c-0.4,0.4-0.7,0.8-1,1.2c-0.3,0.4-0.4,0.7-0.4,0.8c0,0.1,0,0.1,0.1,0.2c0,0,0.1,0.1,0.2,0.1
			c0.2,0,0.6-0.2,1.1-0.7c0.6-0.5,1.2-1,1.9-1.5l0.2-0.2l0.1,0.2l-0.1,0.1c-1.2,1-2,1.6-2.3,1.9c-0.3,0.3-0.6,0.4-0.8,0.4h-0.1h-0.1
			c-0.2,0-0.4-0.1-0.5-0.2c-0.1-0.1-0.1-0.2-0.1-0.4c0-0.2,0-0.4,0.1-0.6c0.1-0.2,0.2-0.4,0.2-0.5l0,0c-0.6,0.5-1.1,1-1.6,1.3
			c-0.5,0.3-0.9,0.4-1.3,0.4c-0.3,0-0.6-0.1-0.7-0.3c-0.1-0.2-0.2-0.4-0.2-0.8c0-0.6,0.3-1.2,0.9-1.8c0.6-0.6,1.2-1,1.9-1.3
			c0.4-0.2,0.7-0.3,1-0.4c0.3-0.1,0.6-0.1,0.9-0.1c0.4,0,0.6,0.1,0.7,0.3c0.1,0.2,0.1,0.4,0.1,0.7l0,0l0.7-0.8H87.5z M84.9,63.1
			c-0.2,0-0.5,0.1-0.9,0.3c-0.3,0.2-0.7,0.4-1,0.7c-0.2,0.2-0.4,0.3-0.6,0.5c-0.2,0.2-0.4,0.4-0.6,0.6c-0.4,0.4-0.6,0.7-0.9,1.1
			c-0.2,0.3-0.4,0.6-0.4,0.8c0,0.1,0,0.2,0.1,0.3c0.1,0.1,0.2,0.1,0.4,0.1c0.3,0,0.7-0.2,1.3-0.5c0.5-0.3,1.1-0.8,1.7-1.3
			c0.5-0.5,0.9-0.9,1.1-1.2c0.2-0.3,0.3-0.6,0.3-0.8c0-0.2-0.1-0.3-0.2-0.4C85.2,63.2,85.1,63.2,84.9,63.1L84.9,63.1z"/>
		<path class="st0" d="M87.5,66.8c0-0.4,0.2-0.8,0.5-1.3c0.3-0.5,0.7-1,1.1-1.5l0-0.1c-0.2,0.2-0.4,0.4-0.6,0.6
			c-0.2,0.2-0.5,0.4-0.8,0.7l-0.1,0.1l-0.1-0.1l0.2-0.1c0.5-0.4,1-0.9,1.6-1.5c0.6-0.6,1.3-1.3,2.1-2.1c0.3-0.4,0.8-0.8,1.2-1.3
			c0.5-0.5,1-1,1.6-1.6c0.3-0.3,0.6-0.5,0.9-0.8c0.3-0.3,0.6-0.5,0.9-0.8c0.7-0.6,1.3-1.1,2-1.4c0.6-0.4,1.2-0.6,1.7-0.6
			c0.2,0,0.4,0.1,0.5,0.2c0.1,0.1,0.1,0.3,0.1,0.5c0,0.4-0.2,0.9-0.7,1.4c-0.5,0.6-1.1,1.1-1.9,1.7c-0.8,0.6-1.6,1.1-2.6,1.7
			C94,61,93,61.5,92,61.9c-1.7,1.9-2.9,3.2-3.4,3.9c-0.5,0.6-0.7,1.1-0.7,1.3v0c0,0,0,0,0,0c0,0.1,0.1,0.1,0.1,0.2
			c0.1,0.1,0.2,0.1,0.4,0.1c0.2,0,0.6-0.2,1.2-0.6c0.6-0.4,1.3-0.9,2.1-1.6l0.2-0.2l0.1,0.2l-0.1,0.1c-1.2,1-2.1,1.7-2.5,1.9
			c-0.4,0.2-0.7,0.4-1,0.4h-0.1h-0.1c-0.3,0-0.5-0.1-0.6-0.2C87.6,67.3,87.5,67.1,87.5,66.8L87.5,66.8z M92.3,61.5L92.3,61.5
			c0.4-0.1,0.9-0.3,1.6-0.6c0.7-0.4,1.4-0.8,2.1-1.2c0.4-0.3,0.8-0.5,1.1-0.8c0.4-0.3,0.7-0.5,1-0.8c0.5-0.4,0.9-0.9,1.3-1.3
			c0.3-0.4,0.5-0.8,0.5-1.1c0-0.1,0-0.2-0.1-0.3c-0.1-0.1-0.2-0.1-0.3-0.1c-0.6,0-1.5,0.5-2.6,1.6c-1.1,1-2.3,2.2-3.5,3.6
			c-0.1,0.1-0.3,0.3-0.4,0.5c-0.1,0.2-0.3,0.3-0.4,0.5c0,0-0.1,0.1-0.1,0.1C92.4,61.4,92.4,61.4,92.3,61.5L92.3,61.5z"/>
		<path class="st0" d="M94.1,63.1h1.1l-1.8,2.1c-0.6,0.7-1,1.2-1.2,1.5c-0.2,0.2-0.3,0.5-0.3,0.6v0c0,0.1,0,0.1,0.1,0.1
			c0.1,0,0.1,0.1,0.2,0.1h0c0.2,0,0.6-0.2,1.1-0.5c0.5-0.3,1.3-0.9,2.3-1.8l0.2-0.2l0.1,0.2l-0.1,0.1c-1,0.8-1.7,1.4-2.3,1.8
			c-0.5,0.3-0.9,0.5-1.3,0.5c-0.2,0-0.4,0-0.5-0.1c-0.1-0.1-0.2-0.2-0.2-0.5v0v0c0-0.4,0.2-0.8,0.6-1.3c0.4-0.5,0.9-1.1,1.7-2l0-0.1
			c-0.1,0.1-0.2,0.2-0.3,0.3c-0.1,0.1-0.2,0.2-0.3,0.3c-0.2,0.2-0.4,0.4-0.6,0.5c-0.2,0.2-0.4,0.3-0.6,0.5l-0.1,0.1l-0.1-0.1
			l0.2-0.1c0.3-0.3,0.7-0.6,1.1-0.9C93.4,63.8,93.8,63.5,94.1,63.1L94.1,63.1z M96.3,61.9l-0.6-0.7l0.8-0.8l0.6,0.8L96.3,61.9z"/>
		<path class="st0" d="M102.4,63.1c-0.1,0.1-0.3,0.3-0.6,0.7c-0.3,0.3-0.7,0.7-1.1,1.1c-0.1,0.1-0.1,0.1-0.2,0.2
			c-0.1,0.1-0.1,0.1-0.1,0.2c-0.4,0.4-0.7,0.8-1,1.2c-0.3,0.4-0.4,0.7-0.4,0.8c0,0.1,0,0.1,0.1,0.2c0,0,0.1,0.1,0.2,0.1
			c0.2,0,0.6-0.2,1.1-0.7c0.6-0.5,1.2-1,1.9-1.5l0.2-0.2l0.1,0.2l-0.1,0.1c-1.2,1-2,1.6-2.3,1.9c-0.3,0.3-0.6,0.4-0.8,0.4h-0.1h-0.1
			c-0.2,0-0.4-0.1-0.5-0.2c-0.1-0.1-0.1-0.2-0.1-0.4c0-0.2,0-0.4,0.1-0.6c0.1-0.2,0.2-0.4,0.2-0.5l0,0c-0.6,0.5-1.1,1-1.6,1.3
			c-0.5,0.3-0.9,0.4-1.3,0.4c-0.3,0-0.6-0.1-0.7-0.3c-0.1-0.2-0.2-0.4-0.2-0.8c0-0.6,0.3-1.2,0.9-1.8c0.6-0.6,1.2-1,1.9-1.3
			c0.4-0.2,0.7-0.3,1-0.4c0.3-0.1,0.6-0.1,0.9-0.1c0.4,0,0.6,0.1,0.7,0.3c0.1,0.2,0.1,0.4,0.1,0.7l0,0l0.7-0.8H102.4z M99.8,63.1
			c-0.2,0-0.5,0.1-0.9,0.3c-0.3,0.2-0.7,0.4-1,0.7c-0.2,0.2-0.4,0.3-0.6,0.5c-0.2,0.2-0.4,0.4-0.6,0.6c-0.4,0.4-0.6,0.7-0.9,1.1
			c-0.2,0.3-0.4,0.6-0.4,0.8c0,0.1,0,0.2,0.1,0.3c0.1,0.1,0.2,0.1,0.4,0.1c0.3,0,0.7-0.2,1.3-0.5c0.5-0.3,1.1-0.8,1.7-1.3
			c0.5-0.5,0.9-0.9,1.1-1.2c0.2-0.3,0.3-0.6,0.3-0.8c0-0.2-0.1-0.3-0.2-0.4C100.1,63.2,100,63.2,99.8,63.1L99.8,63.1z"/>
		<path class="st0" d="M104.1,65.2c0.1,0,0.1-0.1,0.2-0.1c0.1-0.1,0.1-0.1,0.2-0.2c0,0,0,0,0,0c0,0,0,0,0,0c0.3-0.3,0.5-0.6,0.8-0.8
			c0.2-0.3,0.3-0.5,0.3-0.6c0-0.1,0-0.1,0-0.2c0-0.1-0.1-0.1-0.2-0.1c-0.2,0-0.5,0.2-0.9,0.5c-0.4,0.3-1.1,0.9-2,1.6l-0.1,0.1
			l-0.1-0.1l0.2-0.1c0.9-0.8,1.6-1.3,2.1-1.6c0.5-0.3,0.8-0.5,1-0.5c0.2,0,0.4,0.1,0.5,0.2c0.1,0.1,0.2,0.3,0.2,0.4
			c0,0.2-0.1,0.5-0.2,0.7c-0.1,0.2-0.3,0.5-0.5,0.8l0,0c0.1-0.1,0.3-0.2,0.4-0.4c0.2-0.1,0.3-0.3,0.5-0.4c0.1-0.1,0.3-0.2,0.4-0.3
			c0.1-0.1,0.3-0.2,0.4-0.3c0.3-0.2,0.6-0.4,0.8-0.5c0.3-0.1,0.5-0.2,0.7-0.2c0.3,0,0.5,0.1,0.6,0.2c0.2,0.1,0.2,0.3,0.2,0.5
			c0,0.3-0.1,0.7-0.4,1c-0.3,0.3-0.6,0.6-0.9,0.9c-0.3,0.3-0.7,0.6-0.9,0.8c-0.3,0.3-0.4,0.5-0.4,0.7c0,0.1,0,0.2,0.1,0.2
			c0.1,0.1,0.1,0.1,0.2,0.1c0.2,0,0.4-0.1,0.8-0.4c0.4-0.2,0.7-0.5,1.1-0.8c0.1,0,0.1-0.1,0.2-0.1c0.1-0.1,0.1-0.1,0.2-0.1
			c0.2-0.1,0.3-0.3,0.5-0.4c0.2-0.1,0.3-0.3,0.4-0.4l0.2-0.2l0.1,0.2l-0.1,0.1c-0.8,0.6-1.4,1.2-2,1.6c-0.6,0.4-1,0.7-1.3,0.7
			c-0.2,0-0.3-0.1-0.5-0.2c-0.1-0.1-0.2-0.3-0.2-0.4c0-0.4,0.1-0.8,0.4-1.2c0.3-0.4,0.6-0.7,0.9-1c0.3-0.3,0.6-0.6,0.9-0.8
			c0.3-0.2,0.4-0.4,0.4-0.6c0-0.1,0-0.1-0.1-0.2c-0.1-0.1-0.2-0.1-0.2-0.1c-0.3,0-0.6,0.1-1,0.4c-0.4,0.2-0.8,0.5-1.2,0.9
			c-0.1,0.1-0.3,0.2-0.4,0.3c-0.1,0.1-0.3,0.2-0.4,0.3c-0.4,0.3-0.7,0.6-1,0.9c-0.3,0.3-0.6,0.5-0.8,0.7c-0.1,0.1-0.3,0.3-0.4,0.4
			c-0.1,0.1-0.3,0.3-0.5,0.5h-1.2L104.1,65.2z"/>
		<path class="st0" d="M117.3,63.1c-0.1,0.1-0.3,0.3-0.6,0.7c-0.3,0.3-0.7,0.7-1.1,1.1c-0.1,0.1-0.1,0.1-0.2,0.2
			c-0.1,0.1-0.1,0.1-0.1,0.2c-0.4,0.4-0.7,0.8-1,1.2c-0.3,0.4-0.4,0.7-0.4,0.8c0,0.1,0,0.1,0.1,0.2c0,0,0.1,0.1,0.2,0.1
			c0.2,0,0.6-0.2,1.1-0.7c0.6-0.5,1.2-1,1.9-1.5l0.2-0.2l0.1,0.2l-0.1,0.1c-1.2,1-2,1.6-2.3,1.9c-0.3,0.3-0.6,0.4-0.8,0.4h-0.1H114
			c-0.2,0-0.4-0.1-0.5-0.2c-0.1-0.1-0.1-0.2-0.1-0.4c0-0.2,0-0.4,0.1-0.6c0.1-0.2,0.2-0.4,0.2-0.5l0,0c-0.6,0.5-1.1,1-1.6,1.3
			c-0.5,0.3-0.9,0.4-1.3,0.4c-0.3,0-0.6-0.1-0.7-0.3c-0.1-0.2-0.2-0.4-0.2-0.8c0-0.6,0.3-1.2,0.9-1.8c0.6-0.6,1.2-1,1.9-1.3
			c0.4-0.2,0.7-0.3,1-0.4c0.3-0.1,0.6-0.1,0.9-0.1c0.4,0,0.6,0.1,0.7,0.3c0.1,0.2,0.1,0.4,0.1,0.7l0,0l0.7-0.8H117.3z M114.7,63.1
			c-0.2,0-0.5,0.1-0.9,0.3c-0.3,0.2-0.7,0.4-1,0.7c-0.2,0.2-0.4,0.3-0.6,0.5c-0.2,0.2-0.4,0.4-0.6,0.6c-0.4,0.4-0.6,0.7-0.9,1.1
			c-0.2,0.3-0.4,0.6-0.4,0.8c0,0.1,0,0.2,0.1,0.3c0.1,0.1,0.2,0.1,0.4,0.1c0.3,0,0.7-0.2,1.3-0.5c0.5-0.3,1.1-0.8,1.7-1.3
			c0.5-0.5,0.9-0.9,1.1-1.2c0.2-0.3,0.3-0.6,0.3-0.8c0-0.2-0.1-0.3-0.2-0.4C115,63.2,114.9,63.2,114.7,63.1L114.7,63.1z"/>
		<path class="st0" d="M134.2,56.6l-9.3,9.8c-0.2,0.2-0.3,0.4-0.4,0.5c-0.1,0.1-0.2,0.3-0.2,0.3c0,0.1,0,0.1,0.1,0.2
			c0.1,0,0.2,0,0.3,0c0.3,0,0.7-0.2,1.2-0.5c0.5-0.3,1-0.7,1.6-1.2c0.1-0.1,0.2-0.2,0.3-0.3c0.1-0.1,0.2-0.2,0.3-0.3l0.2-0.2
			l0.1,0.2l-0.1,0.1c-1.2,1-2,1.7-2.5,1.9c-0.4,0.2-0.8,0.4-1,0.4h-0.1h-0.1c-0.2,0-0.4,0-0.5-0.1c-0.1-0.1-0.1-0.2-0.1-0.4
			c0-0.1,0-0.1,0-0.2c0-0.1,0-0.1,0-0.2c0-0.1,0-0.2,0.1-0.3c0-0.1,0-0.2,0.1-0.3l0-0.1c-0.7,0.6-1.2,1-1.7,1.2
			c-0.4,0.2-0.8,0.4-1.2,0.4c-0.3,0-0.6-0.1-0.7-0.3c-0.1-0.2-0.2-0.4-0.2-0.8c0-0.6,0.3-1.3,0.9-1.8c0.6-0.6,1.3-1,2-1.4
			c0.3-0.2,0.6-0.3,1-0.3c0.3-0.1,0.6-0.1,0.9-0.1c0.3,0,0.5,0.1,0.6,0.2c0.1,0.1,0.2,0.3,0.2,0.5v0.1v0.1c0,0.1,0,0.1,0,0.2
			c0,0.1,0,0.1,0,0.1l0,0l7.1-7.5H134.2z M125.1,63.1c-0.2,0-0.5,0.1-0.9,0.3c-0.3,0.2-0.7,0.4-1,0.7c-0.2,0.2-0.4,0.3-0.6,0.5
			c-0.2,0.2-0.4,0.4-0.6,0.6c-0.4,0.4-0.7,0.7-0.9,1.1c-0.2,0.3-0.4,0.6-0.4,0.8c0,0.1,0,0.2,0.1,0.3c0.1,0.1,0.2,0.1,0.4,0.1
			c0.3,0,0.7-0.2,1.3-0.5c0.5-0.3,1.1-0.8,1.7-1.3c0.5-0.5,0.9-0.9,1.1-1.2c0.2-0.3,0.3-0.6,0.3-0.8c0-0.2-0.1-0.3-0.2-0.4
			C125.5,63.2,125.3,63.2,125.1,63.1L125.1,63.1z"/>
		<path class="st0" d="M132.8,65.3l-0.1,0.1c-0.9,0.8-1.7,1.3-2.4,1.7c-0.7,0.4-1.3,0.6-1.8,0.6c-0.3,0-0.6-0.1-0.7-0.3
			c-0.2-0.2-0.2-0.4-0.2-0.7c0-0.1,0-0.2,0-0.3c0-0.1,0.1-0.2,0.1-0.3c0.2-0.5,0.5-0.9,1-1.3c0.5-0.4,1-0.8,1.5-1.1
			c0.3-0.2,0.6-0.3,1-0.4c0.3-0.1,0.6-0.2,0.8-0.2c0.2,0,0.3,0.1,0.4,0.2c0.1,0.1,0.1,0.2,0.1,0.3c0,0.1,0,0.2-0.1,0.3
			c0,0.1-0.1,0.2-0.2,0.3c-0.2,0.3-0.6,0.5-1.2,0.8c-0.5,0.3-1.3,0.5-2.2,0.6c0,0-0.1,0.1-0.1,0.1c0,0-0.1,0.1-0.2,0.2
			c-0.1,0.1-0.2,0.2-0.3,0.4c-0.1,0.1-0.2,0.3-0.2,0.4c0,0.1,0,0.1,0,0.2c0,0.1,0,0.1,0,0.2c0,0.1,0.1,0.3,0.2,0.4
			c0.1,0.1,0.2,0.2,0.4,0.2c0.4,0,1-0.2,1.7-0.6c0.7-0.4,1.5-1,2.3-1.6l0.2-0.2L132.8,65.3z M132,63.1c-0.3,0-0.6,0.2-1,0.5
			c-0.4,0.3-1,0.8-1.9,1.6l0,0c0.1,0,0.3,0,0.5-0.1c0.2,0,0.3-0.1,0.5-0.1c0.5-0.2,1-0.4,1.5-0.6c0.5-0.3,0.7-0.6,0.7-0.9
			c0-0.1,0-0.2-0.1-0.2C132.2,63.2,132.1,63.2,132,63.1L132,63.1L132,63.1z"/>
		<path class="st0" d="M132.7,66.8c0-0.4,0.2-0.8,0.5-1.3c0.3-0.5,0.7-1,1.1-1.5l0-0.1c-0.2,0.2-0.4,0.4-0.6,0.6
			c-0.2,0.2-0.5,0.4-0.8,0.7l-0.1,0.1l-0.1-0.1l0.2-0.1c0.5-0.4,1.1-0.9,1.6-1.5c0.6-0.6,1.3-1.3,2.1-2.1c0.3-0.4,0.8-0.8,1.2-1.3
			c0.5-0.5,1-1,1.6-1.6c0.3-0.3,0.6-0.5,0.9-0.8c0.3-0.3,0.6-0.5,0.9-0.8c0.7-0.6,1.3-1.1,2-1.4c0.6-0.4,1.2-0.6,1.7-0.6
			c0.2,0,0.4,0.1,0.5,0.2c0.1,0.1,0.1,0.3,0.1,0.5c0,0.4-0.2,0.9-0.7,1.4c-0.5,0.6-1.1,1.1-1.9,1.7c-0.8,0.6-1.6,1.1-2.6,1.7
			c-0.9,0.5-1.9,1-2.9,1.4c-1.7,1.9-2.9,3.2-3.4,3.9c-0.5,0.6-0.7,1.1-0.7,1.3v0c0,0,0,0,0,0c0,0.1,0.1,0.1,0.1,0.2
			c0.1,0.1,0.2,0.1,0.4,0.1c0.2,0,0.6-0.2,1.2-0.6c0.6-0.4,1.3-0.9,2.1-1.6l0.2-0.2l0.1,0.2l-0.1,0.1c-1.2,1-2.1,1.7-2.5,1.9
			c-0.4,0.2-0.7,0.4-1,0.4h-0.1h-0.1c-0.3,0-0.5-0.1-0.6-0.2C132.8,67.3,132.7,67.1,132.7,66.8L132.7,66.8z M137.5,61.5L137.5,61.5
			c0.4-0.1,0.9-0.3,1.6-0.6c0.7-0.4,1.4-0.8,2.1-1.2c0.4-0.3,0.8-0.5,1.1-0.8c0.4-0.3,0.7-0.5,1-0.8c0.5-0.4,1-0.9,1.3-1.3
			c0.3-0.4,0.5-0.8,0.5-1.1c0-0.1,0-0.2-0.1-0.3c-0.1-0.1-0.2-0.1-0.3-0.1c-0.6,0-1.5,0.5-2.6,1.6c-1.1,1-2.3,2.2-3.5,3.6
			c-0.1,0.1-0.3,0.3-0.4,0.5c-0.1,0.2-0.3,0.3-0.4,0.5c0,0-0.1,0.1-0.1,0.1C137.6,61.4,137.6,61.4,137.5,61.5L137.5,61.5z"/>
		<path class="st0" d="M157.1,62h-1c0.1-0.1,0.1-0.3,0.3-0.5c0.1-0.2,0.2-0.4,0.4-0.6c0,0,0.1-0.1,0.1-0.1c0,0,0.1-0.1,0.1-0.1
			c0.1-0.1,0.1-0.2,0.2-0.3c0.1-0.1,0.1-0.2,0.2-0.3c-0.1,0-0.4,0-0.6,0c-0.3,0-0.6,0-0.9,0c-1.3,2.3-2.8,4.1-4.7,5.4
			c-1.9,1.3-4,2-6.4,2c-1,0-1.9-0.2-2.5-0.6c-0.7-0.4-1-0.9-1-1.6c0-0.3,0.1-0.5,0.3-0.8c0.2-0.2,0.5-0.3,0.8-0.3
			c0.2,0,0.4,0.1,0.5,0.2c0.2,0.1,0.2,0.3,0.2,0.6c0,0.2-0.1,0.3-0.2,0.5c-0.1,0.1-0.3,0.2-0.5,0.2h0h0c-0.2,0-0.3,0-0.4-0.1
			c-0.1-0.1-0.2-0.2-0.3-0.3c0,0,0,0,0,0c0,0,0,0,0,0l0,0c0,0.6,0.3,1.1,0.8,1.3c0.5,0.3,1,0.5,1.6,0.6c0.2,0,0.3,0,0.5,0.1
			c0.2,0,0.3,0,0.5,0c1.6,0,2.9-0.3,3.9-0.9c1.1-0.6,2.1-1.4,3-2.5c0.5-0.5,0.9-1.1,1.4-1.7c0.5-0.6,1-1.3,1.5-2c-0.2,0-0.3,0-0.5,0
			c-0.2,0-0.3,0-0.5,0.1c-0.6,0.1-1.1,0.2-1.6,0.3c-0.5,0.2-1,0.3-1.4,0.4c-0.2,0.1-0.3,0.1-0.5,0.2c-0.1,0.1-0.3,0.1-0.4,0.2
			l-0.1-0.3c0.2-0.1,0.4-0.1,0.5-0.2c0.2-0.1,0.4-0.1,0.5-0.2c0.6-0.2,1.3-0.4,1.9-0.5c0.7-0.1,1.4-0.2,2.2-0.2
			c0.5-0.8,1-1.5,1.6-2.1c0.6-0.7,1.2-1.3,1.8-1.8c0.6-0.6,1.2-1.1,1.8-1.5c0.6-0.5,1.1-0.9,1.6-1.2l0.1,0.2
			c-1.1,0.9-2.1,1.8-3.1,2.9c-1,1.1-1.8,2.3-2.6,3.6h0.3h0.3c0.2,0,0.4,0,0.5,0c0.2,0,0.3,0,0.5,0c0.1-0.1,0.1-0.2,0.2-0.4
			c0.1-0.1,0.2-0.3,0.3-0.4c0.1-0.2,0.3-0.4,0.5-0.6c0.2-0.2,0.4-0.3,0.6-0.4c0.1-0.1,0.2-0.1,0.3-0.1c0.1,0,0.2-0.1,0.3-0.1
			c0.2,0,0.3,0,0.4,0.1c0.1,0.1,0.2,0.2,0.2,0.4c0,0.1,0,0.1,0,0.2c0,0.1-0.1,0.1-0.1,0.2c-0.1,0.2-0.4,0.4-0.7,0.6
			c-0.3,0.2-0.7,0.4-1,0.5c-0.1,0-0.2,0.1-0.3,0.1c-0.1,0-0.2,0-0.3,0.1c0,0.1-0.1,0.2-0.1,0.2c0,0.1-0.1,0.2-0.1,0.3
			c0,0.1-0.1,0.2-0.1,0.3s-0.1,0.2-0.1,0.3c0,0.1-0.1,0.3-0.1,0.4C157.1,61.8,157.1,61.9,157.1,62L157.1,62z M149.4,56.9l-0.1-0.2
			c0.5-0.5,1-0.9,1.6-1.3c0.6-0.4,1.2-0.7,1.8-0.9c0.2-0.1,0.5-0.1,0.7-0.2c0.2,0,0.5-0.1,0.7-0.1c0.6,0,1,0.1,1.3,0.3
			c0.3,0.2,0.4,0.5,0.4,0.9c0,0.7-0.4,1.4-1.2,2c-0.8,0.6-1.7,1-2.6,1.3c-0.3,0.1-0.7,0.2-1,0.2c-0.3,0.1-0.7,0.1-1,0.1
			c-0.9,0-1.5-0.2-2-0.5c-0.5-0.3-0.7-0.8-0.7-1.4c0-0.1,0-0.2,0-0.4c0-0.1,0.1-0.3,0.1-0.4c0.2-0.6,0.6-1.2,1.2-1.7
			c0.6-0.6,1.3-1,2.2-1.4c0.1,0,0.1-0.1,0.2-0.1c0.1,0,0.1-0.1,0.2-0.1c1-0.4,2-0.7,3.2-0.8c1.1-0.1,2.7-0.2,4.6-0.2
			c0.3,0,0.7,0,1,0c0.3,0,0.7,0,1,0c0.4,0,0.7,0,1.1,0.1c0.4,0,0.7,0,1,0.1c0.7,0,1.2,0.1,1.7,0.1c0.5,0,0.9,0.1,1.1,0.1
			c0.5,0,1,0,1.4-0.1c0.4-0.1,0.8-0.1,1.2-0.2l0,0c-0.3,0.4-0.8,0.8-1.2,0.9c-0.5,0.2-1,0.3-1.5,0.3c-0.1,0-0.2,0-0.3,0h-0.3
			c-0.4,0-0.9,0-1.4-0.1c-0.6-0.1-1.2-0.1-1.8-0.2c-0.1,0-0.1,0-0.2,0c-0.1,0-0.1,0-0.2,0c-0.8-0.1-1.6-0.2-2.5-0.2
			c-0.9-0.1-1.9-0.1-2.9-0.1c-1.2,0-2.2,0.1-2.9,0.2c-0.8,0.1-1.5,0.4-2.2,0.6c0,0-0.1,0-0.1,0c0,0-0.1,0-0.1,0c0,0,0,0-0.1,0
			c0,0,0,0-0.1,0c-0.6,0.3-1.2,0.7-1.8,1.2c-0.6,0.5-1,1-1.2,1.6c-0.1,0.1-0.1,0.3-0.1,0.4c0,0.1-0.1,0.3-0.1,0.4
			c0,0.5,0.2,0.9,0.7,1.2c0.5,0.2,1.1,0.4,1.8,0.4c0.3,0,0.6,0,1-0.1c0.4-0.1,0.7-0.1,1.1-0.3c0.9-0.3,1.6-0.7,2.3-1.2
			c0.7-0.5,1.1-1.1,1.1-1.7c0-0.2-0.1-0.4-0.3-0.6c-0.2-0.2-0.5-0.3-1-0.3c-0.9,0-1.7,0.2-2.5,0.7c-0.7,0.4-1.4,0.9-2,1.5
			C149.5,56.8,149.5,56.8,149.4,56.9C149.4,56.8,149.4,56.9,149.4,56.9L149.4,56.9z M159.9,58.5c0-0.1,0-0.2-0.1-0.2
			c-0.1,0-0.1-0.1-0.2-0.1c-0.1,0-0.2,0-0.3,0.1c-0.1,0.1-0.2,0.1-0.4,0.2c-0.1,0.1-0.2,0.2-0.3,0.3c-0.1,0.1-0.2,0.2-0.3,0.3
			c-0.1,0.1-0.2,0.3-0.3,0.4c-0.1,0.1-0.1,0.2-0.2,0.3c0.1,0,0.2,0,0.3-0.1c0.1,0,0.2-0.1,0.3-0.1c0.2-0.1,0.4-0.2,0.6-0.3
			c0.2-0.1,0.4-0.2,0.5-0.3c0.1-0.1,0.2-0.1,0.2-0.2C159.9,58.7,159.9,58.6,159.9,58.5L159.9,58.5z"/>
		<path class="st0" d="M163,63.1c-0.1,0.1-0.3,0.3-0.6,0.7c-0.3,0.3-0.7,0.7-1.1,1.1c-0.1,0.1-0.1,0.1-0.2,0.2
			c-0.1,0.1-0.1,0.1-0.1,0.2c-0.4,0.4-0.7,0.8-1,1.2c-0.3,0.4-0.4,0.7-0.4,0.8c0,0.1,0,0.1,0.1,0.2c0,0,0.1,0.1,0.2,0.1
			c0.2,0,0.6-0.2,1.1-0.7c0.6-0.5,1.2-1,1.9-1.5l0.2-0.2l0.1,0.2l-0.1,0.1c-1.2,1-2,1.6-2.3,1.9c-0.3,0.3-0.6,0.4-0.8,0.4h-0.1h-0.1
			c-0.2,0-0.4-0.1-0.5-0.2c-0.1-0.1-0.1-0.2-0.1-0.4c0-0.2,0-0.4,0.1-0.6c0.1-0.2,0.2-0.4,0.2-0.5l0,0c-0.6,0.5-1.1,1-1.6,1.3
			c-0.5,0.3-0.9,0.4-1.3,0.4c-0.3,0-0.6-0.1-0.7-0.3c-0.1-0.2-0.2-0.4-0.2-0.8c0-0.6,0.3-1.2,0.9-1.8c0.6-0.6,1.2-1,1.9-1.3
			c0.4-0.2,0.7-0.3,1-0.4c0.3-0.1,0.6-0.1,0.9-0.1c0.4,0,0.6,0.1,0.7,0.3c0.1,0.2,0.1,0.4,0.1,0.7l0,0l0.7-0.8H163z M160.4,63.1
			c-0.2,0-0.5,0.1-0.9,0.3c-0.3,0.2-0.7,0.4-1,0.7c-0.2,0.2-0.4,0.3-0.6,0.5c-0.2,0.2-0.4,0.4-0.6,0.6c-0.4,0.4-0.7,0.7-0.9,1.1
			c-0.2,0.3-0.4,0.6-0.4,0.8c0,0.1,0,0.2,0.1,0.3c0.1,0.1,0.2,0.1,0.4,0.1c0.3,0,0.7-0.2,1.3-0.5c0.5-0.3,1.1-0.8,1.7-1.3
			c0.5-0.5,0.9-0.9,1.1-1.2c0.2-0.3,0.3-0.6,0.3-0.8c0-0.2-0.1-0.3-0.2-0.4C160.7,63.2,160.6,63.2,160.4,63.1L160.4,63.1z"/>
		<path class="st0" d="M162.8,65.2l0.2-0.1c0.1-0.1,0.3-0.2,0.4-0.4c0.2-0.1,0.3-0.3,0.5-0.5c0,0,0.1,0,0.1-0.1c0,0,0,0,0.1-0.1
			c0.1-0.1,0.2-0.2,0.3-0.3c0.1-0.1,0.2-0.2,0.3-0.3c0,0,0-0.1-0.1-0.1c0,0,0,0-0.1-0.1c-0.1-0.1-0.1-0.1-0.1-0.2c0-0.1,0-0.2,0-0.2
			c0-0.2,0.1-0.3,0.2-0.4c0.1-0.1,0.2-0.1,0.4-0.1c0.1,0,0.3,0,0.3,0.1c0.1,0.1,0.1,0.2,0.1,0.4c0,0.2-0.1,0.3-0.2,0.4
			c-0.1,0.1-0.3,0.1-0.4,0.1h0h0c0.1,0,0.1,0.1,0.2,0.1c0.1,0,0.2,0.1,0.2,0.1c0,0,0.1,0,0.1,0h0.1c0.2,0,0.3,0,0.5-0.1
			c0.2,0,0.3-0.1,0.4-0.2l0.6,0.6l-0.6,0.7c-0.9,1-1.5,1.6-1.8,1.9c-0.3,0.3-0.5,0.6-0.5,0.7c0,0.1,0,0.2,0.1,0.2
			c0.1,0,0.2,0.1,0.3,0.1c0.3,0,0.7-0.2,1.4-0.6c0.6-0.4,1.3-1,2.1-1.6l0.2-0.2l0.1,0.2l-0.1,0.1c-1,0.9-1.8,1.5-2.4,1.8
			c-0.5,0.3-1,0.5-1.3,0.5c-0.3,0-0.5-0.1-0.6-0.2c-0.1-0.1-0.2-0.3-0.2-0.5v-0.1c0,0,0-0.1,0-0.1c0-0.2,0.1-0.5,0.3-0.7
			c0.2-0.3,0.5-0.6,0.9-1l1.3-1.3l0,0c-0.1,0-0.2,0.1-0.3,0.1c-0.1,0-0.2,0-0.3,0c-0.1,0-0.2,0-0.2,0c-0.1,0-0.1,0-0.2,0
			c-0.1,0-0.1,0.1-0.2,0.1c-0.1,0.1-0.1,0.1-0.2,0.2c0,0-0.1,0.1-0.1,0.1c0,0-0.1,0.1-0.1,0.1c-0.2,0.2-0.4,0.4-0.7,0.6
			c-0.2,0.2-0.4,0.4-0.6,0.5l-0.1,0.1L162.8,65.2z"/>
		<path class="st0" d="M180.2,65.3l-0.1,0.1c-0.1,0.1-0.2,0.2-0.4,0.3c-0.1,0.1-0.2,0.2-0.4,0.3c0,0-0.1,0.1-0.1,0.1
			c0,0-0.1,0.1-0.1,0.1c-0.5,0.4-0.9,0.7-1.3,1c-0.4,0.3-0.8,0.4-1,0.4c-0.3,0-0.5-0.1-0.6-0.2c-0.1-0.1-0.2-0.3-0.2-0.5
			c0-0.4,0.1-0.7,0.4-1.1c0.3-0.3,0.5-0.6,0.9-0.9c0.3-0.3,0.6-0.5,0.9-0.7c0.3-0.2,0.4-0.4,0.4-0.6c0-0.1,0-0.2-0.1-0.3
			c-0.1-0.1-0.1-0.1-0.2-0.1c-0.4,0-1.1,0.4-2.1,1.2c-1.1,0.8-2.2,1.9-3.6,3.1h-1.2l2.3-2.2c0.4-0.4,0.7-0.7,0.9-1
			c0.2-0.3,0.4-0.5,0.4-0.7c0-0.1,0-0.2-0.1-0.3c-0.1-0.1-0.1-0.1-0.3-0.1c-0.4,0-1.1,0.4-2.2,1.3c-1.1,0.9-2.3,1.9-3.6,3.1h-1.2
			L170,65c0.4-0.4,0.7-0.7,0.8-1c0.1-0.3,0.2-0.5,0.2-0.6c0-0.1,0-0.1,0-0.2c0-0.1-0.1-0.1-0.1-0.1c-0.1,0-0.4,0.1-0.8,0.4
			c-0.4,0.3-1.1,0.8-2,1.6l-0.1,0.1l-0.1-0.1l0.2-0.1c0.6-0.5,1.2-1,1.8-1.4c0.5-0.4,0.9-0.7,1.2-0.7c0.2,0,0.3,0.1,0.4,0.2
			c0.1,0.1,0.2,0.3,0.2,0.6c0,0.1,0,0.2,0,0.3c0,0.1-0.1,0.2-0.1,0.3c-0.1,0.1-0.1,0.2-0.2,0.3c-0.1,0.1-0.1,0.2-0.2,0.3
			c0,0.1-0.1,0.1-0.1,0.2c0,0.1-0.1,0.1-0.1,0.2l0,0c0.2-0.1,0.4-0.3,0.6-0.4c0.2-0.2,0.5-0.4,0.8-0.6c0.1-0.1,0.2-0.1,0.3-0.2
			c0.1-0.1,0.2-0.1,0.3-0.2c0.4-0.2,0.7-0.4,1-0.6c0.3-0.2,0.6-0.3,0.8-0.3c0.3,0,0.4,0.1,0.6,0.2c0.1,0.1,0.2,0.3,0.2,0.5
			c0,0.1,0,0.2-0.1,0.3c0,0.1-0.1,0.2-0.2,0.3c0,0,0,0.1-0.1,0.1c0,0-0.1,0.1-0.1,0.1c-0.1,0.1-0.1,0.2-0.2,0.3
			c-0.1,0.1-0.1,0.2-0.1,0.2l0,0c0.8-0.6,1.5-1.1,2-1.6c0.6-0.4,1.1-0.6,1.6-0.6c0.3,0,0.4,0.1,0.5,0.2c0.1,0.2,0.2,0.4,0.2,0.6
			c0,0.3-0.1,0.7-0.4,1c-0.3,0.3-0.5,0.6-0.9,0.9c-0.3,0.3-0.6,0.6-0.9,0.8c-0.3,0.3-0.4,0.5-0.4,0.7c0,0.1,0,0.1,0.1,0.2
			c0.1,0.1,0.1,0.1,0.2,0.1h0c0.2,0,0.5-0.2,1-0.5c0.4-0.3,0.9-0.7,1.4-1.1c0.1-0.1,0.1-0.1,0.2-0.2c0.1-0.1,0.1-0.1,0.2-0.2
			c0.1-0.1,0.1-0.1,0.2-0.2c0.1-0.1,0.1-0.1,0.2-0.2l0.2-0.2L180.2,65.3z"/>
		<path class="st0" d="M186.7,63.1c-0.1,0.1-0.3,0.3-0.6,0.7c-0.3,0.3-0.7,0.7-1.1,1.1c-0.1,0.1-0.1,0.1-0.2,0.2
			c-0.1,0.1-0.1,0.1-0.1,0.2c-0.4,0.4-0.7,0.8-1,1.2c-0.3,0.4-0.4,0.7-0.4,0.8c0,0.1,0,0.1,0.1,0.2c0,0,0.1,0.1,0.2,0.1
			c0.2,0,0.6-0.2,1.1-0.7c0.6-0.5,1.2-1,1.9-1.5l0.2-0.2l0.1,0.2l-0.1,0.1c-1.2,1-2,1.6-2.3,1.9c-0.3,0.3-0.6,0.4-0.8,0.4h-0.1h-0.1
			c-0.2,0-0.4-0.1-0.5-0.2c-0.1-0.1-0.1-0.2-0.1-0.4c0-0.2,0-0.4,0.1-0.6c0.1-0.2,0.2-0.4,0.2-0.5l0,0c-0.6,0.5-1.1,1-1.6,1.3
			c-0.5,0.3-0.9,0.4-1.3,0.4c-0.3,0-0.6-0.1-0.7-0.3c-0.1-0.2-0.2-0.4-0.2-0.8c0-0.6,0.3-1.2,0.9-1.8c0.6-0.6,1.2-1,1.9-1.3
			c0.4-0.2,0.7-0.3,1-0.4c0.3-0.1,0.6-0.1,0.9-0.1c0.4,0,0.6,0.1,0.7,0.3c0.1,0.2,0.1,0.4,0.1,0.7l0,0l0.7-0.8H186.7z M184.1,63.1
			c-0.2,0-0.5,0.1-0.9,0.3c-0.3,0.2-0.7,0.4-1,0.7c-0.2,0.2-0.4,0.3-0.6,0.5c-0.2,0.2-0.4,0.4-0.6,0.6c-0.4,0.4-0.6,0.7-0.9,1.1
			c-0.2,0.3-0.4,0.6-0.4,0.8c0,0.1,0,0.2,0.1,0.3c0.1,0.1,0.2,0.1,0.4,0.1c0.3,0,0.7-0.2,1.3-0.5c0.5-0.3,1.1-0.8,1.7-1.3
			c0.5-0.5,0.9-0.9,1.1-1.2c0.2-0.3,0.3-0.6,0.3-0.8c0-0.2-0.1-0.3-0.2-0.4C184.4,63.2,184.3,63.2,184.1,63.1L184.1,63.1z"/>
		<path class="st0" d="M191.2,65.3l-0.1,0.1c-1,0.9-1.8,1.5-2.4,1.8c-0.6,0.3-1.1,0.5-1.5,0.5c-0.3,0-0.6-0.1-0.8-0.3
			c-0.2-0.2-0.3-0.4-0.3-0.8c0-0.1,0-0.1,0-0.2c0-0.1,0-0.1,0.1-0.2c0.1-0.5,0.4-1,0.9-1.5c0.5-0.5,1-0.9,1.6-1.2
			c0.3-0.2,0.6-0.3,0.9-0.4c0.3-0.1,0.6-0.1,0.8-0.1c0.2,0,0.4,0,0.6,0.1c0.1,0.1,0.2,0.3,0.2,0.5c0,0.2-0.1,0.4-0.2,0.6
			c-0.1,0.2-0.3,0.3-0.4,0.4c-0.1,0-0.1,0.1-0.2,0.1c-0.1,0-0.1,0-0.1,0c-0.1,0-0.3,0-0.3-0.1c-0.1-0.1-0.1-0.2-0.1-0.3v0v0v0v0
			c0-0.1,0.1-0.2,0.2-0.3c0.1-0.1,0.2-0.1,0.4-0.1c0.1,0,0.2,0,0.2,0c0.1,0,0.1,0,0.1,0.1c0,0,0.1,0.1,0.1,0.1c0,0,0,0,0.1,0h0
			c0,0,0.1,0,0.1-0.1c0,0,0-0.1,0-0.1c0-0.1,0-0.3-0.1-0.3c-0.1-0.1-0.2-0.1-0.3-0.2h0h0c-0.2,0-0.4,0.1-0.8,0.3
			c-0.3,0.2-0.7,0.5-1.1,0.9c-0.2,0.1-0.3,0.3-0.5,0.4c-0.2,0.2-0.3,0.3-0.5,0.5c-0.3,0.4-0.6,0.7-0.8,1c-0.2,0.3-0.3,0.6-0.3,0.8
			c0,0.1,0.1,0.2,0.2,0.3c0.1,0.1,0.3,0.1,0.5,0.1c0.3,0,0.8-0.2,1.5-0.6c0.6-0.4,1.4-0.9,2.2-1.7l0.2-0.2L191.2,65.3z"/>
		<path class="st0" d="M194.9,63c0.2,0,0.4,0.1,0.5,0.2c0.1,0.1,0.2,0.3,0.2,0.6c0,0.1,0,0.3-0.1,0.5c-0.1,0.2-0.2,0.4-0.3,0.7
			c-0.1,0.1-0.1,0.2-0.2,0.2c-0.1,0.1-0.1,0.2-0.2,0.2c0,0,0.1,0.1,0.1,0.1c0,0,0,0,0.1,0.1c0,0,0.1,0,0.1,0c0,0,0.1,0,0.1,0
			c0.1,0,0.2,0,0.3-0.1c0.1-0.1,0.2-0.2,0.4-0.3l0.2-0.2l0.1,0.2l-0.1,0.1c-0.2,0.2-0.3,0.3-0.4,0.3c-0.1,0.1-0.2,0.1-0.3,0.1
			c0,0-0.1,0-0.1,0h-0.1c-0.1,0-0.1,0-0.2,0c-0.1,0-0.1,0-0.2-0.1c0,0-0.1,0-0.1,0c0,0-0.1,0-0.1,0c-0.1,0.1-0.2,0.2-0.2,0.2
			c-0.1,0.1-0.2,0.2-0.3,0.3c-0.2,0.2-0.4,0.3-0.6,0.5c-0.2,0.2-0.4,0.3-0.7,0.4c-0.3,0.2-0.6,0.3-0.8,0.4c-0.3,0.1-0.5,0.2-0.7,0.2
			c-0.3,0-0.6-0.1-0.7-0.2c-0.2-0.2-0.2-0.4-0.2-0.7c0-0.7,0.3-1.3,0.8-1.8c0.6-0.6,1.2-1,1.9-1.4c0.3-0.1,0.6-0.3,1-0.4
			C194.3,63.1,194.6,63,194.9,63L194.9,63z M195,63.3c-0.2,0-0.5,0.1-0.8,0.3c-0.3,0.2-0.7,0.4-1,0.7c-0.2,0.1-0.4,0.3-0.6,0.5
			c-0.2,0.2-0.4,0.3-0.5,0.5c-0.4,0.4-0.7,0.7-0.9,1c-0.2,0.3-0.4,0.6-0.4,0.7c0,0.2,0,0.3,0.1,0.4c0.1,0.1,0.2,0.1,0.4,0.1
			c0.2,0,0.5-0.1,0.8-0.2c0.3-0.2,0.7-0.4,1.1-0.6c0.4-0.3,0.7-0.5,1.1-0.9c0.3-0.3,0.6-0.7,0.8-1c0.1-0.2,0.2-0.3,0.2-0.5
			c0.1-0.2,0.1-0.3,0.1-0.5v-0.1c0,0,0,0,0-0.1c0-0.1-0.1-0.2-0.1-0.2C195.2,63.3,195.1,63.3,195,63.3L195,63.3z"/>
	</g>
	<g>
		<g>
			<path class="st0" d="M159.8,14.1c-1.1-3.6-1.9-6.5-2.5-8.8c-0.4,2.7-1.1,5.4-1.9,8.1l-3.9,12.4l-5.1,17.4h-4.9L155,1h4.9
				l14.2,42.2h-5.3l-4-12.8L159.8,14.1z"/>
			<polygon class="st1" points="116,43.2 130.6,1.1 155,1.1 153.7,5.2 133.5,5.2 128.1,21 166.6,21 168.2,25.3 126.3,25.3 
				120.2,43.2 			"/>
			<path class="st0" d="M101.9,29.7l-1.2-3.9l-3.6-11.8c-1.1-3.6-1.9-6.6-2.5-8.9c-0.4,2.7-1.1,5.5-1.9,8.2l-3.9,12.5l-1.2,4
				L101.9,29.7z M86.7,33.1l-0.1,0.4l-2.8,9.8h-4.9L92.3,1.2h4.9l14.1,42.1H106L103,33.1L86.7,33.1z"/>
			<rect x="111.6" y="1.2" class="st0" width="4.6" height="42.1"/>
		</g>
		<path class="st0" d="M29.9,13.4c0.1-0.1,0.2-0.3,0.3-0.4c0.1-0.1,0.4-0.5,0.9-1c1.2-1.5,2.1-3,2.8-4.3L35,4.8c0-0.1,0-0.2-0.1-0.3
			c-0.1,0-0.4,0.2-0.9,0.6c-0.1,0.1-0.4,0.5-0.8,1c-0.4,0.5-0.8,1.2-1.2,2c-0.4,0.8-0.6,1.4-0.7,1.6l-0.4,1.1c1-2,1.8-3.4,2.6-4.3
			c0.3-0.4,0.4-0.4,0.2,0c-0.5,0.7-0.9,1.2-1.1,1.8c-0.8,1.8-1.6,3.1-2.1,4.1L30,13L29.9,13.4z M37.8,8.8c0.1,0,0.1,0.1,0.2,0
			c0.4-0.2,0.8-0.4,1.1-0.6c0.1,0,0.1-0.1,0.1-0.2L39.1,7V6.9c-0.6,0.3-1.2,0.6-2,0.9l-0.2,0.1L37.1,8L37.8,8.8z M36.8,7
			c0.9-0.6,1.7-1.1,2.6-1.7c0.5-0.3,1-0.6,1.5-0.8c0.4-0.1,0.4,0,0.1,0.2c-1.3,0.7-2.7,1.6-4.2,2.8v0.1c1.3-0.6,2.3-1,3.1-1.4
			c0.8-0.4,1.4-0.8,2-1.3c0.3-0.3,0.5-0.7,0.5-0.9c-0.3-0.1-0.7-0.1-1.3,0c-1.1,0.4-2.5,1.4-4.2,2.9L36.8,7z M36.8,6.2L37.1,6
			c0.9-0.7,1.7-1.3,2.4-1.7c0.8-0.4,1.3-0.7,1.8-0.7l0.5-0.6c0.1-0.2,0-0.3-0.2-0.3c-0.4,0-0.9,0.1-1.4,0.2
			c-1.1,0.4-2.1,0.9-2.9,1.6c-0.8,0.7-1.6,1.5-2.3,2.5l1.3-1.2c1.4-1,2.4-1.7,3-2c0.6-0.3,1.1-0.5,1.4-0.6c-0.1,0.1-0.5,0.4-1.1,0.7
			c-1,0.6-2.2,1.5-3.6,2.6C36.3,6.2,36.6,6.1,36.8,6.2 M32.8,28.7l0-1.7l0-1.3c0-1.9,0.2-3.5,0.4-4.8c0.1-0.2,0.1-0.1,0,0.2
			c-0.1,1.2-0.2,2.3-0.2,3.3c0,1,0,1.7-0.1,2.3c0,0.6,0,1.3,0,2.3l0.3-0.6c0.3-0.4,0.5-1.2,0.6-2.4c0.1-0.9,0.1-2,0-3.2
			c-0.1-1.2-0.2-2-0.4-2.4c-0.3,0.1-0.6,0.7-0.9,2c-0.2,1-0.4,1.9-0.4,2.8c0,1.1,0.1,2.2,0.3,3.3L32.8,28.7z M29.9,23.7
			c0.2,0.2,0.2,0.4,0.1,0.6c0,0.1,0,0.4,0.1,0.8c0.1,0.4,0.2,0.7,0.4,0.9l0-0.1c-0.2-0.4-0.3-0.8-0.4-1.3c0-0.2,0-0.3,0.1-0.3l1-0.5
			c0.1,0,0.1-0.1,0.1-0.2c-0.1-0.4-0.1-0.8-0.2-1.3c0-0.1,0-0.1-0.1-0.2L30,22c-0.1,0-0.2-0.1-0.2-0.2c0-0.5,0-1,0-1.6
			c0-0.1,0.1-0.2,0.2-0.2l1.1-0.2c0.1,0,0.1-0.1,0.1-0.2c0-0.4,0.1-0.9,0.2-1.3c0-0.1,0-0.2-0.1-0.2L30.9,18
			c-0.5,0.9-0.9,1.7-1.1,2.3c-0.2,0.6-0.4,1.1-0.4,1.4C29.6,22.9,29.8,23.5,29.9,23.7 M40.6,36.5c0.4,0,0.8,0,1.2-0.1
			c-0.1-0.2-0.4-0.5-0.8-1l-1.8-0.7l-1.1-0.5c-0.2-0.1-0.4-0.1-0.5,0c-0.1,0.1-0.2,0.2-0.3,0.5l0,0c0.1-0.3,0.2-0.4,0.3-0.4
			c0.1,0,0.3,0,0.6,0.1c0.2,0.1,0.3,0.2,0.5,0.4c0.2,0.2,0.5,0.5,0.9,1L40.6,36.5z M44.5,40.4c0.2,0,0.5,0,0.7-0.2l0.5-0.3l0.6-0.8
			l0.1,0.4c0.1,0.1,0.3,0,0.6-0.4c0.1-0.3,0.1-0.6,0-0.9c-0.1-0.3-0.5-0.9-1.3-1.7l-0.4-0.4l-0.3,0l0.6,0.3l-0.3,0.1l-0.5-0.2
			c-0.5-0.2-1-0.1-1.4,0c0.7-0.1,1,0,1,0.1c0.1,0.2,0.3,0.6,0.5,1.2c0.2,0.6,0.3,1.2,0.3,1.6l-0.7,0.7c-0.3,0.3-0.3,0.3-0.3,0.1
			l-0.1-0.1l-0.4,0.2L44.5,40.4z M51.6,40.9c1.7,0.2,3.2,0.3,4.4,0.3c1.7-1.1,3.1-2.1,4.1-2.8l1.2-0.8c0.3-0.4,0.5-0.7,0.6-0.9
			c-0.4-0.6-0.7-1.2-0.8-1.8C61,34.6,61,34.4,61,34.1c0-0.3-0.3-0.4-0.9-0.5l-0.5,0l-1.2-0.1c-0.2-0.1-0.4-0.2-0.5-0.3l0-0.2
			l0.4,0.1v-0.5l-0.3,0.1c-0.4,0.1-0.5,0.3-0.4,0.4c0.2,0.2,0.3,0.4,0.3,0.7c0,0.8-0.1,1.4-0.2,1.8c0.7-0.5,1.5-1,2.5-1.6
			c-0.1,0-0.2-0.1-0.4,0c-0.2-0.1-0.2-0.2,0-0.3c0.5,0,0.8,0,1,0.1c0.2,0.1,0.2,0.2,0,0.3c-0.8,0.4-1.9,1-3.1,1.9
			c-1.3,1.1-2.1,1.7-2.5,1.8c-0.2,0.1-0.6,0.1-1,0.1c-0.4,0-1.1-0.1-2.1-0.3c-1-0.2-1.9-0.3-2.6-0.5c-0.7-0.2-1.5-0.3-2.5-0.4
			l-0.3,0v0.1c0.5,0.5,0.7,1,0.8,1.4c0.1,0.4,0.1,0.6,0.1,0.8c0,0.1-0.2,0.3-0.4,0.7L47,39.9l0.4,0.1C49,40.4,50.4,40.8,51.6,40.9
			 M58.4,28.1c0,0.2,0.1,0.5,0.2,0.8c0.1,0.1,0,0.2-0.2,0.2c-0.2,0.1-0.3,0.2-0.3,0.3c0.1,0.7,0,1.3-0.4,1.8
			c0.3-0.2,0.6-0.5,0.9-0.8c0.3-0.3,0.5-0.7,0.7-1.1c-0.1-0.2-0.3-0.4-0.5-0.6c-0.2-0.2-0.2-0.2,0-0.1c0.2,0.1,0.4,0.3,0.6,0.6
			c0.2-0.5,0.4-1.1,0.6-1.8c-0.2-0.8-0.5-1.5-0.9-1.9c-0.2-0.4-0.2-0.4,0.2,0c0.3,0.5,0.6,1,0.8,1.6c0.2-0.7,0.4-1.2,0.4-1.6
			l-0.3-0.9c0.1,0.2,0.3,0.4,0.4,0.7l0.2-0.8c0.1-0.3,0.1-0.2,0.1,0.2c-0.2,0.8-0.4,1.5-0.6,2.1c0.5-0.4,0.8-0.8,1-1.2
			c0.2-0.2,0.2-0.1,0,0.2c-0.1,0.3-0.5,0.8-1.1,1.3c-0.1,0.7-0.3,1.3-0.6,1.8c0.3-0.2,0.6-0.4,0.8-0.5c0.1,0,0.1,0-0.1,0.2
			c-0.2,0.1-0.5,0.3-0.8,0.6c-0.2,0.8-0.8,1.6-1.8,2.3c0.5-0.2,1-0.4,1.4-0.6c0.4-0.2,0.5-0.5,0.3-0.8c0.5-0.5,1-0.9,1.3-1.3
			c0.2-0.4,0.3-0.7,0.1-1c-0.1-0.1,0.1-0.6,0.8-1.3c0.2-0.3,0.3-0.6,0.4-1c0-0.4,0-0.6,0-0.6c-0.4,0-0.6-0.3-0.6-1.1
			c-0.1-0.6-0.3-0.8-0.4-0.6c-0.2,0.4-0.4,0.6-0.6,0.5c-0.2-0.1-0.3,0-0.3,0.1c0,0.7-0.2,0.9-0.6,0.8l-0.6-0.4
			c-0.5-0.2-0.6,0.1-0.3,0.6l0.4,0.5c0.1,0.4,0.1,0.6,0,0.6c-0.4-0.1-0.5,0-0.5,0.3c0.1,0.5,0.2,0.8,0.4,1.1
			c0.2,0.2,0.3,0.4,0.1,0.6C58.6,28.1,58.5,28.1,58.4,28.1 M55.8,27.7c0.1,0.1,0.1,0.2,0.1,0.3c0,0.1,0.1,0.2,0.2,0.3
			c0.2-0.2,0.3-0.4,0.5-0.6c0-0.1-0.1-0.2-0.1-0.3c-0.1-0.1-0.3-0.3-0.6-0.6c-0.3-0.3-0.6-0.6-0.8-0.8c-0.1-0.1-0.1-0.1,0.1,0
			c0.2,0.2,0.4,0.4,0.7,0.6c0.3,0.2,0.5,0.4,0.8,0.7c0-0.7-0.1-1.3-0.2-2c-0.1-0.4,0-0.4,0.1,0c0.2,0.6,0.3,1,0.3,1.3
			c0.1-0.1,0.2-0.3,0.2-0.4c0.1-0.1,0.1-0.3,0.2-0.5c0.2-0.3,0.2-0.3,0.1,0.1c0,0.1-0.1,0.3-0.2,0.5c-0.1,0.2-0.1,0.4-0.2,0.5
			c-0.1,0.1-0.1,0.4,0,0.8c0.3-0.3,0.7-0.8,1.3-1.3c0.1-0.9,0.1-1.3-0.1-1.3c-0.2,0-0.3,0.2-0.3,0.5c-0.1,0.3-0.1,0.3-0.1-0.1
			c0-0.4-0.1-0.6-0.2-0.6c-0.1,0-0.2,0-0.3,0.1c-0.1,0.1-0.2,0.2-0.3,0.2c-0.1,0-0.1-0.4-0.2-1.2c0-0.2,0.1-0.4,0.2-0.5
			c0.1-0.1,0.2-0.4,0.1-0.8c0-0.4,0-0.7-0.1-0.8c0-0.1-0.1-0.3-0.1-0.4c-0.1-0.1-0.1-0.2-0.2-0.3c-0.1,0-0.1,0-0.2,0.1
			c-0.1,0.1-0.2,0.2-0.2,0.1c0-0.1-0.1-0.2-0.3-0.3c-0.1-0.1-0.3,0-0.4,0.2c-0.1,0.2-0.3,0.6-0.4,1.3c0.3-0.3,0.5-0.5,0.7-0.5
			c0.2,0,0.3,0.1,0.3,0.2c0,0.1,0.1,0.3,0.1,0.5c0.1,0.2,0.1,0.5,0.1,0.9c0,0.4,0,0.6,0,0.7c0,0.1,0,0.2,0,0.2
			c0,0.1-0.1,0.1-0.3,0.2c0.1,0,0.2,0,0.2,0.1c0,0,0,0.2-0.1,0.5c-0.1,0.3-0.1,0.5-0.1,0.5c0,0.1,0,0.2,0,0.4
			c-0.1-0.1-0.1-0.2-0.1-0.4c0.1-0.6,0.1-0.9,0.1-1l-0.1-0.1l0.1-0.1c0.1-0.4,0.1-0.9,0-1.3c-0.1-0.4-0.2-0.7-0.3-0.9
			c-0.1-0.2-0.4-0.1-0.7,0.3c-0.2-0.2-0.3-0.2-0.4-0.2c-0.1,0-0.1,0.2,0.1,0.6c0.2,0.3,0.4,0.6,0.6,0.9c0.1,0.2,0.2,0.4,0.3,0.7
			c0.1,0.2,0.1,0.5,0,0.7c-0.4-0.3-0.7-0.4-0.8-0.2c-0.1,0.2-0.1,0.3-0.1,0.5c0.1,0.2,0.2,0.3,0.3,0.5c-0.1,0.3,0,0.6,0.4,0.9
			C55.4,27.4,55.7,27.6,55.8,27.7 M30.4,28.6c0.1-0.5,0.1-0.9,0.2-1.2c0.4-1.1,0.9-2.2,1.5-3.4c0-0.3,0.1-0.8,0.2-1.4
			c-0.9,1.2-1.4,2.3-1.7,3.4C30.4,27.2,30.3,28,30.4,28.6 M50.8,4.7c-0.3-0.5-0.5-0.8-0.5-1.1c0-0.3,0-0.3,0.1,0.1
			c0.1,0.3,0.3,0.7,0.8,1.2l0.3,0.1c0.5-0.3,0.9-0.2,1.2,0.1l-0.1-0.5c-0.1-0.3-0.4-0.3-0.7-0.1c-0.4-0.4-0.7-0.8-1-1
			c-0.3-0.2-0.6-0.4-1-0.6c-0.3-0.1-0.5,0-0.6,0.2l-0.4-0.3c-0.8-0.4-1.1-0.5-1.2-0.3c-0.1,0.2,0,0.4,0.1,0.5
			c-0.6-0.1-1-0.1-1.2,0.1c-0.2,0.1-0.3,0.3-0.2,0.5c0.1,0.2,0.3,0.4,0.8,0.5C47,4.2,47,4.4,47.1,4.5c0.1,0.2,0.4,0.3,0.8,0.4
			l0.6-0.1c0.2,0,0.2,0.1,0.1,0.4c0,0.3,0.1,0.4,0.3,0.3c0.4,0.4,0.8,0.5,1.2,0.4l0.4-0.1l0,0.5l0.8,0.2l0.2-0.1
			c-0.2-0.4-0.3-0.8-0.3-1.2l-0.4-0.2c-0.5,0-0.8,0.2-1.1,0.3c-0.2,0.1-0.3,0.1-0.2,0c0.3-0.2,0.6-0.4,1-0.4c-0.5-0.2-1-0.4-1.4-0.6
			c-0.6,0.2-1.1,0.2-1.6,0.2c-0.1,0-0.2-0.1-0.3-0.1c0,0,0.1,0,0.4,0c0.4,0,0.9-0.1,1.3-0.2c-0.1-0.1-0.3-0.2-0.5-0.3
			c-0.3-0.1-0.7-0.3-1.3-0.4c-0.1-0.1-0.1-0.1,0-0.1c0.3,0,0.8,0.1,1.3,0.4c0.2,0.1,0.4,0.2,0.7,0.3c-0.3-0.3-0.6-0.6-0.7-0.9
			c0-0.3,0-0.3,0.2,0c0.2,0.2,0.4,0.5,0.7,0.8C49.6,4.2,50.1,4.5,50.8,4.7 M52,7.7c0.3,0.1,0.5,0.1,0.7,0.1
			c-0.1-0.2-0.1-0.5-0.1-0.7c-0.2,0.1-0.4,0.1-0.6,0c-0.2,0-0.2-0.1-0.1-0.1c0.4,0,0.7-0.1,1.1-0.4c-0.2-0.3-0.4-0.5-0.7-0.8
			c-0.3-0.3-0.2-0.3,0.2-0.1c0.2,0.2,0.4,0.3,0.5,0.5c0-0.3,0-0.6,0-0.9c0.1-0.4,0.3-0.6,0.8-0.6c-0.4-0.2-0.7-0.1-1,0.5
			c-0.6-0.4-1-0.4-1.2,0c0,0.4,0.1,0.7,0.3,0.8c0.2,0.1,0.2,0.3,0,0.5l-0.4,0.2C51.5,7.2,51.7,7.5,52,7.7 M53.6,9.1
			c0.2,0.6,0.6,1,1.2,1.2l0.1-0.2c0.8,0.4,1.3,0.7,1.5,1c0.1,0.2,0.2,0.3,0.1,0.5c0.2-0.3,0.4-0.4,0.6-0.2l-0.2-0.4
			c0-0.2,0-0.4,0.1-0.5l0-0.1c-0.5-0.3-1-0.5-1.6-0.6c-0.5-0.1-0.9-0.2-0.9-0.3c-0.3-0.2-0.3-0.2,0.1,0c0.1,0.1,0.4,0.2,0.9,0.2
			c0.5,0.1,1,0.2,1.4,0.5l-0.3-0.6c-0.3-0.5-0.6-0.8-0.8-0.9c-0.4-0.2-0.7-0.3-1.2-0.4C54.3,8,54,7.9,53.9,7.9
			c-0.2-0.1-0.2-0.2,0-0.2c0.2,0.1,0.5,0.2,0.8,0.2c0.3,0,0.6,0.1,1,0.2c-0.2-0.2-0.4-0.5-0.8-0.9C54.5,7,54.2,6.5,54,6
			c0-0.1,0-0.1,0.2,0.1c0.5,0.7,0.9,1.2,1.2,1.5c-0.1-0.4-0.1-0.8,0-1.3c0-0.2,0.1-0.1,0.1,0.2c0,0.4,0,0.8,0.1,1.1
			c0.5,0.4,0.9,0.9,1.3,1.4c0-0.3,0-0.7,0-1.1c0-0.2,0.1-0.2,0.1,0c0,0.5,0,1,0.1,1.4l0.2,0.4c0-0.4,0.1-0.7,0.3-0.9
			c0-0.6-0.1-1.1-0.4-1.3c-0.1-0.5-0.2-0.7-0.4-0.7c-0.1,0-0.2,0.1-0.3,0.4l-0.4-0.1c-0.2-1-0.5-1.6-0.7-1.7c-0.3-0.1-0.4,0-0.4,0.2
			c-0.4-0.3-0.8-0.4-1.2-0.4c-0.3,0.2-0.4,0.4-0.3,0.8l0.2,0.8l-0.2,0.2l-0.3,0.1c-0.2,0.1-0.2,0.3,0,0.5c0.3,0.4,0.6,0.6,1.1,0.8
			c0.2,0.2,0.2,0.3-0.2,0.3C53.7,8.8,53.5,8.9,53.6,9.1 M48.1,36.4c0.3-0.1,0.6-0.3,0.9-0.5c0.1,0,0.2-0.2,0.2-0.3
			c0-0.3,0.2-0.5,0.5-0.6c0.3-0.1,0.6-0.2,0.8-0.2c0.2,0,0.4,0,0.6-0.2l0.2-0.2l-0.2-0.2c-0.1-0.1-0.1-0.1-0.2-0.1
			c-0.4,0.1-1.3,0.5-2.5,1.1c-0.3,0.2-0.5,0.4-0.7,0.6l-0.4,0.5L48.1,36.4z M51.6,35.7l1.5-0.9l0.1-0.6c0.3,0.2,0.6,0.3,0.9,0.2
			c0.2-0.1,0.4-0.2,0.6-0.5c0.2-0.3,0.5-0.7,0.9-1.1c0.4-0.4,0.8-0.8,1.2-1c-0.1-0.4,0-0.7,0.3-1l0.7-0.7c-0.2-0.6-0.1-1,0.3-1.3
			c-0.1-0.3-0.1-0.6,0-1.1c-0.6,1.3-1,2.1-1.2,2.4c-0.2,0.3-0.3,0.4-0.4,0.4c-0.1,0-0.1-0.3-0.1-0.7l-0.2,0.4l0,0.8
			c-1.1,1.4-1.8,2.2-2.1,2.3c-0.2,0.1-0.3,0.2-0.5,0.3c-0.2,0.1-0.3,0-0.2-0.2c0.1-0.1,0.3-0.3,0.5-0.4c0.3-0.2,0.6-0.5,0.7-0.9
			c0.3-0.7,0.8-1.6,1.5-2.7c0.2-0.4,0.8-1.2,1.7-2.3l0-0.6c-0.3,0.3-0.6,0.7-1,1.1c-0.4,0.4-0.8,0.9-1.1,1.4c-0.4,0.5-0.7,1-1,1.6
			c-0.2,0.1-0.4,0.1-0.6-0.2l0.1,0.6l0,0.5c-0.1,0.4-0.3,0.7-0.5,0.9c-0.2,0.2-0.5,0.6-0.7,0.9c-0.2,0.4-0.8,0.9-1.8,1.5L51.6,35.7z
			 M49.3,36.6c0.8-0.3,1.2-0.6,1.3-0.8c0.1-0.4,0.1-0.6,0-0.6c-0.3,0-0.5,0-0.8,0.2c-0.3,0.1-0.3,0.4-0.3,0.6l0.1,0.4h-0.1l-0.2-0.3
			l-0.8,0.4L49.3,36.6z M50.5,37c0.9,0.2,1.5,0.3,1.9,0.3c-0.2-0.3-0.3-0.6-0.4-0.9c-0.1,0.3-0.3,0.4-0.7,0.3L50.5,37z M58.2,24.1
			c0.3-0.2,0.6-0.2,0.8,0c0.2-0.6,0.3-1.4,0.4-2.1l-0.4-0.7v0.4c0,0.2-0.1,0.2-0.2,0.3l-1,0.2c-0.1,0-0.1,0.1-0.1,0.2
			c0,0.4-0.1,0.9-0.2,1.3c0,0.1,0,0.2,0.1,0.2L58.2,24.1z M61.4,22.8c0.1-0.1,0.3-0.1,0.6-0.2c0.2,0,0.3,0,0.1,0.1
			c-0.2,0.1-0.4,0.2-0.5,0.3c0.3,0.3,0.4,0.7,0.4,1l0.2,0.4c0.3-0.1,0.4-0.2,0.5-0.3c0.1-0.1,0.1-0.2,0.1-0.4c0-0.1-0.2-0.3-0.5-0.3
			c0.4-0.2,0.6-0.6,0.7-1.1c0-0.2-0.2-0.3-0.4-0.3c0.1-0.3,0.2-0.5,0.2-0.7c0-0.2,0-0.4-0.2-0.7c-0.3-0.2-0.6-0.1-0.9,0.2
			c-0.3-0.1-0.6,0-0.9,0.3c-0.2,0.8-0.3,1.5-0.5,2.3c0.2,0.1,0.5-0.1,0.8-0.6c-0.1-0.1-0.2-0.4-0.2-0.7c0-0.3,0.1-0.3,0.1,0
			c0,0.2,0.1,0.4,0.2,0.5c0.2-0.4,0.4-0.8,0.7-1.1c0.2-0.2,0.2-0.2,0.1,0C61.7,21.9,61.5,22.3,61.4,22.8L61.4,22.8z M36.6,37.2
			L38,37l-1-0.7L36.6,37.2z M37,42.8l0.2,0.2c0.2,0.1,0.4,0.2,0.6,0.4l0.5,0.3c0.3,0.2,0.6,0.1,0.7-0.1c0-0.2-0.1-0.4-0.4-0.5
			l-0.5-0.1l-0.1-0.1l0.6-0.3c0.5-0.2,0.9-0.5,1.3-0.7c0.4-0.3,0.7-0.5,1-0.8l0.2,0l-0.4,0.4c-0.8,0.6-1.5,1.1-2,1.4l0.3,0.1
			c0.8-0.6,1.5-1.1,2.1-1.7c0.2-0.2,0.2-0.4,0-0.5c-0.4,0-0.7,0.1-1.1,0.3c-0.4,0.2-0.8,0.2-1.1,0.2l-0.1,0.4c0,0.2-0.1,0.3-0.3,0.4
			l-0.8,0.5l0.1,0.4h-0.2L37,42.5L37,42.8z M53.8,11.1c0.1,0.1,0.2,0.1,0.2,0l0.6-0.5c-0.4-0.2-0.8-0.4-1-0.7
			c-0.3-0.3-0.4-0.5-0.5-0.6l-0.3,0.7c0,0.1,0,0.1,0,0.2C53.2,10.5,53.6,10.8,53.8,11.1 M38,35.1c0.2,0.1,0.4,0.1,0.6,0l-0.2-0.2
			l-0.4-0.3c-0.2-0.1-0.4,0-0.5,0.3L38,35.1z M59.6,24.5c0.2-0.8,0.4-1.7,0.6-2.9c-0.2,0-0.3,0-0.4,0c-0.1,0.7-0.2,1.6-0.5,2.6
			L59.6,24.5z M42.6,36.7c-0.5,0-0.9,0-1.2,0.1c-0.9,0.1-1.7,0.2-2.5,0.4L37,37.5c-1.3,0.2-2.3,0.3-3,0.3c-0.7-0.5-1.7-1.2-3-2
			c-0.8-0.5-1.8-1.1-2.8-1.6c-0.1-0.1-0.2-0.3-0.1-0.4c0.1-0.1,0.4-0.1,0.9-0.1c0.2,0,0.3,0.1,0.2,0.2c0,0.1-0.1,0.1-0.3,0.1
			c-0.1,0-0.3,0-0.4,0c0.9,0.4,1.8,0.9,2.6,1.4l0-1.2c0-0.4,0.1-0.8,0.3-1.1c0-0.3-0.2-0.5-0.9-0.6c-0.1,0-0.1,0-0.1,0.1l0,0.5
			l0.3-0.4l0.2,0.1l-0.3,0.7c0,0.1-0.1,0.1-0.3,0.1c-0.3,0-1,0-2,0c-0.4,0-0.5,0.3-0.4,0.8c0,0.1,0,0.3,0,0.5
			c-0.1,0.5-0.4,1.1-0.8,1.7c-0.1,0.1,0.1,0.5,0.7,1.2c0.5,0.5,1.4,1.1,2.8,1.9c1.8,1,3,1.6,3.4,1.7c1.5-0.2,3.1-0.4,4.6-0.7
			c0.6-0.1,1.3-0.3,2.1-0.5c0.8-0.2,2.1-0.6,3.8-1.2c0.1,0,0.2-0.2,0.1-0.5c-0.1-0.6-0.3-1.2-0.7-1.9C43.5,36.6,43,36.7,42.6,36.7
			 M39,27.8l5.3-4l5.3,4l-2-6.3l5.5-3.9h-6.6l-2-6.1l-2,6.1h-6.6l5.5,3.9L39,27.8z M31.5,38.2c0.2,0.1,0.3,0.2,0.5,0.2
			c0.1,0,0.3-0.1,0.4-0.3c0.1-0.2,0.1-0.3,0.1-0.4c0-0.1-0.1-0.3-0.4-0.4L31.5,38.2z M40,6.5c0.3-0.1,0.6-0.2,0.8-0.2
			c0.1,0,0.3,0,0.3,0.1l0.5,1c0.1,0.1,0.2,0.1,0.2,0.1c0.4-0.1,0.8-0.1,1.3-0.2c0.1,0,0.1,0,0.2-0.1l0.2-1.1C43.3,6,43.4,6,43.5,6
			c0.5,0,1,0,1.6,0c0.2,0,0.2,0.1,0.2,0.2l0.2,1c0,0.1,0.1,0.1,0.2,0.1c0.4,0,0.9,0.1,1.3,0.2c0.1,0,0.2,0,0.2-0.1l0.5-1
			c0.1-0.1,0.2-0.2,0.3-0.1c0.5,0.1,1,0.3,1.5,0.5c0.1,0.1,0.2,0.1,0.2,0.2l-0.1,1c0,0.1,0.1,0.2,0.2,0.2c0.3,0.1,0.7,0.3,1.1,0.6
			c0.1,0,0.1,0,0.2,0L51.6,8c0,0,0.1,0,0.1,0l0-0.1c-0.4-0.2-0.6-0.5-0.6-0.9l-0.9-0.4l0.1-0.4c-0.6,0.2-1.2,0.1-1.6-0.3
			c-0.3-0.1-0.4-0.3-0.4-0.6c-0.3,0.1-0.7,0.1-1,0c-0.5-0.1-0.7-0.3-0.7-0.6c0-0.2,0-0.4,0.1-0.5c-0.3-0.2-0.6-0.4-0.7-0.7
			c-0.1-0.3,0-0.5,0.2-0.7c0.2-0.2,0.6-0.2,1.1-0.3c0-0.4,0.1-0.6,0.4-0.6C48,2,48.3,2.1,48.5,2.1c0.3,0.1,0.5,0.2,0.7,0.4
			c0.1-0.2,0.4-0.3,0.8-0.1c0.5,0.2,1.1,0.7,1.9,1.5c0.4-0.3,0.7-0.2,0.9,0.4l0.1,0.5c0.4-0.4,0.9-0.4,1.4,0.1
			c0.2,0,0.4,0.1,0.6,0.2C55,5.1,55.2,5,55.3,5.1c0.4,0,0.6,0.2,0.8,0.6c0.2,0.4,0.3,0.7,0.3,1c0.1-0.4,0.3-0.6,0.6-0.4
			c0.2,0.2,0.4,0.6,0.5,1.2c0.2,0.3,0.4,0.6,0.4,1c0.5-0.1,1.1,0.2,1.6,1.1c0.2-0.3,0.5-0.1,0.8,0.4c0.2,0.4,0.4,0.9,0.4,1.3
			c0.4-0.1,0.6,0.2,0.6,1.1c0.3,0.7,0.4,1.1,0.4,1.3c0,0.2,0,0.4-0.1,0.5c0.2-0.1,0.4-0.1,0.5,0.1c0.3,0.4,0.4,0.8,0.3,1
			c0,0.3-0.2,0.6-0.6,1c0.8-0.2,1,0,0.7,0.8c-0.5,0.7-0.7,1.2-0.8,1.5c0,0.5-0.1,0.8-0.2,1c-0.1,0.2-0.4,0.4-0.7,0.6
			c0.1,0.1,0.1,0.3,0,0.5c0.4-0.4,0.8-0.5,1-0.4c0.4-0.3,0.8-0.4,1.1-0.2c0.3,0.2,0.4,0.7,0.2,1.5c0.3,0.5,0.3,1-0.2,1.7
			c0.2,0.1,0.2,0.3,0.2,0.6c0,0.2-0.1,0.4-0.2,0.5c-0.1,0.1-0.3,0.3-0.6,0.5c0.1,0.4,0.1,0.8,0,1.2c-0.1,0.4-0.4,1-1,1.7
			c0.1,0.4,0.1,0.8-0.2,1.2c-0.6,0.8-1.1,1.2-1.4,1.4c0.1,0.3,0.1,0.5,0,0.7c-1,0.6-1.7,1-2.3,1c-0.5,0.1-0.9,0.3-1.4,0.6L55,34.3
			c-0.1,0.3-0.2,0.4-0.4,0.5c0,0.3-0.1,0.5-0.3,0.5c-0.2,0.1-0.4,0.1-0.7,0.2c-0.4,0.3-0.8,0.6-1.2,0.8c0.1,0.5,0.3,0.9,0.5,1.1
			c1.1,0.2,1.8,0.2,2.1,0.1c0.4-0.2,1.1-0.7,2.2-1.6c0.1-0.3,0.2-1,0.2-2c0-0.2-0.1-0.4-0.2-0.5c-0.2-0.2-0.2-0.5,0-0.7
			c0.1-0.2,0.5-0.3,1.2-0.5c0.2,0,0.2,0.1,0.2,0.3l0,0.5c0,0.1,0.2,0.2,0.5,0.2c0.6-0.1,1.1-0.1,1.6,0c0.3,0,0.4,0.1,0.5,0.2
			c0.2,0.2,0.2,0.4,0.2,0.6c0,0.2,0,0.4,0,0.7c0,0.3,0.2,0.6,0.3,1c0.2,0.4,0.4,0.7,0.6,0.9c-0.2,0.5-0.5,1-0.9,1.4
			c-2.5,1.8-4,2.9-4.5,3.2c-0.5,0.4-0.9,0.5-1.2,0.5c-2.4-0.2-4.4-0.4-6.1-0.7l0.4,0.3c0.6,0.4,1.1,0.8,1.6,1l0.4,0.1l0.2,0.2
			c0,0.2-0.1,0.4-0.3,0.6l-0.5,0.2c-0.4,0.3-0.8,0.5-1.3,0.5l-0.3-0.1l-0.3-0.6c-0.5-0.1-0.7-0.2-0.9-0.3c-0.2-0.2-0.3-0.3-0.2-0.5
			c-1.3-1.2-2.2-1.8-2.8-1.9L45,40.7c-0.2,0.1-0.5,0.1-0.8,0c-0.6-0.3-0.9-0.5-1-0.4l-0.8,0.5c-0.1,0.1-0.2,0.2-0.2,0.4
			c-0.1,0.3-0.5,0.4-1,0.5l-0.6,0.5c0,0.3-0.1,0.5-0.2,0.6l-0.7,0.3c-0.1,0.4-0.3,0.6-0.5,0.7c-0.3,0.1-0.6,0.1-0.9,0l-0.8-0.5
			l-0.3-0.3c-0.2-0.1-0.4-0.2-0.5-0.4c-0.1-0.4,0-0.7,0.3-0.7c0.2,0.1,0.7-0.1,1.5-0.7l0-0.2c-2.8,0.4-4.2,0.6-4.5,0.6
			c-1.1-0.5-2.2-1-3.4-1.7c-1-0.6-1.7-1-2.1-1.3c-0.4-0.3-0.7-0.5-0.9-0.7c-0.4-0.4-0.7-0.8-0.8-1c-0.1-0.2-0.1-0.4-0.1-0.5
			c0.4-0.7,0.7-1.3,0.8-1.7c0-0.1,0-0.3,0-0.4c-0.1-0.4-0.1-0.7,0-0.9c0.1-0.1,0.3-0.2,0.5-0.2l2.1,0v-0.7c0-0.1,0.1-0.2,0.2-0.2
			c0.2,0,0.6,0.1,1.1,0.3c0.3,0.2,0.5,0.4,0.4,0.7c-0.2,0.3-0.3,0.7-0.2,1.2l0.1,1.3c1.1,0.7,1.9,1.3,2.5,1.7c0.6,0,1.3-0.1,2.1-0.2
			l0.4-1.2c-0.4-0.3-0.8-0.6-1.3-1.1L35,35c-0.3,0-0.6-0.2-0.7-0.5c-0.4,0-0.8-0.2-1.1-0.8c-0.6-0.7-1-1.3-1.4-1.9
			c-0.3,0.1-0.5,0-0.8-0.1c-0.3-0.2-0.6-0.4-0.9-0.7L28.3,29c-1.1-1.3-1.9-3-2.3-5c-0.1-0.6-0.1-1.2-0.2-1.7c0-0.6,0-0.9,0-1
			c0.1-0.3,0.2-0.6,0.4-0.6c0.5-0.2,1.2,0.7,2,2.6c0.4,1.1,1,2.6,1.7,4.7c0-0.3,0-0.7,0.1-1c-0.3-0.6-0.6-1.3-0.8-2
			c-0.1-0.2-0.2-0.4-0.3-0.4c-0.1-0.1-0.2-0.2-0.1-0.4c0-0.2,0-0.5-0.2-0.8c-0.2-0.8-0.4-1.3-0.5-1.6c-0.2-0.1-0.4-0.3-0.7-0.8
			c-0.2-0.4-0.5-1.1-0.7-2.1c-0.2-0.9-0.3-1.8-0.2-2.6c0.1-1.3,0.3-2.3,0.5-3.1c0.2-0.8,0.5-1.4,0.8-2c0.3-0.6,0.6-1,0.8-1.3
			c0.2-0.3,0.5-0.6,0.7-1c0.2-0.3,0.5-0.6,0.7-0.7c0.3-0.1,0.4,0,0.5,0.2c0.1,0.5,0.1,1.1,0,1.7c0.2-0.6,0.6-1.4,1.1-2.4
			c0.5-1,1.1-1.9,1.8-2.6C34.3,4.4,34.7,4.1,35,4c0.2-0.1,0.4,0,0.4,0.1c0.1,0.1,0.1,0.4,0,0.7c-0.3,0.7-0.5,1.2-0.7,1.7l-0.4,1
			c0.4-0.8,0.9-1.5,1.5-2.2c0.6-0.7,1.3-1.3,2.1-1.8c0.8-0.5,1.6-0.9,2.7-1.2c1-0.2,1.6-0.1,1.7,0.1c0,0.3-0.2,0.6-0.4,0.9
			c0.5,0,0.8,0.1,0.9,0.2c0,0.6-0.4,1.1-1,1.6C41.2,5.8,40.6,6.1,40,6.5L40,6.5z M50,43.4l0.4,0.1c0.3-0.1,0.6-0.2,0.9-0.4l0.6-0.2
			l0.1-0.1l-0.2,0l-0.4,0.1l-0.5-0.1c-0.2,0-0.4,0.1-0.5,0.2c-0.1,0.1-0.3,0.2-0.3,0.3L50,43.4z M31.3,38.3L31,38.8
			c0,0.1,0,0.1,0,0.2L31,39.2l-0.6-0.4l0.1-0.1c0.1,0,0.1,0,0.2,0l1-1.5c0-0.1,0-0.1-0.1-0.2l0.1-0.1l0.8,0.5
			c0.3,0.2,0.4,0.5,0.3,0.7c-0.1,0.3-0.2,0.5-0.5,0.6c-0.2,0.1-0.5,0.1-0.8-0.2L31.3,38.3z M29,37.9l1.1,0.7l0.4-0.2l-0.1-0.1
			c-0.2,0.1-0.5,0-0.8-0.3l0.4-0.7l0.2,0.1c0.1,0,0.1,0.1,0,0.2l0.1,0.1l0.3-0.5l-0.1-0.1c-0.1,0.1-0.1,0.1-0.2,0.1l-0.2-0.1
			l0.4-0.7c0.3,0.2,0.4,0.3,0.4,0.5l0.1,0l0.1-0.4l-1.1-0.7L30.2,36c0.1,0,0.1,0.1,0.1,0.2l-1,1.5c0,0.1-0.1,0.1-0.2,0L29,37.9z
			 M28.9,38l0,0.1c-0.3-0.2-0.5-0.4-0.5-0.7c-0.1-0.3-0.1-0.6,0-1l0,0L28,36.9c0,0.1,0,0.1,0,0.1l-0.1,0.2l-0.6-0.4l0.1-0.2
			c0.1,0,0.1,0.1,0.2,0l1-1.5c0-0.1,0-0.1-0.1-0.2l0.1-0.2l0.8,0.5c0.3,0.2,0.4,0.5,0.3,0.7c-0.1,0.3-0.2,0.5-0.4,0.6
			c-0.2,0.1-0.4,0.1-0.6-0.1c0,0.1,0,0.3,0,0.5C28.7,37.6,28.8,37.9,28.9,38 M28.5,36.2c0.2,0.2,0.3,0.3,0.5,0.3
			c0.2,0,0.3-0.1,0.4-0.3c0.1-0.2,0.1-0.3,0.1-0.4c0-0.1-0.2-0.2-0.4-0.3L28.5,36.2z M32.8,37.5l0.7,0.4l0,0.1c-0.1,0-0.2,0-0.2,0
			L33,39.4l1-0.9c0.1-0.1,0.1-0.1,0-0.2l0-0.1l0.5,0.3l-0.1,0.1c-0.1,0-0.2,0-0.2,0l-1.7,1.5l0.3-2.3C32.8,37.8,32.8,37.7,32.8,37.5
			L32.8,37.5z M31.6,27.3l0.5,0.6c-0.1-0.5-0.1-1-0.1-1.5L31.6,27.3z M33.1,31.3l-0.2,0.3l0.4,0.5l0.4,0.5c0.1,0.2,0.3,0.4,0.5,0.5
			L34,32.7l-0.3-0.6L33.1,31.3z M36.8,39.1l0.1,0.9l0.3,0c0.2,0,0.3-0.2,0.2-0.6c0-0.3-0.2-0.4-0.3-0.4L36.8,39.1z M36.7,38.2
			l0.1,0.7l0.3,0c0.2,0,0.2-0.2,0.2-0.4c0-0.3-0.1-0.4-0.3-0.4L36.7,38.2z M34.1,22.2l0.4-0.6c0.1-0.2,0.1-0.3-0.1-0.3
			c-0.1,0.1-0.3,0.1-0.4,0.2C34,21.7,34.1,21.9,34.1,22.2 M48.8,41.8c0.3,0.3,0.6,0.5,1,0.8h0.3c0.1-0.1,0.4-0.1,0.8-0.1L49,41.1
			c-0.6-0.2-1.1-0.2-1.3-0.1L48.8,41.8z M48.7,42.4c-0.1,0.1,0,0.2,0.1,0.3c0.1,0.1,0.2,0.1,0.3,0.1L48.7,42.4z M28.3,20.5l0.1,0.2
			c0.1-0.7,0.2-1.6,0.4-2.8C28.4,19.5,28.2,20.4,28.3,20.5 M36.2,38.1l0.9-0.1c0.3,0,0.6,0.1,0.6,0.4c0,0.3,0,0.4-0.2,0.6
			c0.2,0,0.3,0.2,0.4,0.4c0.1,0.5-0.2,0.8-0.8,0.9l-0.7,0.1v-0.2c0.1,0,0.2-0.1,0.2-0.2l-0.2-1.7c0-0.1-0.1-0.1-0.2-0.1L36.2,38.1z
			 M34.5,38.3l0.9-0.1c0.3,0,0.6,0.1,0.7,0.4c0,0.3,0,0.4-0.2,0.6c0.2,0,0.4,0.2,0.4,0.4c0.1,0.5-0.2,0.8-0.9,0.9l-0.7,0.1v-0.2
			c0.1,0,0.2-0.1,0.2-0.2l-0.2-1.7c0-0.1-0.1-0.1-0.2-0.1L34.5,38.3z M35.2,39.4l0.1,0.9l0.3,0c0.2-0.1,0.2-0.3,0.2-0.6
			c0-0.3-0.2-0.4-0.3-0.4L35.2,39.4z M35.1,38.5l0.1,0.7l0.3,0c0.2,0,0.3-0.2,0.2-0.4c0-0.3-0.1-0.4-0.3-0.4L35.1,38.5z M31.8,29.5
			l0.7,1.1l0.1-0.1l-0.6-1.1L31.8,29.5z M41.7,37.3l0.1,0.4l-0.1,0c-0.1-0.3-0.4-0.4-0.6-0.4c-0.4,0.1-0.6,0.6-0.5,1.2
			c0.2,0.6,0.5,0.9,1,0.7c0.2-0.1,0.3-0.3,0.3-0.6l0.1-0.1l0.1,0.5c-0.2,0.2-0.4,0.3-0.7,0.3c-0.6,0.1-1-0.1-1.2-0.6
			c-0.2-0.6-0.2-1.1,0.1-1.4C40.6,37.2,41.1,37.1,41.7,37.3 M42.9,36.8L42.3,39c0,0.1-0.1,0.2-0.2,0.2l0,0.1l0.6-0.1V39
			c-0.1,0-0.2,0-0.2,0l0.1-0.5l0.7-0.2l0.2,0.3c0,0.1,0,0.2-0.1,0.2l0,0.1l0.8-0.2v-0.1c-0.1,0-0.2,0-0.2-0.1L42.9,36.8z M39.2,37.6
			l0.7-0.1l0,0.2c-0.1,0-0.2,0-0.2,0.1l0.2,1.6c0,0.1,0.1,0.1,0.2,0.1l0,0.2l-0.7,0.1l0-0.2c0.1,0,0.1-0.1,0.1-0.2l-0.2-1.6
			c0-0.1-0.1-0.1-0.2-0.1L39.2,37.6z M43.3,38.1l-0.5,0.1l0.2-0.7L43.3,38.1z M37.8,37.9l0.7-0.1l0,0.2c-0.1,0-0.2,0.1-0.2,0.2
			l0.3,1.7c0.3-0.1,0.5-0.2,0.6-0.4l0.1,0l-0.1,0.5l-1.2,0.2l0-0.2c0.1,0,0.1-0.1,0.1-0.2L38,38.2c0-0.1-0.1-0.1-0.2-0.1L37.8,37.9z
			 M29.5,18l-0.2,0.6l-0.1,0.9l0.3-1.1l0.4-1.2l-0.4,0.1L29.5,18z M29.7,14.4c-0.2,0.6-0.3,1.2-0.4,1.8l0.6-1.6L29.7,14.4z M30.6,15
			l-0.5,1.5l0.2,0c0.2-0.5,0.4-1,0.7-1.6L30.6,15z M39.7,42.9l0.2,0.1l0.2-0.1l0.2-0.2l0-0.1l-0.1,0L39.7,42.9L39.7,42.9z M51,35.2
			c0,0.4-0.1,0.6-0.1,0.8l0.4-0.2L51,35.2z M54.5,30c-0.2,0.2-0.3,0.3-0.1,0.4c0.2,0.1,0.3,0.1,0.3,0l0.2-0.2L54.5,30z M59.4,35.5
			l0.3,2.1c0,0.1,0,0.1-0.1,0.2l0,0.1l0.6-0.4l-0.1-0.1c-0.1,0.1-0.2,0.1-0.2,0l-0.1-0.4l0.6-0.4l0.3,0.2c0.1,0,0,0.1,0,0.2l0.1,0.2
			l0.7-0.5l-0.1-0.1c-0.1,0-0.1,0-0.2,0L59.4,35.5z M57.1,37.6l0.8,1.3c0,0.1,0,0.2-0.1,0.2l0.1,0.1l0.5-0.3l-0.1-0.1
			c-0.1,0-0.2,0-0.2,0l-0.6-1l2,0.5l-1.1-1.5c-0.1-0.1,0-0.3,0.1-0.4l-0.1-0.1l-0.6,0.4l0.1,0.2c0.1,0,0.2,0,0.3,0.1l0.4,0.7
			l-1.6-0.4l-0.4,0.3l0.1,0.1C56.9,37.5,57,37.5,57.1,37.6 M60.3,36.6l-0.4,0.3l-0.1-0.6L60.3,36.6z M55.7,38l0.3,2.1
			c0,0.1,0,0.2-0.1,0.2l0,0.2l0.6-0.4L56.5,40c-0.1,0.1-0.2,0.1-0.2,0l-0.1-0.3l0.6-0.4l0.3,0.2c0.1,0,0.1,0.1,0,0.1l0.1,0.2
			l0.7-0.5l-0.1-0.1c-0.1,0-0.1,0-0.2,0L55.7,38z M56.6,39.1l-0.4,0.3l-0.1-0.7L56.6,39.1z M54.6,38.4l0.8,0.1l0,0.2
			c-0.1,0-0.2,0.1-0.2,0.2l-0.1,1.5c0,0.1,0.1,0.1,0.2,0.2l0,0.2l-0.8-0.1l0-0.2c0.1,0,0.2,0,0.2-0.1l0.1-1.5c0-0.1,0-0.2-0.1-0.2
			V38.4z M49,37.6l-0.2,0.4l0.1,0.1c0.1-0.2,0.3-0.2,0.6-0.1l-0.3,1.6c0,0.1-0.1,0.1-0.2,0.1l0,0.2l0.8,0.1l0-0.2
			c-0.1,0-0.1-0.1-0.1-0.2l0.3-1.6c0.3,0,0.5,0.1,0.5,0.3l0.1,0l0-0.5C50,37.8,49.5,37.8,49,37.6 M47.9,37.5l0.7,0.1l0,0.2
			c-0.1,0-0.2,0-0.2,0.2l-0.2,1.5c0,0.1,0,0.1,0.1,0.2l0,0.2l-0.8-0.1l0-0.2c0.1,0,0.2,0,0.2-0.1l0.2-1.5c0-0.1,0-0.2-0.1-0.2
			L47.9,37.5z M56,30.5l-0.5,1l0.5-0.6V30.5z M55.7,28l-0.1,0.9l0.2-0.4C55.7,28.4,55.7,28.2,55.7,28 M57.6,30.8l-0.3,0.4
			c0,0.2,0.1,0.2,0.3,0L57.6,30.8z M57.3,17.7c-0.1,0.3-0.1,0.5-0.1,0.6c0,0.1,0.1,0.1,0.2,0.2c0.1,0,0.2,0.1,0.3,0.1
			C57.5,18.3,57.4,18,57.3,17.7 M59.9,18c0,0.2,0.1,0.3,0.4,0.4L59.9,18z M36,33.6c0.4,0.5,0.8,0.7,1,0.8c0.1-0.3,0.3-0.4,0.5-0.6
			c0.2-0.1,1.4,0.3,3.7,1.3l1.1,1.2c0.1,0.1,0.3,0,0.6-0.1c0.5-0.3,0.9-0.4,1.4-0.3c0.5-0.3,0.8-0.3,1-0.2c0.3,0.2,0.5,0.4,0.8,0.6
			h0.9c0.5-0.7,0.9-1.1,1.1-1.2c1.5-0.8,2.6-1.2,3.1-1.3c0.1,0,0.1,0,0.2,0.1c0.2,0.2,0.3,0.3,0.4,0.4c0.5-0.3,0.8-0.6,0.9-0.9
			c0.1-0.4,0.4-0.7,0.8-1.2c0.4-0.4,0.6-0.8,0.5-1.2l-0.1-0.8c0.2-0.3,0.3-0.4,0.4-0.4l-0.1-0.1c-0.1,0-0.2,0-0.2,0
			c-0.3,0.3-0.6,0.6-1,0.8c-0.1,0-0.1,0.1,0,0.2l0.4,1c0.1,0.1,0,0.2-0.1,0.3c-0.4,0.3-0.9,0.6-1.3,0.9c-0.1,0.1-0.2,0.1-0.3,0
			l-0.7-0.8c-0.1-0.1-0.1-0.1-0.2,0c-0.4,0.2-0.8,0.4-1.1,0.6c-0.1,0-0.1,0.1-0.2,0.2l0.1,1c0,0.1,0,0.2-0.2,0.2
			c-0.5,0.2-1,0.4-1.5,0.5c-0.1,0-0.3,0-0.3-0.1l-0.5-1c0-0.1-0.1-0.1-0.2-0.1c-0.4,0.1-0.8,0.1-1.3,0.2c-0.1,0-0.1,0-0.2,0.1
			l-0.2,1c0,0.1-0.1,0.2-0.2,0.2c-0.5,0-1,0-1.6,0c-0.1,0-0.2-0.1-0.2-0.2l-0.2-1.1c0-0.1-0.1-0.1-0.2-0.1c-0.4,0-0.8-0.1-1.3-0.2
			c-0.1,0-0.2,0-0.2,0.1l-0.5,1c-0.1,0.1-0.2,0.1-0.3,0.1c-0.5-0.1-1-0.3-1.4-0.4c-0.1,0-0.2-0.1-0.2-0.3l0.1-1.1
			c0-0.1,0-0.2-0.1-0.2c-0.4-0.1-0.8-0.3-1.1-0.6c-0.1-0.1-0.1-0.1-0.2,0l-0.7,0.8c-0.1,0.1-0.2,0.1-0.3,0c-0.5-0.2-0.9-0.5-1.3-0.8
			c-0.1-0.1-0.1-0.2-0.1-0.3l0.5-0.9c0-0.1,0-0.2-0.1-0.2c-0.4-0.3-0.7-0.5-1-0.8c-0.1-0.1-0.1-0.1-0.2-0.1l-0.4,0.2
			c0.1,0,0.3,0.1,0.5,0.3c0,0.1,0.1,0.1,0,0.2l-0.1,0.7c-0.1,0.5,0.1,1,0.6,1.6L36,33.6z M34.1,23l0.1-0.2c0.1-0.2,0.1-0.2,0.1,0
			l-0.2,0.6c0.1,0.3,0.1,0.8,0.1,1.7c0.3-1,0.4-1.8,0.4-2.5c0-0.5-0.1-0.6-0.3-0.4l-0.3,0.4L34.1,23z M32.2,16.8L32,17h9.2l-0.7-0.2
			H32.2z M32.7,16.2l-0.2,0.2h6.6l-0.8-0.2H32.7z M33.1,15.7L33,15.9h3.9l-0.8-0.2H33.1z M33.3,15.3h1.5l0.1-0.2h-1.5L33.3,15.3z
			 M48.1,16.8L47.4,17h9.3l-0.2-0.2H48.1z M50.3,16.2l-0.8,0.2h6.7l-0.2-0.2H50.3z M52.6,15.7l-0.8,0.2h4.1l-0.3-0.2H52.6z
			 M54.8,15.1h-1.1l0.1,0.2h1.3L54.8,15.1z M31.6,17.4l-0.3,0.2h3.5l-0.3-0.2H31.6z M31.4,18l0.4,0.2h3.8L35.4,18H31.4z M31.6,18.6
			l0,0.2h4.9l-0.3-0.2H31.6z M31.5,19.2l0,0.2h2.2l0-0.2H31.5z M31.5,19.7c0,0.1-0.2,0.2-0.4,0.2h2.4l0-0.2H31.5z M30,20.3v0.2h3
			c0.1-0.1,0.1-0.2,0.2-0.2H30z M30,20.9v0.2h2.7l0.1-0.2H30z M30,21.5v0.2h2.5l0-0.2H30z M31.4,22.1c0.1,0,0.1,0.1,0.1,0.2h0.9
			l0.1-0.2H31.4z M31.5,22.8h0.5l0.2-0.2h-0.6L31.5,22.8z M31.5,23.2l0,0.2l0.1-0.2H31.5z M30.4,24.4c0,0.1,0,0.1,0,0.2h0.5l0.1-0.2
			H30.4z M30.5,25l0,0.2h0.2l0.1-0.2H30.5z M54,17.4l-0.3,0.2h3.2l0-0.2H54z M53.2,18l-0.3,0.2h3.9V18H53.2z M52.4,18.6l-0.3,0.2
			h4.9l-0.2-0.2H52.4z M54.9,19.2l0,0.2h2.2l0-0.2H54.9z M55,19.7l0,0.2h2.3c-0.1,0-0.1-0.1-0.1-0.2H55z M55,20.5h3.5v-0.2H55V20.5z
			 M56.8,20.9l0.1,0.2h1.6v-0.2H56.8z M57.1,21.5l0,0.2h1.4v-0.2H57.1z M57.1,22.1l0,0.2c0-0.1,0.1-0.2,0.1-0.2H57.1z M57.2,22.6
			L57.2,22.6l0,0.2L57.2,22.6z M56.9,23.4h0.1l0-0.2L56.9,23.4z M56.8,23.8V24h0.5L57,23.8H56.8z M56.8,24.4l0.1,0.2l0.3-0.2H56.8z
			 M57.7,24.4l0.1,0.2h0.3l0-0.2H57.7z M57.5,19.6c0,0.1,0.1,0.1,0.1,0.2l0.9,0.1c-0.3-0.4-0.5-0.7-0.7-1.1l-0.4-0.1
			C57.4,19.1,57.5,19.3,57.5,19.6 M34.5,19.2l0.5,0.2h2.3L37,19.2H34.5z M36,19.7l0.5,0.2h1.6l-0.3-0.2H36z M37.5,20.3l0.5,0.2h0.9
			l-0.3-0.2H37.5z M39,20.9l0.5,0.2h0.2l-0.3-0.2H39z M51.6,19.2l-0.3,0.2h2.3l0.5-0.2H51.6z M50.8,19.7l-0.3,0.2h1.6l0.5-0.2H50.8z
			 M50,20.3l-0.3,0.2h0.9l0.5-0.2H50z M49.2,20.9l-0.3,0.2h0.2l0.5-0.2H49.2z M42.5,10.4l0,0.2H44l0.1-0.2H42.5z M36.3,8.7l-0.1,0.2
			h1.2l-0.2-0.2H36.3z M42.5,10h1.8l0.1-0.2h-1.8L42.5,10z M42.4,11.6l0,0.2h1.3l0.1-0.2H42.4z M42.4,12.2l0,0.2h1.1l0.1-0.2H42.4z
			 M42.3,12.8l0,0.2h0.9l0.1-0.2H42.3z M42.3,13.3l0,0.2h0.8l0.1-0.2H42.3z M42.3,13.9l0,0.2h0.6l0.1-0.2H42.3z M42.2,14.5l0,0.2
			h0.5l0-0.2H42.2z M42.2,15.1l0,0.2h0.3l0.1-0.2H42.2z M42.2,15.7l0,0.2h0.1l0.1-0.2H42.2z M44.5,10.4l0.1,0.2h1.6l0-0.2H44.5z
			 M44.7,11l0.1,0.2h1.4V11H44.7z M46.1,9.8h-1.8l0.1,0.2h1.8L46.1,9.8z M44.9,11.6l0.1,0.2h1.3l0-0.2H44.9z M45.1,12.2l0.1,0.2h1.1
			l0-0.2H45.1z M45.3,12.8l0.1,0.2h0.9v-0.2H45.3z M45.5,13.3l0.1,0.2h0.8l0-0.2H45.5z M45.7,13.9l0.1,0.2h0.6l0-0.2H45.7z
			 M45.9,14.5l0,0.2h0.4v-0.2H45.9z M46,15.1l0.1,0.2h0.3l0-0.2H46z M46.2,15.7l0.1,0.2h0.1l0-0.2H46.2z M40,22.6l-0.1,0.2h0.2
			l0.1-0.2H40z M39.7,23.2l-0.1,0.2h0.4l0.1-0.2H39.7z M39.3,23.8L39.2,24h0.6l0.1-0.2H39.3z M38.9,24.4l-0.1,0.2h0.8l0.1-0.2H38.9z
			 M38.5,25l-0.1,0.2h1l0.1-0.2H38.5z M38.2,25.6L38,25.8h1.2l0.1-0.2H38.2z M37.8,26.1l-0.1,0.2H39l0.1-0.2H37.8z M37.4,26.7
			l-0.1,0.2h1.5l0.1-0.2H37.4z M37,27.3l-0.1,0.2h1.7l0.1-0.2H37z M43.6,25l-0.3,0.2h0.1L43.6,25z M42.8,25.6l-0.2,0.2H43l0.2-0.2
			H42.8z M42.1,26.1l-0.3,0.2h0.7l0.2-0.2H42.1z M41.3,26.7l-0.3,0.2h1l0.2-0.2H41.3z M40.5,27.3l-0.2,0.2h1.3l0.2-0.2H40.5z
			 M39.8,27.9l-0.3,0.2h1.6l0.2-0.2H39.8z M39,28.5l-0.3,0.2h1.9l0.2-0.2H39z M38.1,29.2l0-0.1h-4.8l-0.1,0.2h7l0.2-0.2h-2.1
			L38.1,29.2z M33.7,28.1h4.7l0.1-0.2h-4.7L33.7,28.1z M33.6,28.5l-0.1,0.2h4.8l0.1-0.2H33.6z M34,27.3l-0.1,0.2h2.4l-0.2-0.2H34z
			 M34.1,26.7l0,0.2h1.8l-0.2-0.2H34.1z M34.2,26.1l-0.1,0.2h1.2l-0.1-0.2H34.2z M34.4,25.6l-0.1,0.2H35l-0.1-0.2H34.4z M34.6,25
			l-0.1,0.2h0.3l0-0.2L34.6,25z M48.4,22.6l0.1,0.2h0.2l-0.1-0.2H48.4z M48.6,23.2l0.1,0.2h0.4l-0.1-0.2H48.6z M54.3,23.8L54.3,24
			h0.4l-0.1-0.2H54.3z M54.1,24.4l-0.1,0.2h0.8l-0.1-0.2H54.1z M49.2,25l0.1,0.2h1L50,25H49.2z M49.3,25.6l0.1,0.2h1.2l-0.1-0.2
			H49.3z M49.5,26.1l0.1,0.2h1.3l-0.1-0.2H49.5z M49.7,26.7l0.1,0.2h1.5l-0.1-0.2H49.7z M49.9,27.3l0.1,0.2h1.7l-0.1-0.2H49.9z
			 M45.1,25.2h0.1L45,25L45.1,25.2z M45.4,25.6l0.2,0.2H46l-0.2-0.2H45.4z M45.9,26.1l0.2,0.2h0.7l-0.3-0.2H45.9z M46.4,26.7
			l0.2,0.2h1l-0.3-0.2H46.4z M46.8,27.3l0.2,0.2h1.3l-0.2-0.2H46.8z M47.3,27.9l0.2,0.2h1.6l-0.3-0.2H47.3z M47.8,28.5l0.2,0.2h1.9
			l-0.3-0.2H47.8z M50.3,29h-2.1l0.2,0.2h7l0-0.2h-4.9l0,0.1L50.3,29z M55.4,27.9h-5.3l0.1,0.2h5.2L55.4,27.9z M50.3,28.5l0.1,0.2h5
			l0-0.2H50.3z M52.5,27.3l-0.2,0.2h2.9l-0.2-0.2H52.5z M53,26.7l-0.2,0.2h1.7l-0.1-0.2H53z M53.3,26.1l-0.1,0.2h1.1l0-0.1l-0.1-0.1
			H53.3z M53.6,25.6l-0.1,0.2h0.6l0-0.2H53.6z M55.1,25L55.1,25l-0.1,0L55.1,25z M49,24.4l0.1,0.2h0.8l-0.1-0.2H49z M53.8,25.2h0.3
			l0.2-0.2l-0.4,0L53.8,25.2z M48.8,23.8l0.1,0.2h0.6l-0.1-0.2H48.8z M43.5,6.4l0,0.2h1.6l0-0.2H43.5z M43.4,6.9l0,0.2h1.7l0-0.2
			H43.4z M39.5,8.1c0,0.1,0,0.1-0.1,0.2h9.8c-0.1-0.1-0.2-0.1-0.2-0.2H39.5z M38.8,8.7l-0.4,0.2h11.9c-0.1-0.1-0.2-0.1-0.4-0.2H38.8
			z M36,9.3l-0.1,0.2h17L53,9.3H36z M35.7,9.8L35.6,10h5.4c0.3-0.1,0.6-0.2,0.8-0.2H35.7z M35.4,10.4l-0.1,0.2h4l0.4-0.2H35.4z
			 M35.1,11v0.2h3.2l0.3-0.2H35.1z M35,11.6l0,0.2h2.5l0.3-0.2H35z M34.9,12.2l-0.1,0.2h2l0.2-0.2H34.9z M34.7,12.8L34.6,13h1.7
			l0.2-0.2H34.7z M34.5,13.3l-0.1,0.2h1.5l0.2-0.2H34.5z M34.1,13.9L34,14.1h1.4l0.2-0.2H34.1z M33.8,14.5l-0.1,0.2H35l0.1-0.2H33.8
			z M42.4,11v0.2h1.4l0.1-0.2H42.4z M36.6,8.1l-0.1,0.2H37l-0.2-0.2H36.6z M40.5,6.6h0.4c0,0-0.1-0.1-0.2-0.1
			C40.7,6.5,40.6,6.5,40.5,6.6 M39.3,7.1h1.9l-0.1-0.2h-1.8L39.3,7.1z M39.4,7.7h1.9c0,0-0.1-0.1-0.2-0.2h-1.8L39.4,7.7z M48.2,6.6
			c-0.1-0.1-0.2-0.1-0.3-0.1c-0.1,0-0.1,0-0.1,0.1H48.2z M49.3,6.9h-1.7l-0.1,0.2h1.8L49.3,6.9z M49.2,7.5h-1.9
			c0,0.1-0.1,0.2-0.1,0.2h2L49.2,7.5z M42.9,7.5c-0.4,0-0.9,0.1-1.4,0.2h5.5c-0.5-0.1-1-0.2-1.5-0.2H42.9z M46.7,9.8
			c0.3,0,0.5,0.1,0.8,0.2h5.1l0.1-0.2H46.7z M48.8,10.4l0.5,0.2H53l-0.3-0.2H48.8z M49.9,11l0.4,0.2h3.4L53.4,11H49.9z M50.8,11.6
			l0.3,0.2h3.3l0-0.2H50.8z M51.5,12.2l0.2,0.2h2.8l-0.1-0.2H51.5z M52.1,12.8l0.2,0.2h1.8c0-0.1,0-0.1,0-0.2H52.1z M52.6,13.3
			l0.2,0.2h1.5l-0.1-0.2H52.6z M53.1,13.9l0.1,0.2h1.1c0-0.1,0.1-0.2,0.3-0.2H53.1z M53.5,14.5l0.1,0.2h0.7l-0.1-0.2H53.5z
			 M51.9,8.6c-0.1,0.1,0.3,0.2,1.2,0.2c0-0.1,0.1-0.2,0.2-0.2l-0.4-0.3l-0.6-0.1C52,8.4,51.8,8.5,51.9,8.6 M51.3,8.7l-0.2,0.2h0.7
			c-0.2,0-0.3-0.1-0.3-0.2H51.3z M51.8,8.1l-0.2,0.2h0.1L51.8,8.1L51.8,8.1z M41.9,10c-0.6,0.1-1.1,0.2-1.5,0.4h1.8l0-0.4H41.9z
			 M39.9,10.6c-0.3,0.1-0.6,0.3-0.8,0.4h3.1l0-0.4H39.9z M38.7,11.2c-0.2,0.1-0.4,0.3-0.6,0.4h4l0-0.4H38.7z M37.9,11.8
			c-0.1,0.1-0.3,0.2-0.4,0.4h4.7l0-0.4H37.9z M37.2,12.4l-0.4,0.4h5.3l0-0.4H37.2z M36.6,13l-0.3,0.4h5.8l0-0.4H36.6z M36.2,13.5
			l-0.3,0.4h6.2l0-0.4H36.2z M35.7,14.1l-0.2,0.4H42v-0.4H35.7z M35.1,15.1H42l0-0.4h-6.6L35.1,15.1z M35.3,15.3l1.5,0.4H42l0-0.4
			H35.3z M37.5,15.9l1.4,0.4h3l0-0.4H37.5z M39.7,16.4l1.4,0.4h0.8l0-0.4H39.7z M46.3,10l0,0.4h1.8c-0.4-0.1-0.9-0.3-1.5-0.4H46.3z
			 M46.4,10.6l0,0.4h3.1c-0.2-0.1-0.4-0.2-0.8-0.4H46.4z M46.4,11.2l0,0.4h4c-0.2-0.1-0.4-0.2-0.6-0.4H46.4z M46.4,11.8l0,0.4h4.7
			c-0.1-0.1-0.3-0.3-0.4-0.4H46.4z M46.4,12.4l0,0.4h5.3l-0.4-0.4H46.4z M46.5,13l0,0.4h5.8L52,13H46.5z M46.5,13.5l0,0.4h6.2
			l-0.3-0.4H46.5z M46.6,14.1v0.4h6.6l-0.2-0.4H46.6z M53.2,14.7h-6.6l0,0.4h6.8L53.2,14.7z M46.6,15.3l0,0.4h5.2l1.5-0.4H46.6z
			 M46.6,15.9l0,0.4h3l1.4-0.4H46.6z M46.7,16.4l0,0.4h0.8l1.4-0.4H46.7z M43.4,34.3l0,0.2h1.7l0-0.2H43.4z M43.4,33.7l0,0.2h1.9
			l0-0.2H43.4z M41.5,33.1c0.5,0.1,0.9,0.2,1.3,0.2h2.9c0.4,0,0.8-0.1,1.2-0.2H41.5z M39.3,33.7l0,0.2h1.7l0.1-0.2H39.3z M39.4,33.1
			l0,0.2h1.9c0-0.1,0.1-0.2,0.1-0.2H39.4z M40.3,34.3l0.3,0.1c0.1,0,0.2,0,0.3-0.1H40.3z M39.3,32.5c0.1,0,0.2,0.1,0.2,0.2h9.6
			c0-0.1,0.1-0.1,0.2-0.2H39.3z M38.2,32l0.4,0.2h11.5l0.3-0.2H38.2z M47.5,33.7l0.1,0.2h1.7l0-0.2H47.5z M47.1,33.1
			c0.1,0,0.1,0.1,0.1,0.2h1.9l0-0.2H47.1z M47.7,34.3c0.1,0.1,0.1,0.1,0.3,0.1l0.3-0.1H47.7z M35.8,31.4l-0.1,0.2h17.2l-0.1-0.2
			H35.8z M47.1,30.8c-0.2,0.1-0.6,0.1-1.1,0.2h6.8l-0.1-0.2H47.1z M48.7,30.2l-0.4,0.2h4.5l0.2-0.2H48.7z M48.8,29.6l0.1,0.2h4.5
			l0.2-0.2H48.8z M36.1,30.8L36,31h6.8c-0.5-0.1-0.9-0.1-1.1-0.2H36.1z M35.6,30.2l0.2,0.2h4.5L40,30.2H35.6z M34.9,29.6l0.2,0.2
			h4.5l0.1-0.2H34.9z M36.6,32.5l0.2,0.1c0.1,0,0.2,0,0.3,0l0.1-0.1H36.6z M35.6,32l0.3,0.2h1.5l0.2-0.2H35.6z M33.4,29.6l0.2,0.2
			h0.3l0.3-0.2H33.4z M51.5,32.5L51.5,32.5c0.1,0.1,0.2,0.1,0.3,0.1l0.2-0.1H51.5z M51,32l0.2,0.2h1.5L53,32H51z M54.4,29.6l0.4,0.2
			H55l0.2-0.2H54.4z M54.2,19.4l-1,0.4h1.6l0-0.4H54.2z M52.6,19.9l-1,0.4h3.1l0-0.4H52.6z M51.1,20.5l-1,0.4h4.6v-0.4H51.1z
			 M49.6,21.1l-1,0.4h6.1l0-0.4H49.6z M48.1,21.7l0.2,0.4h6.3l0-0.4H48.1z M48.5,22.3l0.2,0.4h5.2c0-0.2,0-0.3,0.1-0.4H48.5z
			 M48.9,22.8l0.2,0.4h5C54.1,23.1,54,23,54,22.8H48.9z M49.2,23.4l0.2,0.4h4.7l0.1-0.3l0,0H49.2z M49.6,24l0.2,0.4h4.1l0.2-0.4
			H49.6z M50,24.6l0.2,0.4h3.5l0.2-0.4H50z M50.4,25.2l0.2,0.4h2.8l0.2-0.4H50.4z M50.8,25.8l0.2,0.4h2.1l0.2-0.4H50.8z M51.1,26.3
			l0.2,0.4h1.3l0.3-0.4H51.1z M51.5,26.9l0.3,0.4h0.5l0.3-0.4H51.5z M51.9,27.5L51.9,27.5H52H51.9z M33.9,19.4l0,0.4h1.6l-1-0.4
			H33.9z M33.8,19.9v0.4H37l-1-0.4H33.8z M33.8,20.5v0.4h4.6l-1-0.4H33.8z M34.8,21.1c0.1,0.1,0.1,0.2,0,0.4H40l-1-0.4H34.8z
			 M34.7,21.7L34.7,21.7c0,0,0.1,0,0.1,0c0.1,0,0.1,0.1,0.2,0.4h5.3l0.2-0.4H34.7z M35,22.3v0.4h4.9l0.2-0.4H35z M35,22.8l0,0.4h4.5
			l0.2-0.4H35z M34.9,23.4l-0.1,0.4h4.3l0.2-0.4H34.9z M34.8,24l-0.1,0.4h4L39,24H34.8z M34.7,24.6L34.7,24.6l0.1,0.4h3.5l0.2-0.4
			H34.7z M34.9,25.2l0.2,0.4H38l0.2-0.4H34.9z M35.2,25.8l0.2,0.4h2.2l0.2-0.4H35.2z M35.5,26.3l0.3,0.4h1.4l0.2-0.4H35.5z M36,26.9
			l0.3,0.4h0.5l0.3-0.4H36z M36.6,27.5L36.6,27.5h0.2H36.6z M44.2,24.6L43.9,25h0.8l-0.3-0.4H44.2z M43.7,25.2l-0.3,0.4h1.8
			l-0.3-0.4H43.7z M43.2,25.8l-0.3,0.4h2.7l-0.3-0.4H43.2z M42.8,26.3l-0.3,0.4h3.6l-0.3-0.4H42.8z M42.3,26.9L42,27.3h4.6l-0.3-0.4
			H42.3z M41.8,27.5l-0.3,0.4h5.5l-0.3-0.4H41.8z M41.4,28.1l-0.3,0.4h6.5l-0.3-0.4H41.4z M40.9,28.7L40.6,29H48l-0.3-0.4H40.9z
			 M40.4,29.2l-0.3,0.4h8.3l-0.3-0.4H40.4z M40,29.8l-0.1,0.1l0.6,0.3h7.8l0.5-0.3l-0.1-0.1H40z M40.9,30.4c0.6,0.2,1.2,0.3,1.7,0.4
			h3.5c0.6-0.1,1.1-0.2,1.6-0.4H40.9z M52.2,40.1c0,0.1,0.1,0.2,0.2,0.2v0.1l-0.9-0.1l0-0.1c0.1,0,0.2,0,0.2-0.1l-0.1-0.3l-0.8-0.1
			l-0.1,0.2c0,0.1,0,0.1,0.2,0.2v0.2l-0.7-0.1l0-0.1c0.1,0,0.2,0,0.2-0.1l1.1-1.9L52.2,40.1z M52.8,38.6c0-0.1,0-0.2-0.1-0.2v-0.2
			l0.8,0.1l0,0.2c-0.1,0-0.1,0.1-0.2,0.2l-0.1,1.7c0.5,0,0.8,0,1-0.2h0.1l-0.2,0.5l-1.6-0.2l0-0.1c0.1,0,0.2-0.1,0.2-0.2L52.8,38.6
			L52.8,38.6z M51.3,38.8l-0.4,0.7l0.6,0.1L51.3,38.8z M30.7,27.6c-0.2,0.7-0.3,1.1-0.3,1.4c-0.1,0.4,0.1,0.6,0.4,0.6
			c0.2-0.1,0.4,0,0.5,0.2l0.6,1.2c-0.2,0.2-0.4,0.1-0.8-0.1c-0.3-0.2-0.5-0.6-0.8-1.1c-0.2-0.4-0.3-0.7-0.5-1.1
			c-0.1-0.3-0.3-0.7-0.4-1.2c-0.1-0.5-0.5-1.4-1-2.9c-0.5-1.5-1-2.4-1.3-2.9c-0.3-0.4-0.5-0.6-0.6-0.6c-0.1,0-0.2,0.1-0.3,0.3
			c0,0.1,0,0.4,0,1.1c0,0.6,0.1,1.1,0.1,1.4c0.2,0.9,0.5,1.8,1,2.9c0.5,1,1.3,2.2,2.4,3.4c-0.5-0.8-1-1.8-1.5-2.8
			c-0.6-1.3-1-2.2-1.2-2.9c-0.2-0.6-0.3-1.1-0.3-1.3c0-0.2,0-0.2,0.1,0c0.1,0.2,0.2,0.7,0.5,1.4c0.3,0.9,0.9,2.2,1.9,3.9
			c0.7,1.3,1.1,2.1,1.3,2.3c0.6,0.6,1.1,0.7,1.4,0.5l0.2,0.2l0.7,1.2l0.7,0.9c0.4,0.4,0.8,0.5,1.2,0.3c0.1,0.2,0.2,0.3,0.4,0.3
			c0.2-0.1,0.3,0,0.4,0.1l0.3,0.4l1.5,1l1.7,1l1-0.2c-0.3-0.2-0.6-0.4-1-0.7c-0.1-0.2-0.2-0.4-0.3-0.5l-0.3,0.1l0.1,0.5l-0.4-0.1
			c0-0.2-0.1-0.4-0.4-0.6c-0.3-0.2-0.7-0.5-1.2-0.8c-0.5-0.3-0.9-0.7-1.3-1.2c-0.4-0.5-0.7-0.8-0.7-0.9c-0.1-0.2-0.2-0.4-0.3-0.4
			c-0.1,0-0.1-0.2-0.1-0.4l0-0.3l0.1-0.9l-0.2-0.1L34,30.8c0,0.2-0.2,0.1-0.5-0.3c-0.3-0.4-0.7-1-1.4-1.9l-0.7-0.9L31.4,28
			c0.4,0.5,0.7,1,0.9,1.4c0.2,0.4,0.5,0.8,0.6,1.1c0.2,0.3,0.4,0.7,0.8,1.3l0.5,0.9l0.8,0.8l0,0.5c-0.2-0.3-0.3-0.6-0.4-0.7
			c-0.1-0.1-0.2-0.1-0.3,0c-0.3,0.3-0.6,0.1-1.1-0.6c-0.2-0.3-0.5-0.7-0.7-1.2c-0.1-0.1,0.1-0.3,0.4-0.6l-0.2-0.2l-0.2,0.2l-1-1.5
			l0.1-0.2l-0.1-0.2l-0.2,0.1l-0.3-0.5L30.9,29l0.1,0.3l-0.2,0.1c-0.1,0-0.2-0.3,0-0.8c0.3-0.8,0.7-1.8,1.2-3c0-0.3,0-0.7,0.1-1.2
			C31.5,25.4,31,26.5,30.7,27.6 M56.1,13.9c0.1-0.4,0.3-0.8,0.5-1.3c0.3-0.4,0.3-0.5,0.1,0c-0.4,0.8-0.6,1.3-0.5,1.6l0.7,1.5
			c0.1-0.6,0.4-1.2,0.9-1.8c0.2-0.2,0.2-0.2,0,0.1c-0.5,0.8-0.8,1.4-0.8,1.9l0.4,1.3c0.1-0.3,0.2-0.6,0.4-0.9c0.1-0.1,0.1-0.1,0,0.1
			c-0.1,0.2-0.1,0.4-0.2,0.7c-0.1,0.3-0.1,0.6,0.1,0.9c0.1,0.3,0.3,0.7,0.6,1.2c0.3,0.5,0.5,0.8,0.7,1.1c0.2,0.2,0.4,0.6,0.7,1
			l0.6,0l0.1-1.1c0.4-0.1,0.6-0.3,0.6-0.6c0-1.1-0.1-1.9-0.2-2.3c-0.5-0.7-1-1.2-1.5-1.5c-0.2-0.2-0.2-0.2,0-0.1
			c0.6,0.4,1,0.7,1.3,1.1l-0.3-1.4c-0.4-0.4-0.8-0.8-1.1-1.3c-0.2-0.2-0.2-0.3,0-0.1c0.4,0.5,0.7,0.8,1,1c-0.2-0.5-0.3-1-0.5-1.5
			c-0.6-0.6-1-1.1-1.4-1.3c-0.3-0.2-0.3-0.3,0-0.2c0.2,0.1,0.6,0.3,1.2,0.8c-0.2-0.5-0.4-1-0.6-1.5c-0.2-0.3-0.5-0.6-0.8-0.9
			c-0.1-0.1-0.1-0.1,0.1,0c0.2,0.1,0.4,0.3,0.6,0.6l-0.3-0.9c0-0.2,0-0.2,0.1,0l0.3,0.7l0.5,1.3c0.1-0.2,0.1-0.5,0.1-0.8
			c0.1-0.4,0.1-0.4,0.1,0c0,0.4,0,0.8-0.1,1.1c0.2,0.6,0.4,1.1,0.6,1.8c0.2-0.3,0.4-0.8,0.5-1.3c0.1-0.4,0.1-0.4,0.1,0.1
			c-0.1,0.6-0.2,1-0.4,1.4c0.2,0.8,0.4,1.5,0.5,2c0.2-0.1,0.3-0.4,0.5-0.8c0.1-0.2,0.2-0.2,0.1,0.1c-0.2,0.6-0.4,0.9-0.5,1.1
			c0.1,0.6,0.2,1.1,0.3,1.6c0.1,0.5,0.1,0.9,0,1.4c0.1-0.1,0.2-0.3,0.2-0.6c0-0.2,0.1-0.4,0.1-0.6c0.1-0.3,0.3-0.6,0.5-1
			c0.2-0.4,0.2-0.5,0-0.5l-0.4,0.1c-0.1,0-0.2-0.1-0.2-0.2c0-0.3,0.1-0.5,0.3-0.7c0.2-0.2,0.3-0.4,0.3-0.5c0-0.1-0.1-0.4-0.2-0.8
			c-0.3,0.1-0.5,0.2-0.6,0.3c-0.1,0.1-0.1,0.1-0.2,0c0-0.1,0.1-0.3,0.2-0.5c0.1-0.2,0.2-0.5,0.1-0.8c-0.1-0.3-0.2-0.7-0.4-1.2
			c0.2-0.7,0-0.9-0.6-0.6c0.1-0.6,0-1.1-0.3-1.5c-0.2-0.5-0.5-0.6-0.7-0.3c-0.5-0.7-0.8-1.1-1.1-1.2c-0.2-0.1-0.4-0.1-0.4,0
			c0,0.1-0.1,0.3-0.2,0.5c-0.1,0.2-0.1,0.5,0,1c-0.3,0.1-0.5,0.3-0.4,0.5l0.2,0.7c0.2,0.2,0.3,0.5,0.3,0.7c0.1,0.2,0,0.5-0.1,0.7
			c0.5-0.3,0.8-0.3,0.9,0c0.1,0.2,0.1,0.4,0,0.6c0,0.2,0,0.5,0,0.9c0,0.1,0.1,0.2,0.4,0.3c0.3,0.1,0.3,0.2,0.2,0.4
			c-0.1,0.1-0.2,0-0.4-0.1c-0.2-0.1-0.3-0.1-0.4,0c-0.2,0.3,0,0.6,0.4,0.9c1,0.6,1.3,1,1.2,1.1c-0.3,0.1-0.4,0.2-0.3,0.5
			c0,0.1,0.2,0.3,0.5,0.5c0.3,0.2,0.4,0.5,0.3,0.9c0,0.4-0.2,0.7-0.5,0.7c-0.1-0.4-0.1-0.7-0.1-0.8c0-0.1-0.1-0.2-0.3-0.3
			c-0.2-0.1-0.5-0.8-0.8-2l-0.5,0c0.4,1.5,0.7,2.2,0.8,2.2c0.1,0,0.2,0.2,0.4,0.5c0,0.2,0,0.5,0,0.9c0,0.4,0.1,0.6,0.4,0.6L60,20.9
			c-0.2,0-0.3-0.1-0.4-0.3c-0.1-0.2-0.2-0.4-0.2-0.6c0-0.2,0-0.4,0-0.7c0-0.2-0.1-0.3-0.3-0.2c-0.2,0.1-0.4,0.1-0.4,0
			c-0.1-0.1-0.1-0.1-0.1-0.2c0-0.1,0-0.3,0.2-0.6c0-0.2,0-0.4,0-0.5c-0.1-0.1-0.2-0.1-0.4-0.1c-0.2,0-0.3-0.2-0.2-0.6l0.3-1
			c0.1-0.5-0.1-0.6-0.6-0.2c0.1-0.4,0.2-0.7,0.4-0.9c0.2-0.2,0.3-0.4,0.3-0.6c0-0.3,0-0.5,0-0.7c0-0.2,0-0.4-0.1-0.5
			c-0.3,0-0.7,0.3-1.2,1l0.2-0.6c0.3-0.8,0.3-1.3,0.2-1.6c-0.1-0.2-0.3-0.3-0.5-0.4c-0.1,0-0.3,0.2-0.5,0.5
			c-0.2,0.2-0.3,0.3-0.4,0.1l0.1-0.7c0-0.3-0.1-0.5-0.4-0.6c-0.2-0.1-0.5-0.3-0.8-0.4c0,0.2-0.1,0.4-0.2,0.5
			c-0.1,0.3-0.2,0.5-0.2,0.8c-0.1,0.2,0,0.4,0.2,0.7c-0.5,0-0.7,0.2-0.4,0.7l0.2,0.3c0.1,0.1,0.2,0.3,0.3,0.6c-0.3,0-0.5,0-0.5,0.2
			c0,0.2,0.1,0.4,0.2,0.5c0.9,0.4,1.5,0.8,1.7,1.2c0.3,0.5,0.5,0.7,0.6,0.7l-0.4-1.2c-0.2-0.3-0.7-0.6-1.5-1c-0.2-0.1-0.2-0.1,0-0.1
			c0.6,0.3,1.1,0.5,1.4,0.7c-0.1-0.3-0.3-0.7-0.5-1.1c-0.2-0.3-0.6-0.5-1-0.8c-0.2-0.1-0.2-0.2,0-0.1c0.4,0.2,0.7,0.4,1,0.6
			c-0.2-0.6-0.4-1.2-0.5-1.9l-0.1-0.2l0.2,0C55.7,12.3,55.9,13,56.1,13.9 M29,21.2c0-0.8,0.1-1.3,0.1-1.5c0-0.3,0-0.5,0.1-0.8
			c0-0.3,0.1-0.7,0.2-1.4l-0.1-0.1c-0.1,0.3-0.2,0.7-0.3,1.2c-0.1,0.5-0.1,0.9-0.1,1.2c0,0.3-0.1,0.8-0.2,1.4
			c-0.1,0.1-0.2,0.1-0.3,0c-0.2-0.1-0.4-0.3-0.5-0.8c-0.2-0.5-0.2-1.2-0.2-2.3c0.2-3,0.7-5.3,1.6-6.9c0.2-0.3,0.2-0.2,0,0.2
			c-0.4,0.8-0.7,2.2-1,4.2c-0.3,2-0.3,3.2-0.2,3.9c0.3-1.3,0.5-2.3,0.7-3.1c0.1-0.7,0.5-2,1.1-3.9c0.2-0.7,0.4-1.3,0.4-1.9
			c0.1-0.6,0.1-1.1,0-1.7c-0.1-0.1-0.2-0.1-0.5,0.2c-1.1,1.3-1.9,2.8-2.3,4.2c-0.3,1.1-0.4,2.2-0.5,3.3c0,1,0,1.8,0.2,2.5
			c0.2,0.7,0.3,1.2,0.5,1.7c0.2,0.4,0.5,0.7,0.9,0.9c0.1,0.3,0.2,0.7,0.3,1.1c0.1,0.4,0.2,0.7,0.3,0.9c0.1,0.2,0.1,0.3,0.2,0.4
			c0.1,0.1,0.1,0.3,0.1,0.6c0.2,0.7,0.5,1.4,0.8,2.1l0.1-0.2c-0.3-0.6-0.4-1.1-0.5-1.5c-0.1-0.3-0.1-0.6-0.1-0.7
			c0.1-0.1,0.1-0.3,0-0.4c-0.1-0.1-0.3-0.5-0.5-1.1c-0.2-0.6-0.3-1-0.3-1.2c0.3-0.7,0.5-1.2,0.6-1.5c0.1-0.3,0.3-0.7,0.6-1.2
			c0.3-0.5,0.6-1.1,0.9-1.6c0.3-0.6,1.2-2,2.7-4.3c0.2-0.1,0.1,0-0.2,0.5l-0.7,1.3l-1.5,2.5c0.9-0.8,1.8-2.1,2.8-3.9
			c0.3-0.5,0.4-1,0.5-1.5c0.1-0.5,0.1-0.8,0-0.9c-0.4,0-0.9,0.4-1.4,1c-0.9,1.2-1.6,2.3-2.1,3.3l-0.9,2.1l-0.7,2
			C29.4,20,29.2,20.6,29,21.2 M33.4,11.4c0.5-0.5,1.1-0.7,1.7-0.8L35.8,9c0.4-0.8,0.6-1.4,0.6-1.6c0-0.3,0-0.5,0-0.6
			c-0.1,0-0.3,0-0.5,0.2c-0.8,0.6-1.5,1.5-2.1,2.6l-1.3,2.4l-1.4,2.4c-0.1,0.2-0.2,0.2-0.4,0.2l-0.2-0.1c0.5-1.3,1.2-2.5,2.2-3.8
			c0.3-0.1,0.4-0.2,0.2-0.3l0.9-1.6l-1.1,1.6c-0.1-0.1-0.2-0.1-0.2,0l0,0.2c-0.5,0.7-1,1.4-1.4,2.1c-0.4,0.7-0.7,1.2-0.9,1.6
			c-0.1,0-0.3-0.2-0.4-0.5L29.7,14l0.5,0.6l-0.8,2l-0.2,0l0,0.2l0.1,0.3l0.2,0.1c0.3,0,0.5-0.2,0.7-0.5c-0.3,0.1-0.5,0.2-0.6,0.1
			l0.7-2.2c0.4,0,0.6-0.1,0.7-0.1c1-1.5,1.6-2.5,1.9-2.9c0.9-1.6,1.7-2.7,2.2-3.5c0.6-0.7,0.9-1.2,1-1.3c0.1-0.1,0.1-0.1,0,0.2
			c-0.8,1.2-1.4,2.1-1.8,2.7C34,10.4,33.6,10.9,33.4,11.4"/>
	</g>
</g>
</svg>
